%TF.GenerationSoftware,KiCad,Pcbnew,9.0.6*%
%TF.CreationDate,2026-03-31T20:51:52+02:00*%
%TF.ProjectId,SegmaSirra,5365676d-6153-4697-9272-612e6b696361,rev?*%
%TF.SameCoordinates,Original*%
%TF.FileFunction,Copper,L1,Top*%
%TF.FilePolarity,Positive*%
%FSLAX46Y46*%
G04 Gerber Fmt 4.6, Leading zero omitted, Abs format (unit mm)*
G04 Created by KiCad (PCBNEW 9.0.6) date 2026-03-31 20:51:52*
%MOMM*%
%LPD*%
G01*
G04 APERTURE LIST*
G04 Aperture macros list*
%AMRoundRect*
0 Rectangle with rounded corners*
0 $1 Rounding radius*
0 $2 $3 $4 $5 $6 $7 $8 $9 X,Y pos of 4 corners*
0 Add a 4 corners polygon primitive as box body*
4,1,4,$2,$3,$4,$5,$6,$7,$8,$9,$2,$3,0*
0 Add four circle primitives for the rounded corners*
1,1,$1+$1,$2,$3*
1,1,$1+$1,$4,$5*
1,1,$1+$1,$6,$7*
1,1,$1+$1,$8,$9*
0 Add four rect primitives between the rounded corners*
20,1,$1+$1,$2,$3,$4,$5,0*
20,1,$1+$1,$4,$5,$6,$7,0*
20,1,$1+$1,$6,$7,$8,$9,0*
20,1,$1+$1,$8,$9,$2,$3,0*%
G04 Aperture macros list end*
%ADD10C,0.150000*%
%TA.AperFunction,NonConductor*%
%ADD11C,0.150000*%
%TD*%
%TA.AperFunction,ComponentPad*%
%ADD12R,1.800000X1.800000*%
%TD*%
%TA.AperFunction,ComponentPad*%
%ADD13C,1.800000*%
%TD*%
%TA.AperFunction,ComponentPad*%
%ADD14R,1.700000X1.700000*%
%TD*%
%TA.AperFunction,ComponentPad*%
%ADD15C,1.700000*%
%TD*%
%TA.AperFunction,ComponentPad*%
%ADD16C,1.600000*%
%TD*%
%TA.AperFunction,ComponentPad*%
%ADD17R,1.500000X1.500000*%
%TD*%
%TA.AperFunction,ComponentPad*%
%ADD18C,1.500000*%
%TD*%
%TA.AperFunction,ComponentPad*%
%ADD19RoundRect,0.250000X1.050000X-1.050000X1.050000X1.050000X-1.050000X1.050000X-1.050000X-1.050000X0*%
%TD*%
%TA.AperFunction,ComponentPad*%
%ADD20C,2.600000*%
%TD*%
%TA.AperFunction,ComponentPad*%
%ADD21RoundRect,0.250000X-0.550000X-0.550000X0.550000X-0.550000X0.550000X0.550000X-0.550000X0.550000X0*%
%TD*%
%TA.AperFunction,ComponentPad*%
%ADD22RoundRect,0.250000X1.050000X1.050000X-1.050000X1.050000X-1.050000X-1.050000X1.050000X-1.050000X0*%
%TD*%
%TA.AperFunction,ComponentPad*%
%ADD23RoundRect,0.250000X0.625000X-0.350000X0.625000X0.350000X-0.625000X0.350000X-0.625000X-0.350000X0*%
%TD*%
%TA.AperFunction,ComponentPad*%
%ADD24O,1.750000X1.200000*%
%TD*%
%TA.AperFunction,SMDPad,CuDef*%
%ADD25C,1.500000*%
%TD*%
%TA.AperFunction,ComponentPad*%
%ADD26R,1.905000X2.000000*%
%TD*%
%TA.AperFunction,ComponentPad*%
%ADD27O,1.905000X2.000000*%
%TD*%
%TA.AperFunction,Conductor*%
%ADD28C,0.600000*%
%TD*%
%TA.AperFunction,Conductor*%
%ADD29C,2.000000*%
%TD*%
G04 APERTURE END LIST*
D10*
D11*
X185666666Y-166304819D02*
X185333333Y-165828628D01*
X185095238Y-166304819D02*
X185095238Y-165304819D01*
X185095238Y-165304819D02*
X185476190Y-165304819D01*
X185476190Y-165304819D02*
X185571428Y-165352438D01*
X185571428Y-165352438D02*
X185619047Y-165400057D01*
X185619047Y-165400057D02*
X185666666Y-165495295D01*
X185666666Y-165495295D02*
X185666666Y-165638152D01*
X185666666Y-165638152D02*
X185619047Y-165733390D01*
X185619047Y-165733390D02*
X185571428Y-165781009D01*
X185571428Y-165781009D02*
X185476190Y-165828628D01*
X185476190Y-165828628D02*
X185095238Y-165828628D01*
X186095238Y-165781009D02*
X186428571Y-165781009D01*
X186571428Y-166304819D02*
X186095238Y-166304819D01*
X186095238Y-166304819D02*
X186095238Y-165304819D01*
X186095238Y-165304819D02*
X186571428Y-165304819D01*
X187333333Y-165781009D02*
X187000000Y-165781009D01*
X187000000Y-166304819D02*
X187000000Y-165304819D01*
X187000000Y-165304819D02*
X187476190Y-165304819D01*
X188000000Y-165304819D02*
X188000000Y-165542914D01*
X187761905Y-165447676D02*
X188000000Y-165542914D01*
X188000000Y-165542914D02*
X188238095Y-165447676D01*
X187857143Y-165733390D02*
X188000000Y-165542914D01*
X188000000Y-165542914D02*
X188142857Y-165733390D01*
X188761905Y-165304819D02*
X188761905Y-165542914D01*
X188523810Y-165447676D02*
X188761905Y-165542914D01*
X188761905Y-165542914D02*
X189000000Y-165447676D01*
X188619048Y-165733390D02*
X188761905Y-165542914D01*
X188761905Y-165542914D02*
X188904762Y-165733390D01*
D10*
D11*
X275666666Y-104304819D02*
X275333333Y-103828628D01*
X275095238Y-104304819D02*
X275095238Y-103304819D01*
X275095238Y-103304819D02*
X275476190Y-103304819D01*
X275476190Y-103304819D02*
X275571428Y-103352438D01*
X275571428Y-103352438D02*
X275619047Y-103400057D01*
X275619047Y-103400057D02*
X275666666Y-103495295D01*
X275666666Y-103495295D02*
X275666666Y-103638152D01*
X275666666Y-103638152D02*
X275619047Y-103733390D01*
X275619047Y-103733390D02*
X275571428Y-103781009D01*
X275571428Y-103781009D02*
X275476190Y-103828628D01*
X275476190Y-103828628D02*
X275095238Y-103828628D01*
X276095238Y-103781009D02*
X276428571Y-103781009D01*
X276571428Y-104304819D02*
X276095238Y-104304819D01*
X276095238Y-104304819D02*
X276095238Y-103304819D01*
X276095238Y-103304819D02*
X276571428Y-103304819D01*
X277333333Y-103781009D02*
X277000000Y-103781009D01*
X277000000Y-104304819D02*
X277000000Y-103304819D01*
X277000000Y-103304819D02*
X277476190Y-103304819D01*
X278000000Y-103304819D02*
X278000000Y-103542914D01*
X277761905Y-103447676D02*
X278000000Y-103542914D01*
X278000000Y-103542914D02*
X278238095Y-103447676D01*
X277857143Y-103733390D02*
X278000000Y-103542914D01*
X278000000Y-103542914D02*
X278142857Y-103733390D01*
X278761905Y-103304819D02*
X278761905Y-103542914D01*
X278523810Y-103447676D02*
X278761905Y-103542914D01*
X278761905Y-103542914D02*
X279000000Y-103447676D01*
X278619048Y-103733390D02*
X278761905Y-103542914D01*
X278761905Y-103542914D02*
X278904762Y-103733390D01*
D10*
D11*
X185666666Y-104304819D02*
X185333333Y-103828628D01*
X185095238Y-104304819D02*
X185095238Y-103304819D01*
X185095238Y-103304819D02*
X185476190Y-103304819D01*
X185476190Y-103304819D02*
X185571428Y-103352438D01*
X185571428Y-103352438D02*
X185619047Y-103400057D01*
X185619047Y-103400057D02*
X185666666Y-103495295D01*
X185666666Y-103495295D02*
X185666666Y-103638152D01*
X185666666Y-103638152D02*
X185619047Y-103733390D01*
X185619047Y-103733390D02*
X185571428Y-103781009D01*
X185571428Y-103781009D02*
X185476190Y-103828628D01*
X185476190Y-103828628D02*
X185095238Y-103828628D01*
X186095238Y-103781009D02*
X186428571Y-103781009D01*
X186571428Y-104304819D02*
X186095238Y-104304819D01*
X186095238Y-104304819D02*
X186095238Y-103304819D01*
X186095238Y-103304819D02*
X186571428Y-103304819D01*
X187333333Y-103781009D02*
X187000000Y-103781009D01*
X187000000Y-104304819D02*
X187000000Y-103304819D01*
X187000000Y-103304819D02*
X187476190Y-103304819D01*
X188000000Y-103304819D02*
X188000000Y-103542914D01*
X187761905Y-103447676D02*
X188000000Y-103542914D01*
X188000000Y-103542914D02*
X188238095Y-103447676D01*
X187857143Y-103733390D02*
X188000000Y-103542914D01*
X188000000Y-103542914D02*
X188142857Y-103733390D01*
X188761905Y-103304819D02*
X188761905Y-103542914D01*
X188523810Y-103447676D02*
X188761905Y-103542914D01*
X188761905Y-103542914D02*
X189000000Y-103447676D01*
X188619048Y-103733390D02*
X188761905Y-103542914D01*
X188761905Y-103542914D02*
X188904762Y-103733390D01*
D10*
D11*
X275666666Y-166304819D02*
X275333333Y-165828628D01*
X275095238Y-166304819D02*
X275095238Y-165304819D01*
X275095238Y-165304819D02*
X275476190Y-165304819D01*
X275476190Y-165304819D02*
X275571428Y-165352438D01*
X275571428Y-165352438D02*
X275619047Y-165400057D01*
X275619047Y-165400057D02*
X275666666Y-165495295D01*
X275666666Y-165495295D02*
X275666666Y-165638152D01*
X275666666Y-165638152D02*
X275619047Y-165733390D01*
X275619047Y-165733390D02*
X275571428Y-165781009D01*
X275571428Y-165781009D02*
X275476190Y-165828628D01*
X275476190Y-165828628D02*
X275095238Y-165828628D01*
X276095238Y-165781009D02*
X276428571Y-165781009D01*
X276571428Y-166304819D02*
X276095238Y-166304819D01*
X276095238Y-166304819D02*
X276095238Y-165304819D01*
X276095238Y-165304819D02*
X276571428Y-165304819D01*
X277333333Y-165781009D02*
X277000000Y-165781009D01*
X277000000Y-166304819D02*
X277000000Y-165304819D01*
X277000000Y-165304819D02*
X277476190Y-165304819D01*
X278000000Y-165304819D02*
X278000000Y-165542914D01*
X277761905Y-165447676D02*
X278000000Y-165542914D01*
X278000000Y-165542914D02*
X278238095Y-165447676D01*
X277857143Y-165733390D02*
X278000000Y-165542914D01*
X278000000Y-165542914D02*
X278142857Y-165733390D01*
X278761905Y-165304819D02*
X278761905Y-165542914D01*
X278523810Y-165447676D02*
X278761905Y-165542914D01*
X278761905Y-165542914D02*
X279000000Y-165447676D01*
X278619048Y-165733390D02*
X278761905Y-165542914D01*
X278761905Y-165542914D02*
X278904762Y-165733390D01*
D12*
%TO.P,D1,1,K*%
%TO.N,GND*%
X261275000Y-167000000D03*
D13*
%TO.P,D1,2,A*%
%TO.N,Net-(D1-A)*%
X258735000Y-167000000D03*
%TD*%
D14*
%TO.P,J3,1,Pin_1*%
%TO.N,unconnected-(J3-Pin_1-Pad1)*%
X247396000Y-161036000D03*
D15*
%TO.P,J3,2,Pin_2*%
%TO.N,GND*%
X247396000Y-158496000D03*
%TO.P,J3,3,Pin_3*%
%TO.N,unconnected-(J3-Pin_3-Pad3)*%
X247396000Y-155956000D03*
%TO.P,J3,4,Pin_4*%
%TO.N,unconnected-(J3-Pin_4-Pad4)*%
X247396000Y-153416000D03*
%TO.P,J3,5,Pin_5*%
%TO.N,/D4*%
X247396000Y-150876000D03*
%TO.P,J3,6,Pin_6*%
%TO.N,/D16*%
X247396000Y-148336000D03*
%TO.P,J3,7,Pin_7*%
%TO.N,unconnected-(J3-Pin_7-Pad7)*%
X247396000Y-145796000D03*
%TO.P,J3,8,Pin_8*%
%TO.N,/D5*%
X247396000Y-143256000D03*
%TO.P,J3,9,Pin_9*%
%TO.N,unconnected-(J3-Pin_9-Pad9)*%
X247396000Y-140716000D03*
%TO.P,J3,10,Pin_10*%
%TO.N,unconnected-(J3-Pin_10-Pad10)*%
X247396000Y-138176000D03*
%TO.P,J3,11,Pin_11*%
%TO.N,/D21*%
X247396000Y-135636000D03*
%TO.P,J3,12,Pin_12*%
%TO.N,unconnected-(J3-Pin_12-Pad12)*%
X247396000Y-133096000D03*
%TO.P,J3,13,Pin_13*%
%TO.N,unconnected-(J3-Pin_13-Pad13)*%
X247396000Y-130556000D03*
%TO.P,J3,14,Pin_14*%
%TO.N,/D22*%
X247396000Y-128016000D03*
%TO.P,J3,15,Pin_15*%
%TO.N,/D23*%
X247396000Y-125476000D03*
%TD*%
D14*
%TO.P,J24,1,Pin_1*%
%TO.N,/EN*%
X217399000Y-125496000D03*
D15*
%TO.P,J24,2,Pin_2*%
%TO.N,/VP*%
X217399000Y-128036000D03*
%TO.P,J24,3,Pin_3*%
%TO.N,/VN*%
X217399000Y-130576000D03*
%TO.P,J24,4,Pin_4*%
%TO.N,/D34*%
X217399000Y-133116000D03*
%TO.P,J24,5,Pin_5*%
%TO.N,/D35*%
X217399000Y-135656000D03*
%TO.P,J24,6,Pin_6*%
%TO.N,/D32*%
X217399000Y-138196000D03*
%TO.P,J24,7,Pin_7*%
%TO.N,/D33*%
X217399000Y-140736000D03*
%TO.P,J24,8,Pin_8*%
%TO.N,/D25*%
X217399000Y-143276000D03*
%TO.P,J24,9,Pin_9*%
%TO.N,/D26*%
X217399000Y-145816000D03*
%TO.P,J24,10,Pin_10*%
%TO.N,/D27*%
X217399000Y-148356000D03*
%TO.P,J24,11,Pin_11*%
%TO.N,/D14*%
X217399000Y-150896000D03*
%TO.P,J24,12,Pin_12*%
%TO.N,/D12*%
X217399000Y-153436000D03*
%TO.P,J24,13,Pin_13*%
%TO.N,/D13*%
X217399000Y-155976000D03*
%TO.P,J24,14,Pin_14*%
%TO.N,GND*%
X217399000Y-158516000D03*
%TO.P,J24,15,Pin_15*%
%TO.N,+5V*%
X217399000Y-161056000D03*
%TD*%
D16*
%TO.P,R1,1*%
%TO.N,Net-(D1-A)*%
X259810000Y-161400000D03*
%TO.P,R1,2*%
%TO.N,+5V*%
X252190000Y-161400000D03*
%TD*%
D14*
%TO.P,J8,1,Pin_1*%
%TO.N,/D32*%
X199263000Y-163576000D03*
D15*
%TO.P,J8,2,Pin_2*%
%TO.N,+5V*%
X199263000Y-166116000D03*
%TO.P,J8,3,Pin_3*%
%TO.N,GND*%
X199263000Y-168656000D03*
%TD*%
D17*
%TO.P,U1,1,VDD*%
%TO.N,+5V*%
X261366000Y-144907000D03*
D18*
%TO.P,U1,2,DATA*%
%TO.N,/D5*%
X261366000Y-147447000D03*
%TO.P,U1,3,NC*%
%TO.N,unconnected-(U1-NC-Pad3)*%
X261366000Y-149987000D03*
%TO.P,U1,4,GND*%
%TO.N,GND*%
X261366000Y-152527000D03*
%TD*%
D14*
%TO.P,J7,1,Pin_1*%
%TO.N,GND*%
X188460000Y-158400000D03*
D15*
%TO.P,J7,2,Pin_2*%
%TO.N,+5V*%
X191000000Y-158400000D03*
%TO.P,J7,3,Pin_3*%
%TO.N,/D16*%
X193540000Y-158400000D03*
%TD*%
D19*
%TO.P,J19,1,Pin_1*%
%TO.N,+5V*%
X276000000Y-161000000D03*
D20*
%TO.P,J19,2,Pin_2*%
%TO.N,GND*%
X276000000Y-156000000D03*
%TO.P,J19,3,Pin_3*%
%TO.N,/D23*%
X276000000Y-151000000D03*
%TO.P,J19,4,Pin_4*%
%TO.N,/D13*%
X276000000Y-146000000D03*
%TD*%
D21*
%TO.P,C2,1*%
%TO.N,+5V*%
X197347349Y-115500000D03*
D16*
%TO.P,C2,2*%
%TO.N,GND*%
X200847349Y-115500000D03*
%TD*%
D22*
%TO.P,J18,1,Pin_1*%
%TO.N,GND*%
X216876000Y-109047500D03*
D20*
%TO.P,J18,2,Pin_2*%
%TO.N,+5V*%
X211876000Y-109047500D03*
%TD*%
D23*
%TO.P,J12,1,Pin_1*%
%TO.N,+12V*%
X187960000Y-129032000D03*
D24*
%TO.P,J12,2,Pin_2*%
%TO.N,/GNDven*%
X187960000Y-127032000D03*
%TD*%
D16*
%TO.P,R5,1*%
%TO.N,/D5*%
X251079000Y-139192000D03*
%TO.P,R5,2*%
%TO.N,+5V*%
X258699000Y-139192000D03*
%TD*%
D14*
%TO.P,J6,1,Pin_1*%
%TO.N,GND*%
X188460000Y-163000000D03*
D15*
%TO.P,J6,2,Pin_2*%
%TO.N,+5V*%
X191000000Y-163000000D03*
%TO.P,J6,3,Pin_3*%
%TO.N,/D4*%
X193540000Y-163000000D03*
%TD*%
D16*
%TO.P,R2,1*%
%TO.N,Net-(Q1-G)*%
X199390000Y-135890000D03*
%TO.P,R2,2*%
%TO.N,/D25*%
X207010000Y-135890000D03*
%TD*%
D14*
%TO.P,J23,1,Pin_1*%
%TO.N,/3V3*%
X243307000Y-161006000D03*
D15*
%TO.P,J23,2,Pin_2*%
%TO.N,GND*%
X243307000Y-158466000D03*
%TO.P,J23,3,Pin_3*%
%TO.N,/D15*%
X243307000Y-155926000D03*
%TO.P,J23,4,Pin_4*%
%TO.N,/D2*%
X243307000Y-153386000D03*
%TO.P,J23,5,Pin_5*%
%TO.N,/D4*%
X243307000Y-150846000D03*
%TO.P,J23,6,Pin_6*%
%TO.N,/D16*%
X243307000Y-148306000D03*
%TO.P,J23,7,Pin_7*%
%TO.N,/D17*%
X243307000Y-145766000D03*
%TO.P,J23,8,Pin_8*%
%TO.N,/D5*%
X243307000Y-143226000D03*
%TO.P,J23,9,Pin_9*%
%TO.N,/D18*%
X243307000Y-140686000D03*
%TO.P,J23,10,Pin_10*%
%TO.N,/D19*%
X243307000Y-138146000D03*
%TO.P,J23,11,Pin_11*%
%TO.N,/D21*%
X243307000Y-135606000D03*
%TO.P,J23,12,Pin_12*%
%TO.N,/RXD*%
X243307000Y-133066000D03*
%TO.P,J23,13,Pin_13*%
%TO.N,/TXD*%
X243307000Y-130526000D03*
%TO.P,J23,14,Pin_14*%
%TO.N,/D22*%
X243307000Y-127986000D03*
%TO.P,J23,15,Pin_15*%
%TO.N,/D23*%
X243307000Y-125446000D03*
%TD*%
D22*
%TO.P,J4,1,Pin_1*%
%TO.N,GND*%
X235164000Y-109047500D03*
D20*
%TO.P,J4,2,Pin_2*%
%TO.N,+12V*%
X230164000Y-109047500D03*
%TD*%
D14*
%TO.P,J15,1,Pin_1*%
%TO.N,+5V*%
X277778000Y-139490000D03*
D15*
%TO.P,J15,2,Pin_2*%
%TO.N,GND*%
X277778000Y-136950000D03*
%TO.P,J15,3,Pin_3*%
%TO.N,/D21*%
X277778000Y-134410000D03*
%TO.P,J15,4,Pin_4*%
%TO.N,/D22*%
X277778000Y-131870000D03*
%TD*%
D23*
%TO.P,J11,1,Pin_1*%
%TO.N,+12V*%
X187960000Y-120904000D03*
D24*
%TO.P,J11,2,Pin_2*%
%TO.N,GND*%
X187960000Y-118904000D03*
%TD*%
D16*
%TO.P,R4,1*%
%TO.N,GND*%
X202057000Y-142748000D03*
%TO.P,R4,2*%
%TO.N,Net-(J13-Pin_2)*%
X194437000Y-142748000D03*
%TD*%
D14*
%TO.P,J2,1,Pin_1*%
%TO.N,unconnected-(J2-Pin_1-Pad1)*%
X212852000Y-125476000D03*
D15*
%TO.P,J2,2,Pin_2*%
%TO.N,/VP*%
X212852000Y-128016000D03*
%TO.P,J2,3,Pin_3*%
%TO.N,unconnected-(J2-Pin_3-Pad3)*%
X212852000Y-130556000D03*
%TO.P,J2,4,Pin_4*%
%TO.N,/D34*%
X212852000Y-133096000D03*
%TO.P,J2,5,Pin_5*%
%TO.N,/D35*%
X212852000Y-135636000D03*
%TO.P,J2,6,Pin_6*%
%TO.N,/D32*%
X212852000Y-138176000D03*
%TO.P,J2,7,Pin_7*%
%TO.N,/D33*%
X212852000Y-140716000D03*
%TO.P,J2,8,Pin_8*%
%TO.N,/D25*%
X212852000Y-143256000D03*
%TO.P,J2,9,Pin_9*%
%TO.N,unconnected-(J2-Pin_9-Pad9)*%
X212852000Y-145796000D03*
%TO.P,J2,10,Pin_10*%
%TO.N,/D27*%
X212852000Y-148336000D03*
%TO.P,J2,11,Pin_11*%
%TO.N,/D14*%
X212852000Y-150876000D03*
%TO.P,J2,12,Pin_12*%
%TO.N,unconnected-(J2-Pin_12-Pad12)*%
X212852000Y-153416000D03*
%TO.P,J2,13,Pin_13*%
%TO.N,/D13*%
X212852000Y-155956000D03*
%TO.P,J2,14,Pin_14*%
%TO.N,unconnected-(J2-Pin_14-Pad14)*%
X212852000Y-158496000D03*
%TO.P,J2,15,Pin_15*%
%TO.N,+5V*%
X212852000Y-161036000D03*
%TD*%
D25*
%TO.P,TP3,1,1*%
%TO.N,+5V*%
X210312000Y-169418000D03*
%TD*%
D22*
%TO.P,J1,1,Pin_1*%
%TO.N,GND*%
X247864000Y-109047500D03*
D20*
%TO.P,J1,2,Pin_2*%
%TO.N,+12V*%
X242864000Y-109047500D03*
%TD*%
D25*
%TO.P,TP1,1,1*%
%TO.N,GND*%
X254000000Y-156718000D03*
%TD*%
D14*
%TO.P,J9,1,Pin_1*%
%TO.N,/D33*%
X204724000Y-163576000D03*
D15*
%TO.P,J9,2,Pin_2*%
%TO.N,+5V*%
X204724000Y-166116000D03*
%TO.P,J9,3,Pin_3*%
%TO.N,GND*%
X204724000Y-168656000D03*
%TD*%
D25*
%TO.P,TP2,1,1*%
%TO.N,+12V*%
X266446000Y-108839000D03*
%TD*%
D22*
%TO.P,J5,1,Pin_1*%
%TO.N,+5V*%
X260096000Y-108712000D03*
D20*
%TO.P,J5,2,Pin_2*%
%TO.N,GND*%
X255096000Y-108712000D03*
%TD*%
D14*
%TO.P,J14,1,Pin_1*%
%TO.N,/D27*%
X197612000Y-106147000D03*
D15*
%TO.P,J14,2,Pin_2*%
%TO.N,/D14*%
X200152000Y-106147000D03*
%TO.P,J14,3,Pin_3*%
%TO.N,GND*%
X202692000Y-106147000D03*
%TO.P,J14,4,Pin_4*%
%TO.N,+5V*%
X205232000Y-106147000D03*
%TD*%
D14*
%TO.P,J17,1,Pin_1*%
%TO.N,GND*%
X188468000Y-147828000D03*
D15*
%TO.P,J17,2,Pin_2*%
%TO.N,+5V*%
X191008000Y-147828000D03*
%TO.P,J17,3,Pin_3*%
%TO.N,/VP*%
X193548000Y-147828000D03*
%TD*%
D16*
%TO.P,C1,1*%
%TO.N,+5V*%
X256500000Y-119000000D03*
%TO.P,C1,2*%
%TO.N,GND*%
X261500000Y-119000000D03*
%TD*%
D14*
%TO.P,J20,1,Pin_1*%
%TO.N,/D21*%
X257810000Y-132207000D03*
D15*
%TO.P,J20,2,Pin_2*%
%TO.N,/D22*%
X257810000Y-129667000D03*
%TO.P,J20,3,Pin_3*%
%TO.N,GND*%
X257810000Y-127127000D03*
%TO.P,J20,4,Pin_4*%
%TO.N,+5V*%
X257810000Y-124587000D03*
%TD*%
D14*
%TO.P,J16,1,Pin_1*%
%TO.N,GND*%
X188468000Y-153416000D03*
D15*
%TO.P,J16,2,Pin_2*%
%TO.N,+5V*%
X191008000Y-153416000D03*
%TO.P,J16,3,Pin_3*%
%TO.N,/D35*%
X193548000Y-153416000D03*
%TD*%
D19*
%TO.P,J10,1,Pin_1*%
%TO.N,GND*%
X275746000Y-125393000D03*
D20*
%TO.P,J10,2,Pin_2*%
%TO.N,+5V*%
X275746000Y-120393000D03*
%TO.P,J10,3,Pin_3*%
X275746000Y-115393000D03*
%TD*%
D26*
%TO.P,Q1,1,G*%
%TO.N,Net-(Q1-G)*%
X196596000Y-130998000D03*
D27*
%TO.P,Q1,2,D*%
%TO.N,/GNDven*%
X199136000Y-130998000D03*
%TO.P,Q1,3,S*%
%TO.N,GND*%
X201676000Y-130998000D03*
%TD*%
D14*
%TO.P,J13,1,Pin_1*%
%TO.N,/D34*%
X188493000Y-138684000D03*
D15*
%TO.P,J13,2,Pin_2*%
%TO.N,Net-(J13-Pin_2)*%
X188493000Y-141224000D03*
%TD*%
D28*
%TO.N,GND*%
X249174000Y-156718000D02*
X254000000Y-156718000D01*
X247396000Y-158496000D02*
X249174000Y-156718000D01*
%TO.N,Net-(D1-A)*%
X258735000Y-167000000D02*
X258735000Y-162475000D01*
X258735000Y-162475000D02*
X259810000Y-161400000D01*
%TO.N,/VP*%
X212852000Y-128016000D02*
X217379000Y-128016000D01*
X217379000Y-128016000D02*
X217399000Y-128036000D01*
%TO.N,/D23*%
X247366000Y-125446000D02*
X247396000Y-125476000D01*
X243307000Y-125446000D02*
X247366000Y-125446000D01*
%TO.N,/D35*%
X212872000Y-135656000D02*
X212852000Y-135636000D01*
X193548000Y-153416000D02*
X195072000Y-153416000D01*
X217399000Y-135656000D02*
X212872000Y-135656000D01*
X195072000Y-153416000D02*
X212852000Y-135636000D01*
%TO.N,/D34*%
X217379000Y-133096000D02*
X217399000Y-133116000D01*
X188493000Y-138684000D02*
X207264000Y-138684000D01*
X207264000Y-138684000D02*
X212852000Y-133096000D01*
X212852000Y-133096000D02*
X217379000Y-133096000D01*
%TO.N,/D25*%
X217399000Y-143276000D02*
X212872000Y-143276000D01*
X212872000Y-143276000D02*
X212852000Y-143256000D01*
%TO.N,/GNDven*%
X196770000Y-127032000D02*
X187960000Y-127032000D01*
X199136000Y-129398000D02*
X196770000Y-127032000D01*
X199136000Y-130998000D02*
X199136000Y-129398000D01*
%TO.N,Net-(Q1-G)*%
X199390000Y-135890000D02*
X199390000Y-133792000D01*
X199390000Y-133792000D02*
X196596000Y-130998000D01*
%TO.N,/D13*%
X252095000Y-163957000D02*
X225380000Y-163957000D01*
X264724000Y-157276000D02*
X258776000Y-157276000D01*
X217399000Y-155976000D02*
X212872000Y-155976000D01*
X258776000Y-157276000D02*
X252095000Y-163957000D01*
X212872000Y-155976000D02*
X212852000Y-155956000D01*
X276000000Y-146000000D02*
X264724000Y-157276000D01*
X225380000Y-163957000D02*
X217399000Y-155976000D01*
%TO.N,/D21*%
X277778000Y-134410000D02*
X275575000Y-132207000D01*
X257810000Y-132207000D02*
X250825000Y-132207000D01*
X247904000Y-136144000D02*
X247396000Y-135636000D01*
X243307000Y-135606000D02*
X247366000Y-135606000D01*
X250825000Y-132207000D02*
X247396000Y-135636000D01*
X275575000Y-132207000D02*
X257810000Y-132207000D01*
X247366000Y-135606000D02*
X247396000Y-135636000D01*
%TO.N,/D4*%
X247366000Y-150846000D02*
X247396000Y-150876000D01*
X243307000Y-150846000D02*
X247366000Y-150846000D01*
%TO.N,/D22*%
X243307000Y-127986000D02*
X247366000Y-127986000D01*
X256159000Y-128016000D02*
X247396000Y-128016000D01*
X275575000Y-129667000D02*
X257810000Y-129667000D01*
X257810000Y-129667000D02*
X256159000Y-128016000D01*
X247366000Y-127986000D02*
X247396000Y-128016000D01*
X277778000Y-131870000D02*
X275575000Y-129667000D01*
%TO.N,/D5*%
X251079000Y-139573000D02*
X247396000Y-143256000D01*
X247366000Y-143226000D02*
X247396000Y-143256000D01*
X261366000Y-147447000D02*
X259334000Y-147447000D01*
X259334000Y-147447000D02*
X251079000Y-139192000D01*
X251079000Y-139192000D02*
X251079000Y-139573000D01*
X243307000Y-143226000D02*
X247366000Y-143226000D01*
%TO.N,/D16*%
X243307000Y-148306000D02*
X247366000Y-148306000D01*
X247366000Y-148306000D02*
X247396000Y-148336000D01*
%TO.N,Net-(J13-Pin_2)*%
X190017000Y-142748000D02*
X188493000Y-141224000D01*
X194437000Y-142748000D02*
X190017000Y-142748000D01*
%TO.N,/D14*%
X217399000Y-150896000D02*
X212872000Y-150896000D01*
X212872000Y-150896000D02*
X212852000Y-150876000D01*
%TO.N,/D27*%
X217379000Y-148336000D02*
X217399000Y-148356000D01*
X212852000Y-148336000D02*
X217379000Y-148336000D01*
%TO.N,/D32*%
X217379000Y-138176000D02*
X217399000Y-138196000D01*
X199263000Y-163576000D02*
X199263000Y-151765000D01*
X212852000Y-138176000D02*
X217379000Y-138176000D01*
X199263000Y-151765000D02*
X212852000Y-138176000D01*
%TO.N,/D33*%
X204724000Y-163576000D02*
X204724000Y-148844000D01*
X217379000Y-140716000D02*
X217399000Y-140736000D01*
X204724000Y-148844000D02*
X212852000Y-140716000D01*
X212852000Y-140716000D02*
X217379000Y-140716000D01*
D29*
%TO.N,+12V*%
X184150000Y-127254000D02*
X184150000Y-124714000D01*
X218307500Y-120904000D02*
X230164000Y-109047500D01*
X242864000Y-109047500D02*
X246374500Y-105537000D01*
X184150000Y-124714000D02*
X187960000Y-120904000D01*
X246374500Y-105537000D02*
X263144000Y-105537000D01*
X230164000Y-109047500D02*
X232665000Y-106546500D01*
X240363000Y-106546500D02*
X242864000Y-109047500D01*
X185928000Y-129032000D02*
X184150000Y-127254000D01*
X232665000Y-106546500D02*
X240363000Y-106546500D01*
X187960000Y-129032000D02*
X185928000Y-129032000D01*
X187960000Y-120904000D02*
X218307500Y-120904000D01*
X263144000Y-105537000D02*
X266446000Y-108839000D01*
%TD*%
%TA.AperFunction,Conductor*%
%TO.N,+5V*%
G36*
X184457777Y-103110185D02*
G01*
X184503532Y-103162989D01*
X184514738Y-103214500D01*
X184514738Y-104886695D01*
X189580676Y-104886695D01*
X189580676Y-103214500D01*
X189600361Y-103147461D01*
X189653165Y-103101706D01*
X189704676Y-103090500D01*
X274390738Y-103090500D01*
X274457777Y-103110185D01*
X274503532Y-103162989D01*
X274514738Y-103214500D01*
X274514738Y-104886695D01*
X279580676Y-104886695D01*
X279580676Y-103214500D01*
X279600361Y-103147461D01*
X279653165Y-103101706D01*
X279704676Y-103090500D01*
X281700290Y-103090500D01*
X281767329Y-103110185D01*
X281813084Y-103162989D01*
X281824290Y-103214500D01*
X281824290Y-175365500D01*
X281804605Y-175432539D01*
X281751801Y-175478294D01*
X281700290Y-175489500D01*
X182459290Y-175489500D01*
X182392251Y-175469815D01*
X182346496Y-175417011D01*
X182335290Y-175365500D01*
X182335290Y-169878711D01*
X185149500Y-169878711D01*
X185149500Y-170121288D01*
X185181161Y-170361785D01*
X185243947Y-170596104D01*
X185336773Y-170820205D01*
X185336776Y-170820212D01*
X185458064Y-171030289D01*
X185458066Y-171030292D01*
X185458067Y-171030293D01*
X185605733Y-171222736D01*
X185605739Y-171222743D01*
X185777256Y-171394260D01*
X185777262Y-171394265D01*
X185969711Y-171541936D01*
X186179788Y-171663224D01*
X186403900Y-171756054D01*
X186638211Y-171818838D01*
X186818586Y-171842584D01*
X186878711Y-171850500D01*
X186878712Y-171850500D01*
X187121289Y-171850500D01*
X187169388Y-171844167D01*
X187361789Y-171818838D01*
X187596100Y-171756054D01*
X187820212Y-171663224D01*
X188030289Y-171541936D01*
X188222738Y-171394265D01*
X188394265Y-171222738D01*
X188541936Y-171030289D01*
X188663224Y-170820212D01*
X188756054Y-170596100D01*
X188792073Y-170461677D01*
X209621873Y-170461677D01*
X209621873Y-170461678D01*
X209656858Y-170487096D01*
X209832164Y-170576418D01*
X210019294Y-170637221D01*
X210213618Y-170668000D01*
X210410382Y-170668000D01*
X210604705Y-170637221D01*
X210791835Y-170576418D01*
X210967143Y-170487095D01*
X211002125Y-170461678D01*
X211002126Y-170461678D01*
X210312001Y-169771553D01*
X210312000Y-169771553D01*
X209621873Y-170461677D01*
X188792073Y-170461677D01*
X188818838Y-170361789D01*
X188850500Y-170121288D01*
X188850500Y-169878712D01*
X188818838Y-169638211D01*
X188756054Y-169403900D01*
X188663224Y-169179788D01*
X188541936Y-168969711D01*
X188394265Y-168777262D01*
X188394260Y-168777256D01*
X188222743Y-168605739D01*
X188222736Y-168605733D01*
X188030293Y-168458067D01*
X188030292Y-168458066D01*
X188030289Y-168458064D01*
X187832366Y-168343793D01*
X187820214Y-168336777D01*
X187820205Y-168336773D01*
X187596104Y-168243947D01*
X187361785Y-168181161D01*
X187121289Y-168149500D01*
X187121288Y-168149500D01*
X186878712Y-168149500D01*
X186878711Y-168149500D01*
X186638214Y-168181161D01*
X186403895Y-168243947D01*
X186179794Y-168336773D01*
X186179785Y-168336777D01*
X185969706Y-168458067D01*
X185777263Y-168605733D01*
X185777256Y-168605739D01*
X185605739Y-168777256D01*
X185605733Y-168777263D01*
X185458067Y-168969706D01*
X185458064Y-168969710D01*
X185458064Y-168969711D01*
X185456602Y-168972243D01*
X185336777Y-169179785D01*
X185336773Y-169179794D01*
X185243947Y-169403895D01*
X185181161Y-169638214D01*
X185149500Y-169878711D01*
X182335290Y-169878711D01*
X182335290Y-166886695D01*
X184514738Y-166886695D01*
X189580676Y-166886695D01*
X189580676Y-164723463D01*
X184514738Y-164723463D01*
X184514738Y-166886695D01*
X182335290Y-166886695D01*
X182335290Y-162102135D01*
X187109500Y-162102135D01*
X187109500Y-163897870D01*
X187109501Y-163897876D01*
X187115908Y-163957483D01*
X187166202Y-164092328D01*
X187166206Y-164092335D01*
X187252452Y-164207544D01*
X187252455Y-164207547D01*
X187367664Y-164293793D01*
X187367671Y-164293797D01*
X187502517Y-164344091D01*
X187502516Y-164344091D01*
X187509444Y-164344835D01*
X187562127Y-164350500D01*
X189357872Y-164350499D01*
X189417483Y-164344091D01*
X189552331Y-164293796D01*
X189667546Y-164207546D01*
X189753796Y-164092331D01*
X189804091Y-163957483D01*
X189810500Y-163897873D01*
X189810499Y-163873979D01*
X189813330Y-163860963D01*
X189823940Y-163841525D01*
X189830179Y-163820275D01*
X189846803Y-163799643D01*
X189846808Y-163799636D01*
X189846811Y-163799634D01*
X189846818Y-163799626D01*
X190517037Y-163129408D01*
X190534075Y-163192993D01*
X190599901Y-163307007D01*
X190692993Y-163400099D01*
X190807007Y-163465925D01*
X190870590Y-163482962D01*
X190238282Y-164115269D01*
X190238282Y-164115270D01*
X190292449Y-164154624D01*
X190481782Y-164251095D01*
X190683870Y-164316757D01*
X190893754Y-164350000D01*
X191106246Y-164350000D01*
X191316127Y-164316757D01*
X191316130Y-164316757D01*
X191518217Y-164251095D01*
X191707554Y-164154622D01*
X191761716Y-164115270D01*
X191761717Y-164115270D01*
X191129408Y-163482962D01*
X191192993Y-163465925D01*
X191307007Y-163400099D01*
X191400099Y-163307007D01*
X191465925Y-163192993D01*
X191482962Y-163129408D01*
X192115270Y-163761717D01*
X192115270Y-163761716D01*
X192154622Y-163707555D01*
X192159232Y-163698507D01*
X192207205Y-163647709D01*
X192275025Y-163630912D01*
X192341161Y-163653447D01*
X192380204Y-163698504D01*
X192384949Y-163707817D01*
X192509890Y-163879786D01*
X192660213Y-164030109D01*
X192832179Y-164155048D01*
X192832181Y-164155049D01*
X192832184Y-164155051D01*
X193021588Y-164251557D01*
X193223757Y-164317246D01*
X193433713Y-164350500D01*
X193433714Y-164350500D01*
X193646286Y-164350500D01*
X193646287Y-164350500D01*
X193856243Y-164317246D01*
X194058412Y-164251557D01*
X194247816Y-164155051D01*
X194334138Y-164092335D01*
X194419786Y-164030109D01*
X194419788Y-164030106D01*
X194419792Y-164030104D01*
X194570104Y-163879792D01*
X194570106Y-163879788D01*
X194570109Y-163879786D01*
X194695048Y-163707820D01*
X194695050Y-163707817D01*
X194695051Y-163707816D01*
X194791557Y-163518412D01*
X194857246Y-163316243D01*
X194890500Y-163106287D01*
X194890500Y-162893713D01*
X194857246Y-162683757D01*
X194791557Y-162481588D01*
X194695051Y-162292184D01*
X194695049Y-162292181D01*
X194695048Y-162292179D01*
X194570109Y-162120213D01*
X194419786Y-161969890D01*
X194247820Y-161844951D01*
X194058414Y-161748444D01*
X194058413Y-161748443D01*
X194058412Y-161748443D01*
X193856243Y-161682754D01*
X193856241Y-161682753D01*
X193856240Y-161682753D01*
X193694957Y-161657208D01*
X193646287Y-161649500D01*
X193433713Y-161649500D01*
X193385042Y-161657208D01*
X193223760Y-161682753D01*
X193021585Y-161748444D01*
X192832179Y-161844951D01*
X192660213Y-161969890D01*
X192509890Y-162120213D01*
X192384949Y-162292182D01*
X192380202Y-162301499D01*
X192332227Y-162352293D01*
X192264405Y-162369087D01*
X192198271Y-162346548D01*
X192159234Y-162301495D01*
X192154626Y-162292452D01*
X192115270Y-162238282D01*
X192115269Y-162238282D01*
X191482962Y-162870590D01*
X191465925Y-162807007D01*
X191400099Y-162692993D01*
X191307007Y-162599901D01*
X191192993Y-162534075D01*
X191129409Y-162517037D01*
X191761716Y-161884728D01*
X191707550Y-161845375D01*
X191518217Y-161748904D01*
X191316129Y-161683242D01*
X191106246Y-161650000D01*
X190893754Y-161650000D01*
X190683872Y-161683242D01*
X190683869Y-161683242D01*
X190481782Y-161748904D01*
X190292439Y-161845380D01*
X190238282Y-161884727D01*
X190238282Y-161884728D01*
X190870591Y-162517037D01*
X190807007Y-162534075D01*
X190692993Y-162599901D01*
X190599901Y-162692993D01*
X190534075Y-162807007D01*
X190517037Y-162870591D01*
X189846818Y-162200372D01*
X189813333Y-162139049D01*
X189813330Y-162139036D01*
X189810499Y-162126015D01*
X189810499Y-162102128D01*
X189804091Y-162042517D01*
X189775072Y-161964712D01*
X189753798Y-161907673D01*
X189753793Y-161907664D01*
X189667547Y-161792455D01*
X189667544Y-161792452D01*
X189552335Y-161706206D01*
X189552328Y-161706202D01*
X189417482Y-161655908D01*
X189417483Y-161655908D01*
X189357883Y-161649501D01*
X189357881Y-161649500D01*
X189357873Y-161649500D01*
X189357864Y-161649500D01*
X187562129Y-161649500D01*
X187562123Y-161649501D01*
X187502516Y-161655908D01*
X187367671Y-161706202D01*
X187367664Y-161706206D01*
X187252455Y-161792452D01*
X187252452Y-161792455D01*
X187166206Y-161907664D01*
X187166202Y-161907671D01*
X187115908Y-162042517D01*
X187109501Y-162102116D01*
X187109500Y-162102135D01*
X182335290Y-162102135D01*
X182335290Y-157502135D01*
X187109500Y-157502135D01*
X187109500Y-159297870D01*
X187109501Y-159297876D01*
X187115908Y-159357483D01*
X187166202Y-159492328D01*
X187166206Y-159492335D01*
X187252452Y-159607544D01*
X187252455Y-159607547D01*
X187367664Y-159693793D01*
X187367671Y-159693797D01*
X187502517Y-159744091D01*
X187502516Y-159744091D01*
X187509444Y-159744835D01*
X187562127Y-159750500D01*
X189357872Y-159750499D01*
X189417483Y-159744091D01*
X189552331Y-159693796D01*
X189667546Y-159607546D01*
X189753796Y-159492331D01*
X189804091Y-159357483D01*
X189810500Y-159297873D01*
X189810499Y-159273979D01*
X189813330Y-159260963D01*
X189823940Y-159241525D01*
X189830179Y-159220275D01*
X189846803Y-159199643D01*
X189846808Y-159199636D01*
X189846811Y-159199634D01*
X189846818Y-159199626D01*
X190517037Y-158529408D01*
X190534075Y-158592993D01*
X190599901Y-158707007D01*
X190692993Y-158800099D01*
X190807007Y-158865925D01*
X190870590Y-158882962D01*
X190238282Y-159515269D01*
X190238282Y-159515270D01*
X190292449Y-159554624D01*
X190481782Y-159651095D01*
X190683870Y-159716757D01*
X190893754Y-159750000D01*
X191106246Y-159750000D01*
X191316127Y-159716757D01*
X191316130Y-159716757D01*
X191518217Y-159651095D01*
X191707554Y-159554622D01*
X191761716Y-159515270D01*
X191761717Y-159515270D01*
X191129408Y-158882962D01*
X191192993Y-158865925D01*
X191307007Y-158800099D01*
X191400099Y-158707007D01*
X191465925Y-158592993D01*
X191482962Y-158529408D01*
X192115270Y-159161717D01*
X192115270Y-159161716D01*
X192154622Y-159107555D01*
X192159232Y-159098507D01*
X192207205Y-159047709D01*
X192275025Y-159030912D01*
X192341161Y-159053447D01*
X192380204Y-159098504D01*
X192384949Y-159107817D01*
X192509890Y-159279786D01*
X192660213Y-159430109D01*
X192832179Y-159555048D01*
X192832181Y-159555049D01*
X192832184Y-159555051D01*
X193021588Y-159651557D01*
X193223757Y-159717246D01*
X193433713Y-159750500D01*
X193433714Y-159750500D01*
X193646286Y-159750500D01*
X193646287Y-159750500D01*
X193856243Y-159717246D01*
X194058412Y-159651557D01*
X194247816Y-159555051D01*
X194287652Y-159526109D01*
X194419786Y-159430109D01*
X194419788Y-159430106D01*
X194419792Y-159430104D01*
X194570104Y-159279792D01*
X194570106Y-159279788D01*
X194570109Y-159279786D01*
X194695048Y-159107820D01*
X194695050Y-159107817D01*
X194695051Y-159107816D01*
X194791557Y-158918412D01*
X194857246Y-158716243D01*
X194890500Y-158506287D01*
X194890500Y-158293713D01*
X194857246Y-158083757D01*
X194791557Y-157881588D01*
X194695051Y-157692184D01*
X194695049Y-157692181D01*
X194695048Y-157692179D01*
X194570109Y-157520213D01*
X194419786Y-157369890D01*
X194247820Y-157244951D01*
X194058414Y-157148444D01*
X194058413Y-157148443D01*
X194058412Y-157148443D01*
X193856243Y-157082754D01*
X193856241Y-157082753D01*
X193856240Y-157082753D01*
X193694957Y-157057208D01*
X193646287Y-157049500D01*
X193433713Y-157049500D01*
X193385042Y-157057208D01*
X193223760Y-157082753D01*
X193021585Y-157148444D01*
X192832179Y-157244951D01*
X192660213Y-157369890D01*
X192509890Y-157520213D01*
X192384949Y-157692182D01*
X192380202Y-157701499D01*
X192332227Y-157752293D01*
X192264405Y-157769087D01*
X192198271Y-157746548D01*
X192159234Y-157701495D01*
X192154626Y-157692452D01*
X192115270Y-157638282D01*
X192115269Y-157638282D01*
X191482962Y-158270590D01*
X191465925Y-158207007D01*
X191400099Y-158092993D01*
X191307007Y-157999901D01*
X191192993Y-157934075D01*
X191129409Y-157917037D01*
X191761716Y-157284728D01*
X191707550Y-157245375D01*
X191518217Y-157148904D01*
X191316129Y-157083242D01*
X191106246Y-157050000D01*
X190893754Y-157050000D01*
X190683872Y-157083242D01*
X190683869Y-157083242D01*
X190481782Y-157148904D01*
X190292439Y-157245380D01*
X190238282Y-157284727D01*
X190238282Y-157284728D01*
X190870591Y-157917037D01*
X190807007Y-157934075D01*
X190692993Y-157999901D01*
X190599901Y-158092993D01*
X190534075Y-158207007D01*
X190517037Y-158270591D01*
X189846818Y-157600372D01*
X189813333Y-157539049D01*
X189813330Y-157539036D01*
X189810499Y-157526015D01*
X189810499Y-157502128D01*
X189804091Y-157442517D01*
X189773668Y-157360949D01*
X189753798Y-157307673D01*
X189753793Y-157307664D01*
X189667547Y-157192455D01*
X189667544Y-157192452D01*
X189552335Y-157106206D01*
X189552328Y-157106202D01*
X189417482Y-157055908D01*
X189417483Y-157055908D01*
X189357883Y-157049501D01*
X189357881Y-157049500D01*
X189357873Y-157049500D01*
X189357864Y-157049500D01*
X187562129Y-157049500D01*
X187562123Y-157049501D01*
X187502516Y-157055908D01*
X187367671Y-157106202D01*
X187367664Y-157106206D01*
X187252455Y-157192452D01*
X187252452Y-157192455D01*
X187166206Y-157307664D01*
X187166202Y-157307671D01*
X187115908Y-157442517D01*
X187109501Y-157502116D01*
X187109500Y-157502135D01*
X182335290Y-157502135D01*
X182335290Y-152518135D01*
X187117500Y-152518135D01*
X187117500Y-154313870D01*
X187117501Y-154313876D01*
X187123908Y-154373483D01*
X187174202Y-154508328D01*
X187174206Y-154508335D01*
X187260452Y-154623544D01*
X187260455Y-154623547D01*
X187375664Y-154709793D01*
X187375671Y-154709797D01*
X187510517Y-154760091D01*
X187510516Y-154760091D01*
X187517444Y-154760835D01*
X187570127Y-154766500D01*
X189365872Y-154766499D01*
X189425483Y-154760091D01*
X189560331Y-154709796D01*
X189675546Y-154623546D01*
X189761796Y-154508331D01*
X189812091Y-154373483D01*
X189818500Y-154313873D01*
X189818499Y-154289979D01*
X189821330Y-154276963D01*
X189831940Y-154257525D01*
X189838179Y-154236275D01*
X189854803Y-154215643D01*
X189854808Y-154215636D01*
X189854811Y-154215634D01*
X189854818Y-154215626D01*
X190525037Y-153545408D01*
X190542075Y-153608993D01*
X190607901Y-153723007D01*
X190700993Y-153816099D01*
X190815007Y-153881925D01*
X190878590Y-153898962D01*
X190246282Y-154531269D01*
X190246282Y-154531270D01*
X190300449Y-154570624D01*
X190489782Y-154667095D01*
X190691870Y-154732757D01*
X190901754Y-154766000D01*
X191114246Y-154766000D01*
X191324127Y-154732757D01*
X191324130Y-154732757D01*
X191526217Y-154667095D01*
X191715554Y-154570622D01*
X191769716Y-154531270D01*
X191769717Y-154531270D01*
X191137408Y-153898962D01*
X191200993Y-153881925D01*
X191315007Y-153816099D01*
X191408099Y-153723007D01*
X191473925Y-153608993D01*
X191490962Y-153545408D01*
X192123270Y-154177717D01*
X192123270Y-154177716D01*
X192162622Y-154123555D01*
X192167232Y-154114507D01*
X192215205Y-154063709D01*
X192283025Y-154046912D01*
X192349161Y-154069447D01*
X192388204Y-154114504D01*
X192392949Y-154123817D01*
X192517890Y-154295786D01*
X192668213Y-154446109D01*
X192840179Y-154571048D01*
X192840181Y-154571049D01*
X192840184Y-154571051D01*
X193029588Y-154667557D01*
X193231757Y-154733246D01*
X193441713Y-154766500D01*
X193441714Y-154766500D01*
X193654286Y-154766500D01*
X193654287Y-154766500D01*
X193864243Y-154733246D01*
X194066412Y-154667557D01*
X194255816Y-154571051D01*
X194342138Y-154508335D01*
X194427786Y-154446109D01*
X194427788Y-154446106D01*
X194427792Y-154446104D01*
X194578104Y-154295792D01*
X194598577Y-154267613D01*
X194653906Y-154224949D01*
X194698894Y-154216500D01*
X195150844Y-154216500D01*
X195150845Y-154216499D01*
X195305497Y-154185737D01*
X195451179Y-154125394D01*
X195582289Y-154037789D01*
X198338616Y-151281462D01*
X198399939Y-151247977D01*
X198469631Y-151252961D01*
X198525564Y-151294833D01*
X198549981Y-151360297D01*
X198540858Y-151416595D01*
X198493264Y-151531498D01*
X198493261Y-151531510D01*
X198462500Y-151686153D01*
X198462500Y-162103648D01*
X198442815Y-162170687D01*
X198390011Y-162216442D01*
X198351755Y-162226938D01*
X198305516Y-162231909D01*
X198170671Y-162282202D01*
X198170664Y-162282206D01*
X198055455Y-162368452D01*
X198055452Y-162368455D01*
X197969206Y-162483664D01*
X197969202Y-162483671D01*
X197918908Y-162618517D01*
X197912501Y-162678116D01*
X197912501Y-162678123D01*
X197912500Y-162678135D01*
X197912500Y-164473870D01*
X197912501Y-164473876D01*
X197918908Y-164533483D01*
X197969202Y-164668328D01*
X197969206Y-164668335D01*
X198055452Y-164783544D01*
X198055455Y-164783547D01*
X198170664Y-164869793D01*
X198170671Y-164869797D01*
X198215618Y-164886561D01*
X198305517Y-164920091D01*
X198365127Y-164926500D01*
X198375685Y-164926499D01*
X198442723Y-164946179D01*
X198463372Y-164962818D01*
X199133591Y-165633037D01*
X199070007Y-165650075D01*
X198955993Y-165715901D01*
X198862901Y-165808993D01*
X198797075Y-165923007D01*
X198780037Y-165986591D01*
X198147728Y-165354282D01*
X198147727Y-165354282D01*
X198108380Y-165408439D01*
X198011904Y-165597782D01*
X197946242Y-165799869D01*
X197946242Y-165799872D01*
X197913000Y-166009753D01*
X197913000Y-166222246D01*
X197946242Y-166432127D01*
X197946242Y-166432130D01*
X198011904Y-166634217D01*
X198108375Y-166823550D01*
X198147728Y-166877716D01*
X198780037Y-166245408D01*
X198797075Y-166308993D01*
X198862901Y-166423007D01*
X198955993Y-166516099D01*
X199070007Y-166581925D01*
X199133590Y-166598962D01*
X198501282Y-167231269D01*
X198501282Y-167231270D01*
X198555452Y-167270626D01*
X198555451Y-167270626D01*
X198564495Y-167275234D01*
X198615292Y-167323208D01*
X198632087Y-167391029D01*
X198609550Y-167457164D01*
X198564499Y-167496202D01*
X198555182Y-167500949D01*
X198383213Y-167625890D01*
X198232890Y-167776213D01*
X198107951Y-167948179D01*
X198011444Y-168137585D01*
X198011443Y-168137587D01*
X198011443Y-168137588D01*
X197997285Y-168181161D01*
X197945753Y-168339760D01*
X197936133Y-168400499D01*
X197912500Y-168549713D01*
X197912500Y-168762287D01*
X197912591Y-168762859D01*
X197945753Y-168972239D01*
X198011444Y-169174414D01*
X198107951Y-169363820D01*
X198232890Y-169535786D01*
X198383213Y-169686109D01*
X198555179Y-169811048D01*
X198555181Y-169811049D01*
X198555184Y-169811051D01*
X198744588Y-169907557D01*
X198946757Y-169973246D01*
X199156713Y-170006500D01*
X199156714Y-170006500D01*
X199369286Y-170006500D01*
X199369287Y-170006500D01*
X199579243Y-169973246D01*
X199781412Y-169907557D01*
X199970816Y-169811051D01*
X200025181Y-169771553D01*
X200142786Y-169686109D01*
X200142788Y-169686106D01*
X200142792Y-169686104D01*
X200293104Y-169535792D01*
X200293106Y-169535788D01*
X200293109Y-169535786D01*
X200418048Y-169363820D01*
X200418049Y-169363819D01*
X200418051Y-169363816D01*
X200514557Y-169174412D01*
X200580246Y-168972243D01*
X200613500Y-168762287D01*
X200613500Y-168549713D01*
X200580246Y-168339757D01*
X200514557Y-168137588D01*
X200418051Y-167948184D01*
X200418049Y-167948181D01*
X200418048Y-167948179D01*
X200293109Y-167776213D01*
X200142786Y-167625890D01*
X199970817Y-167500949D01*
X199961504Y-167496204D01*
X199910707Y-167448230D01*
X199893912Y-167380409D01*
X199916449Y-167314274D01*
X199961507Y-167275232D01*
X199970555Y-167270622D01*
X200024716Y-167231270D01*
X200024717Y-167231270D01*
X199392408Y-166598962D01*
X199455993Y-166581925D01*
X199570007Y-166516099D01*
X199663099Y-166423007D01*
X199728925Y-166308993D01*
X199745962Y-166245408D01*
X200378270Y-166877717D01*
X200378270Y-166877716D01*
X200417622Y-166823554D01*
X200514095Y-166634217D01*
X200579757Y-166432130D01*
X200579757Y-166432127D01*
X200613000Y-166222246D01*
X200613000Y-166009753D01*
X200579757Y-165799872D01*
X200579757Y-165799869D01*
X200514095Y-165597782D01*
X200417624Y-165408449D01*
X200378270Y-165354282D01*
X200378269Y-165354282D01*
X199745962Y-165986590D01*
X199728925Y-165923007D01*
X199663099Y-165808993D01*
X199570007Y-165715901D01*
X199455993Y-165650075D01*
X199392409Y-165633037D01*
X200062627Y-164962818D01*
X200123950Y-164929333D01*
X200150307Y-164926499D01*
X200160872Y-164926499D01*
X200220483Y-164920091D01*
X200355331Y-164869796D01*
X200470546Y-164783546D01*
X200556796Y-164668331D01*
X200607091Y-164533483D01*
X200613500Y-164473873D01*
X200613499Y-162678128D01*
X200607091Y-162618517D01*
X200575596Y-162534075D01*
X200556797Y-162483671D01*
X200556793Y-162483664D01*
X200470547Y-162368455D01*
X200470544Y-162368452D01*
X200355335Y-162282206D01*
X200355328Y-162282202D01*
X200220483Y-162231908D01*
X200174243Y-162226937D01*
X200109693Y-162200199D01*
X200069845Y-162142806D01*
X200063500Y-162103648D01*
X200063500Y-152147940D01*
X200083185Y-152080901D01*
X200099819Y-152060259D01*
X201880252Y-150279826D01*
X203799618Y-148360459D01*
X203860939Y-148326976D01*
X203930631Y-148331960D01*
X203986564Y-148373832D01*
X204010981Y-148439296D01*
X204001859Y-148495593D01*
X203954263Y-148610503D01*
X203954261Y-148610510D01*
X203923500Y-148765153D01*
X203923500Y-162103648D01*
X203903815Y-162170687D01*
X203851011Y-162216442D01*
X203812755Y-162226938D01*
X203766516Y-162231909D01*
X203631671Y-162282202D01*
X203631664Y-162282206D01*
X203516455Y-162368452D01*
X203516452Y-162368455D01*
X203430206Y-162483664D01*
X203430202Y-162483671D01*
X203379908Y-162618517D01*
X203373501Y-162678116D01*
X203373501Y-162678123D01*
X203373500Y-162678135D01*
X203373500Y-164473870D01*
X203373501Y-164473876D01*
X203379908Y-164533483D01*
X203430202Y-164668328D01*
X203430206Y-164668335D01*
X203516452Y-164783544D01*
X203516455Y-164783547D01*
X203631664Y-164869793D01*
X203631671Y-164869797D01*
X203676618Y-164886561D01*
X203766517Y-164920091D01*
X203826127Y-164926500D01*
X203836685Y-164926499D01*
X203903723Y-164946179D01*
X203924372Y-164962818D01*
X204594591Y-165633037D01*
X204531007Y-165650075D01*
X204416993Y-165715901D01*
X204323901Y-165808993D01*
X204258075Y-165923007D01*
X204241037Y-165986590D01*
X203608728Y-165354282D01*
X203608727Y-165354282D01*
X203569380Y-165408439D01*
X203472904Y-165597782D01*
X203407242Y-165799869D01*
X203407242Y-165799872D01*
X203374000Y-166009753D01*
X203374000Y-166222246D01*
X203407242Y-166432127D01*
X203407242Y-166432130D01*
X203472904Y-166634217D01*
X203569375Y-166823550D01*
X203608728Y-166877716D01*
X204241037Y-166245408D01*
X204258075Y-166308993D01*
X204323901Y-166423007D01*
X204416993Y-166516099D01*
X204531007Y-166581925D01*
X204594590Y-166598962D01*
X203962282Y-167231269D01*
X203962282Y-167231270D01*
X204016452Y-167270626D01*
X204016451Y-167270626D01*
X204025495Y-167275234D01*
X204076292Y-167323208D01*
X204093087Y-167391029D01*
X204070550Y-167457164D01*
X204025499Y-167496202D01*
X204016182Y-167500949D01*
X203844213Y-167625890D01*
X203693890Y-167776213D01*
X203568951Y-167948179D01*
X203472444Y-168137585D01*
X203472443Y-168137587D01*
X203472443Y-168137588D01*
X203458285Y-168181161D01*
X203406753Y-168339760D01*
X203397133Y-168400499D01*
X203373500Y-168549713D01*
X203373500Y-168762287D01*
X203373591Y-168762859D01*
X203406753Y-168972239D01*
X203472444Y-169174414D01*
X203568951Y-169363820D01*
X203693890Y-169535786D01*
X203844213Y-169686109D01*
X204016179Y-169811048D01*
X204016181Y-169811049D01*
X204016184Y-169811051D01*
X204205588Y-169907557D01*
X204407757Y-169973246D01*
X204617713Y-170006500D01*
X204617714Y-170006500D01*
X204830286Y-170006500D01*
X204830287Y-170006500D01*
X205040243Y-169973246D01*
X205242412Y-169907557D01*
X205431816Y-169811051D01*
X205486181Y-169771553D01*
X205603786Y-169686109D01*
X205603788Y-169686106D01*
X205603792Y-169686104D01*
X205754104Y-169535792D01*
X205754106Y-169535788D01*
X205754109Y-169535786D01*
X205808899Y-169460371D01*
X205879051Y-169363816D01*
X205901571Y-169319617D01*
X209062000Y-169319617D01*
X209062000Y-169516382D01*
X209092778Y-169710705D01*
X209153581Y-169897835D01*
X209242905Y-170073145D01*
X209268319Y-170108125D01*
X209268320Y-170108125D01*
X209958446Y-169418000D01*
X209958446Y-169417999D01*
X210665553Y-169417999D01*
X210665553Y-169418001D01*
X211355678Y-170108126D01*
X211355678Y-170108125D01*
X211381095Y-170073143D01*
X211470418Y-169897837D01*
X211476633Y-169878711D01*
X275149500Y-169878711D01*
X275149500Y-170121288D01*
X275181161Y-170361785D01*
X275243947Y-170596104D01*
X275336773Y-170820205D01*
X275336776Y-170820212D01*
X275458064Y-171030289D01*
X275458066Y-171030292D01*
X275458067Y-171030293D01*
X275605733Y-171222736D01*
X275605739Y-171222743D01*
X275777256Y-171394260D01*
X275777262Y-171394265D01*
X275969711Y-171541936D01*
X276179788Y-171663224D01*
X276403900Y-171756054D01*
X276638211Y-171818838D01*
X276818586Y-171842584D01*
X276878711Y-171850500D01*
X276878712Y-171850500D01*
X277121289Y-171850500D01*
X277169388Y-171844167D01*
X277361789Y-171818838D01*
X277596100Y-171756054D01*
X277820212Y-171663224D01*
X278030289Y-171541936D01*
X278222738Y-171394265D01*
X278394265Y-171222738D01*
X278541936Y-171030289D01*
X278663224Y-170820212D01*
X278756054Y-170596100D01*
X278818838Y-170361789D01*
X278850500Y-170121288D01*
X278850500Y-169878712D01*
X278818838Y-169638211D01*
X278756054Y-169403900D01*
X278663224Y-169179788D01*
X278541936Y-168969711D01*
X278394265Y-168777262D01*
X278394260Y-168777256D01*
X278222743Y-168605739D01*
X278222736Y-168605733D01*
X278030293Y-168458067D01*
X278030292Y-168458066D01*
X278030289Y-168458064D01*
X277832366Y-168343793D01*
X277820214Y-168336777D01*
X277820205Y-168336773D01*
X277596104Y-168243947D01*
X277361785Y-168181161D01*
X277121289Y-168149500D01*
X277121288Y-168149500D01*
X276878712Y-168149500D01*
X276878711Y-168149500D01*
X276638214Y-168181161D01*
X276403895Y-168243947D01*
X276179794Y-168336773D01*
X276179785Y-168336777D01*
X275969706Y-168458067D01*
X275777263Y-168605733D01*
X275777256Y-168605739D01*
X275605739Y-168777256D01*
X275605733Y-168777263D01*
X275458067Y-168969706D01*
X275458064Y-168969710D01*
X275458064Y-168969711D01*
X275456602Y-168972243D01*
X275336777Y-169179785D01*
X275336773Y-169179794D01*
X275243947Y-169403895D01*
X275181161Y-169638214D01*
X275149500Y-169878711D01*
X211476633Y-169878711D01*
X211490402Y-169836334D01*
X211490402Y-169836333D01*
X211531221Y-169710705D01*
X211562000Y-169516382D01*
X211562000Y-169319617D01*
X211531221Y-169125294D01*
X211470418Y-168938164D01*
X211381096Y-168762858D01*
X211355678Y-168727873D01*
X211355677Y-168727873D01*
X210665553Y-169417999D01*
X209958446Y-169417999D01*
X209268320Y-168727872D01*
X209268320Y-168727873D01*
X209242902Y-168762859D01*
X209242899Y-168762863D01*
X209153582Y-168938161D01*
X209092778Y-169125294D01*
X209062000Y-169319617D01*
X205901571Y-169319617D01*
X205975557Y-169174412D01*
X206041246Y-168972243D01*
X206074500Y-168762287D01*
X206074500Y-168549713D01*
X206046720Y-168374320D01*
X209621872Y-168374320D01*
X210312000Y-169064446D01*
X210312001Y-169064446D01*
X211002125Y-168374320D01*
X211002125Y-168374319D01*
X210967145Y-168348905D01*
X210791835Y-168259581D01*
X210604705Y-168198778D01*
X210410382Y-168168000D01*
X210213618Y-168168000D01*
X210019294Y-168198778D01*
X209832161Y-168259582D01*
X209656863Y-168348899D01*
X209656859Y-168348902D01*
X209621873Y-168374320D01*
X209621872Y-168374320D01*
X206046720Y-168374320D01*
X206041246Y-168339757D01*
X205975557Y-168137588D01*
X205879051Y-167948184D01*
X205879049Y-167948181D01*
X205879048Y-167948179D01*
X205754109Y-167776213D01*
X205603786Y-167625890D01*
X205431817Y-167500949D01*
X205422504Y-167496204D01*
X205371707Y-167448230D01*
X205354912Y-167380409D01*
X205377449Y-167314274D01*
X205422507Y-167275232D01*
X205431555Y-167270622D01*
X205485716Y-167231270D01*
X205485717Y-167231270D01*
X205144224Y-166889778D01*
X257334500Y-166889778D01*
X257334500Y-167110221D01*
X257368985Y-167327952D01*
X257437103Y-167537603D01*
X257437104Y-167537606D01*
X257537187Y-167734025D01*
X257666752Y-167912358D01*
X257666756Y-167912363D01*
X257822636Y-168068243D01*
X257822641Y-168068247D01*
X257959941Y-168168000D01*
X258000978Y-168197815D01*
X258122199Y-168259581D01*
X258197393Y-168297895D01*
X258197396Y-168297896D01*
X258302221Y-168331955D01*
X258407049Y-168366015D01*
X258624778Y-168400500D01*
X258624779Y-168400500D01*
X258845221Y-168400500D01*
X258845222Y-168400500D01*
X259062951Y-168366015D01*
X259272606Y-168297895D01*
X259469022Y-168197815D01*
X259647365Y-168068242D01*
X259697536Y-168018070D01*
X259758857Y-167984586D01*
X259828548Y-167989570D01*
X259884482Y-168031441D01*
X259901398Y-168062419D01*
X259931202Y-168142328D01*
X259931206Y-168142335D01*
X260017452Y-168257544D01*
X260017455Y-168257547D01*
X260132664Y-168343793D01*
X260132671Y-168343797D01*
X260267517Y-168394091D01*
X260267516Y-168394091D01*
X260274444Y-168394835D01*
X260327127Y-168400500D01*
X262222872Y-168400499D01*
X262282483Y-168394091D01*
X262417331Y-168343796D01*
X262532546Y-168257546D01*
X262618796Y-168142331D01*
X262669091Y-168007483D01*
X262675500Y-167947873D01*
X262675499Y-166886695D01*
X274514738Y-166886695D01*
X279580676Y-166886695D01*
X279580676Y-164723463D01*
X274514738Y-164723463D01*
X274514738Y-166886695D01*
X262675499Y-166886695D01*
X262675499Y-166052128D01*
X262669091Y-165992517D01*
X262667665Y-165988695D01*
X262618797Y-165857671D01*
X262618793Y-165857664D01*
X262532547Y-165742455D01*
X262532544Y-165742452D01*
X262417335Y-165656206D01*
X262417328Y-165656202D01*
X262282482Y-165605908D01*
X262282483Y-165605908D01*
X262222883Y-165599501D01*
X262222881Y-165599500D01*
X262222873Y-165599500D01*
X262222864Y-165599500D01*
X260327129Y-165599500D01*
X260327123Y-165599501D01*
X260267516Y-165605908D01*
X260132671Y-165656202D01*
X260132664Y-165656206D01*
X260017455Y-165742452D01*
X260017452Y-165742455D01*
X259931206Y-165857664D01*
X259931203Y-165857669D01*
X259901398Y-165937581D01*
X259883332Y-165961713D01*
X259867268Y-165987217D01*
X259862608Y-165989396D01*
X259859526Y-165993514D01*
X259831282Y-166004048D01*
X259803979Y-166016819D01*
X259798881Y-166016133D01*
X259794062Y-166017931D01*
X259764604Y-166011522D01*
X259734733Y-166007505D01*
X259729456Y-166003876D01*
X259725789Y-166003079D01*
X259704869Y-165988695D01*
X259701071Y-165985464D01*
X259647365Y-165931758D01*
X259582776Y-165884831D01*
X259579153Y-165881749D01*
X259562497Y-165856343D01*
X259543948Y-165832287D01*
X259542832Y-165826347D01*
X259540846Y-165823317D01*
X259540773Y-165815384D01*
X259535500Y-165787301D01*
X259535500Y-162857940D01*
X259544144Y-162828500D01*
X259550667Y-162798515D01*
X259554422Y-162793497D01*
X259555185Y-162790901D01*
X259571814Y-162770263D01*
X259605978Y-162736099D01*
X259667298Y-162702615D01*
X259703406Y-162700165D01*
X259707642Y-162700499D01*
X259707648Y-162700500D01*
X259707654Y-162700500D01*
X259912351Y-162700500D01*
X259912352Y-162700500D01*
X260114534Y-162668477D01*
X260309219Y-162605220D01*
X260491610Y-162512287D01*
X260637903Y-162406000D01*
X260657213Y-162391971D01*
X260657215Y-162391968D01*
X260657219Y-162391966D01*
X260801966Y-162247219D01*
X260801968Y-162247215D01*
X260801971Y-162247213D01*
X260880565Y-162139036D01*
X260922287Y-162081610D01*
X261015220Y-161899219D01*
X261078477Y-161704534D01*
X261110500Y-161502352D01*
X261110500Y-161297648D01*
X261078477Y-161095466D01*
X261015220Y-160900781D01*
X261015218Y-160900778D01*
X261015218Y-160900776D01*
X260981503Y-160834607D01*
X260922287Y-160718390D01*
X260903194Y-160692110D01*
X260801971Y-160552786D01*
X260657213Y-160408028D01*
X260491613Y-160287715D01*
X260491612Y-160287714D01*
X260491610Y-160287713D01*
X260434653Y-160258691D01*
X260309223Y-160194781D01*
X260114534Y-160131522D01*
X259939995Y-160103878D01*
X259912352Y-160099500D01*
X259707648Y-160099500D01*
X259683329Y-160103351D01*
X259505465Y-160131522D01*
X259310776Y-160194781D01*
X259128386Y-160287715D01*
X258962786Y-160408028D01*
X258818028Y-160552786D01*
X258697715Y-160718386D01*
X258604781Y-160900776D01*
X258541522Y-161095465D01*
X258509500Y-161297648D01*
X258509500Y-161502359D01*
X258509835Y-161506619D01*
X258495467Y-161574996D01*
X258473898Y-161604022D01*
X258224711Y-161853211D01*
X258193195Y-161884727D01*
X258113209Y-161964712D01*
X258025609Y-162095814D01*
X258025602Y-162095827D01*
X257965264Y-162241498D01*
X257965261Y-162241510D01*
X257934500Y-162396153D01*
X257934500Y-165787301D01*
X257914815Y-165854340D01*
X257883387Y-165887618D01*
X257822635Y-165931757D01*
X257666756Y-166087636D01*
X257666752Y-166087641D01*
X257537187Y-166265974D01*
X257437104Y-166462393D01*
X257437103Y-166462396D01*
X257368985Y-166672047D01*
X257334500Y-166889778D01*
X205144224Y-166889778D01*
X204853408Y-166598962D01*
X204916993Y-166581925D01*
X205031007Y-166516099D01*
X205124099Y-166423007D01*
X205189925Y-166308993D01*
X205206962Y-166245408D01*
X205839270Y-166877717D01*
X205839270Y-166877716D01*
X205878622Y-166823555D01*
X205878623Y-166823553D01*
X205975095Y-166634217D01*
X206040757Y-166432130D01*
X206040757Y-166432127D01*
X206074000Y-166222246D01*
X206074000Y-166009753D01*
X206040757Y-165799872D01*
X206040757Y-165799869D01*
X205975095Y-165597782D01*
X205878624Y-165408449D01*
X205839270Y-165354282D01*
X205839269Y-165354282D01*
X205206962Y-165986590D01*
X205189925Y-165923007D01*
X205124099Y-165808993D01*
X205031007Y-165715901D01*
X204916993Y-165650075D01*
X204853409Y-165633037D01*
X205523627Y-164962818D01*
X205584950Y-164929333D01*
X205611307Y-164926499D01*
X205621872Y-164926499D01*
X205681483Y-164920091D01*
X205816331Y-164869796D01*
X205931546Y-164783546D01*
X206017796Y-164668331D01*
X206068091Y-164533483D01*
X206074500Y-164473873D01*
X206074499Y-162678128D01*
X206068091Y-162618517D01*
X206036596Y-162534075D01*
X206017797Y-162483671D01*
X206017793Y-162483664D01*
X205931547Y-162368455D01*
X205931544Y-162368452D01*
X205816335Y-162282206D01*
X205816328Y-162282202D01*
X205681483Y-162231908D01*
X205638619Y-162227300D01*
X205635243Y-162226937D01*
X205570693Y-162200199D01*
X205530845Y-162142806D01*
X205524500Y-162103648D01*
X205524500Y-149226940D01*
X205544185Y-149159901D01*
X205560819Y-149139259D01*
X208415666Y-146284412D01*
X211307034Y-143393043D01*
X211368355Y-143359560D01*
X211438047Y-143364544D01*
X211493980Y-143406416D01*
X211517186Y-143461327D01*
X211534753Y-143572240D01*
X211534754Y-143572243D01*
X211590695Y-143744412D01*
X211600444Y-143774414D01*
X211696951Y-143963820D01*
X211821890Y-144135786D01*
X211972213Y-144286109D01*
X212144182Y-144411050D01*
X212152946Y-144415516D01*
X212203742Y-144463491D01*
X212220536Y-144531312D01*
X212197998Y-144597447D01*
X212152946Y-144636484D01*
X212144182Y-144640949D01*
X211972213Y-144765890D01*
X211821890Y-144916213D01*
X211696951Y-145088179D01*
X211600444Y-145277585D01*
X211534753Y-145479760D01*
X211501500Y-145689713D01*
X211501500Y-145902287D01*
X211534754Y-146112243D01*
X211590695Y-146284412D01*
X211600444Y-146314414D01*
X211696951Y-146503820D01*
X211821890Y-146675786D01*
X211972213Y-146826109D01*
X212144182Y-146951050D01*
X212152946Y-146955516D01*
X212203742Y-147003491D01*
X212220536Y-147071312D01*
X212197998Y-147137447D01*
X212152946Y-147176484D01*
X212144182Y-147180949D01*
X211972213Y-147305890D01*
X211821890Y-147456213D01*
X211696951Y-147628179D01*
X211600444Y-147817585D01*
X211534753Y-148019760D01*
X211501500Y-148229713D01*
X211501500Y-148442286D01*
X211534125Y-148648275D01*
X211534754Y-148652243D01*
X211590695Y-148824412D01*
X211600444Y-148854414D01*
X211696951Y-149043820D01*
X211821890Y-149215786D01*
X211972213Y-149366109D01*
X212144182Y-149491050D01*
X212152946Y-149495516D01*
X212203742Y-149543491D01*
X212220536Y-149611312D01*
X212197998Y-149677447D01*
X212152946Y-149716484D01*
X212144182Y-149720949D01*
X211972213Y-149845890D01*
X211821890Y-149996213D01*
X211696951Y-150168179D01*
X211600444Y-150357585D01*
X211534753Y-150559760D01*
X211501500Y-150769713D01*
X211501500Y-150982286D01*
X211533694Y-151185555D01*
X211534754Y-151192243D01*
X211590695Y-151364412D01*
X211600444Y-151394414D01*
X211696951Y-151583820D01*
X211821890Y-151755786D01*
X211972213Y-151906109D01*
X212144182Y-152031050D01*
X212152946Y-152035516D01*
X212203742Y-152083491D01*
X212220536Y-152151312D01*
X212197998Y-152217447D01*
X212152946Y-152256484D01*
X212144182Y-152260949D01*
X211972213Y-152385890D01*
X211821890Y-152536213D01*
X211696951Y-152708179D01*
X211600444Y-152897585D01*
X211534753Y-153099760D01*
X211501500Y-153309713D01*
X211501500Y-153522287D01*
X211534754Y-153732243D01*
X211590695Y-153904412D01*
X211600444Y-153934414D01*
X211696951Y-154123820D01*
X211821890Y-154295786D01*
X211972213Y-154446109D01*
X212144182Y-154571050D01*
X212152946Y-154575516D01*
X212203742Y-154623491D01*
X212220536Y-154691312D01*
X212197998Y-154757447D01*
X212152946Y-154796484D01*
X212144182Y-154800949D01*
X211972213Y-154925890D01*
X211821890Y-155076213D01*
X211696951Y-155248179D01*
X211600444Y-155437585D01*
X211534753Y-155639760D01*
X211501500Y-155849713D01*
X211501500Y-156062286D01*
X211529325Y-156237970D01*
X211534754Y-156272243D01*
X211590695Y-156444412D01*
X211600444Y-156474414D01*
X211696951Y-156663820D01*
X211821890Y-156835786D01*
X211972213Y-156986109D01*
X212144182Y-157111050D01*
X212152946Y-157115516D01*
X212203742Y-157163491D01*
X212220536Y-157231312D01*
X212197998Y-157297447D01*
X212152946Y-157336484D01*
X212144182Y-157340949D01*
X211972213Y-157465890D01*
X211821890Y-157616213D01*
X211696951Y-157788179D01*
X211600444Y-157977585D01*
X211534753Y-158179760D01*
X211501500Y-158389713D01*
X211501500Y-158602287D01*
X211504668Y-158622286D01*
X211532830Y-158800099D01*
X211534754Y-158812243D01*
X211590695Y-158984412D01*
X211600444Y-159014414D01*
X211696951Y-159203820D01*
X211821890Y-159375786D01*
X211972213Y-159526109D01*
X212144179Y-159651048D01*
X212144181Y-159651049D01*
X212144184Y-159651051D01*
X212153493Y-159655794D01*
X212204290Y-159703766D01*
X212221087Y-159771587D01*
X212198552Y-159837722D01*
X212153505Y-159876760D01*
X212144446Y-159881376D01*
X212144440Y-159881380D01*
X212090282Y-159920727D01*
X212090282Y-159920728D01*
X212722591Y-160553037D01*
X212659007Y-160570075D01*
X212544993Y-160635901D01*
X212451901Y-160728993D01*
X212386075Y-160843007D01*
X212369037Y-160906591D01*
X211736728Y-160274282D01*
X211736727Y-160274282D01*
X211697380Y-160328439D01*
X211600904Y-160517782D01*
X211535242Y-160719869D01*
X211535242Y-160719872D01*
X211502000Y-160929753D01*
X211502000Y-161142246D01*
X211535242Y-161352127D01*
X211535242Y-161352130D01*
X211600904Y-161554217D01*
X211697375Y-161743550D01*
X211736728Y-161797716D01*
X212369037Y-161165408D01*
X212386075Y-161228993D01*
X212451901Y-161343007D01*
X212544993Y-161436099D01*
X212659007Y-161501925D01*
X212722590Y-161518962D01*
X212090282Y-162151269D01*
X212090282Y-162151270D01*
X212144449Y-162190624D01*
X212333782Y-162287095D01*
X212535870Y-162352757D01*
X212745754Y-162386000D01*
X212958246Y-162386000D01*
X213168127Y-162352757D01*
X213168130Y-162352757D01*
X213370217Y-162287095D01*
X213559554Y-162190622D01*
X213613716Y-162151270D01*
X213613717Y-162151270D01*
X212981408Y-161518962D01*
X213044993Y-161501925D01*
X213159007Y-161436099D01*
X213252099Y-161343007D01*
X213317925Y-161228993D01*
X213334962Y-161165408D01*
X213967270Y-161797717D01*
X213967270Y-161797716D01*
X214006622Y-161743554D01*
X214103095Y-161554217D01*
X214168757Y-161352130D01*
X214168757Y-161352127D01*
X214202000Y-161142246D01*
X214202000Y-160929753D01*
X214168757Y-160719872D01*
X214168757Y-160719869D01*
X214103095Y-160517782D01*
X214006624Y-160328449D01*
X213967270Y-160274282D01*
X213967269Y-160274282D01*
X213334962Y-160906590D01*
X213317925Y-160843007D01*
X213252099Y-160728993D01*
X213159007Y-160635901D01*
X213044993Y-160570075D01*
X212981409Y-160553037D01*
X213613716Y-159920728D01*
X213559547Y-159881373D01*
X213559547Y-159881372D01*
X213550500Y-159876763D01*
X213499706Y-159828788D01*
X213482912Y-159760966D01*
X213505451Y-159694832D01*
X213550508Y-159655793D01*
X213559816Y-159651051D01*
X213691954Y-159555048D01*
X213731786Y-159526109D01*
X213731788Y-159526106D01*
X213731792Y-159526104D01*
X213882104Y-159375792D01*
X213882106Y-159375788D01*
X213882109Y-159375786D01*
X214007048Y-159203820D01*
X214007047Y-159203820D01*
X214007051Y-159203816D01*
X214103557Y-159014412D01*
X214169246Y-158812243D01*
X214202500Y-158602287D01*
X214202500Y-158389713D01*
X214169246Y-158179757D01*
X214103557Y-157977588D01*
X214007051Y-157788184D01*
X214007049Y-157788181D01*
X214007048Y-157788179D01*
X213882109Y-157616213D01*
X213731786Y-157465890D01*
X213559820Y-157340951D01*
X213559115Y-157340591D01*
X213551054Y-157336485D01*
X213500259Y-157288512D01*
X213483463Y-157220692D01*
X213505999Y-157154556D01*
X213551054Y-157115515D01*
X213559816Y-157111051D01*
X213635713Y-157055909D01*
X213731786Y-156986109D01*
X213731788Y-156986106D01*
X213731792Y-156986104D01*
X213882104Y-156835792D01*
X213888046Y-156827614D01*
X213943376Y-156784949D01*
X213988364Y-156776500D01*
X216248106Y-156776500D01*
X216315145Y-156796185D01*
X216348422Y-156827612D01*
X216368896Y-156855792D01*
X216368898Y-156855794D01*
X216519213Y-157006109D01*
X216691182Y-157131050D01*
X216699946Y-157135516D01*
X216750742Y-157183491D01*
X216767536Y-157251312D01*
X216744998Y-157317447D01*
X216699946Y-157356484D01*
X216691182Y-157360949D01*
X216519213Y-157485890D01*
X216368890Y-157636213D01*
X216243951Y-157808179D01*
X216147444Y-157997585D01*
X216081753Y-158199760D01*
X216048500Y-158409713D01*
X216048500Y-158622286D01*
X216081753Y-158832239D01*
X216081753Y-158832241D01*
X216081754Y-158832243D01*
X216140945Y-159014414D01*
X216147444Y-159034414D01*
X216243951Y-159223820D01*
X216368890Y-159395786D01*
X216519213Y-159546109D01*
X216691179Y-159671048D01*
X216691181Y-159671049D01*
X216691184Y-159671051D01*
X216700493Y-159675794D01*
X216751290Y-159723766D01*
X216768087Y-159791587D01*
X216745552Y-159857722D01*
X216700505Y-159896760D01*
X216691446Y-159901376D01*
X216691440Y-159901380D01*
X216637282Y-159940727D01*
X216637282Y-159940728D01*
X217269591Y-160573037D01*
X217206007Y-160590075D01*
X217091993Y-160655901D01*
X216998901Y-160748993D01*
X216933075Y-160863007D01*
X216916037Y-160926591D01*
X216283728Y-160294282D01*
X216283727Y-160294282D01*
X216244380Y-160348439D01*
X216147904Y-160537782D01*
X216082242Y-160739869D01*
X216082242Y-160739872D01*
X216049000Y-160949753D01*
X216049000Y-161162246D01*
X216082242Y-161372127D01*
X216082242Y-161372130D01*
X216147904Y-161574217D01*
X216244375Y-161763550D01*
X216283728Y-161817716D01*
X216916037Y-161185408D01*
X216933075Y-161248993D01*
X216998901Y-161363007D01*
X217091993Y-161456099D01*
X217206007Y-161521925D01*
X217269590Y-161538962D01*
X216637282Y-162171269D01*
X216637282Y-162171270D01*
X216691449Y-162210624D01*
X216880782Y-162307095D01*
X217082870Y-162372757D01*
X217292754Y-162406000D01*
X217505246Y-162406000D01*
X217715127Y-162372757D01*
X217715130Y-162372757D01*
X217917217Y-162307095D01*
X218106554Y-162210622D01*
X218160716Y-162171270D01*
X218160717Y-162171270D01*
X217528408Y-161538962D01*
X217591993Y-161521925D01*
X217706007Y-161456099D01*
X217799099Y-161363007D01*
X217864925Y-161248993D01*
X217881962Y-161185409D01*
X218514270Y-161817717D01*
X218514270Y-161817716D01*
X218553622Y-161763554D01*
X218650095Y-161574217D01*
X218715757Y-161372130D01*
X218715757Y-161372127D01*
X218749000Y-161162246D01*
X218749000Y-160949753D01*
X218715757Y-160739872D01*
X218715757Y-160739869D01*
X218650095Y-160537782D01*
X218553624Y-160348449D01*
X218514270Y-160294282D01*
X218514269Y-160294282D01*
X217881962Y-160926590D01*
X217864925Y-160863007D01*
X217799099Y-160748993D01*
X217706007Y-160655901D01*
X217591993Y-160590075D01*
X217528409Y-160573037D01*
X218160716Y-159940728D01*
X218106547Y-159901373D01*
X218106547Y-159901372D01*
X218097500Y-159896763D01*
X218046706Y-159848788D01*
X218029912Y-159780966D01*
X218052451Y-159714832D01*
X218097508Y-159675793D01*
X218106816Y-159671051D01*
X218265374Y-159555853D01*
X218278786Y-159546109D01*
X218278788Y-159546106D01*
X218278792Y-159546104D01*
X218429104Y-159395792D01*
X218429106Y-159395788D01*
X218429109Y-159395786D01*
X218554048Y-159223820D01*
X218554047Y-159223820D01*
X218554051Y-159223816D01*
X218650557Y-159034412D01*
X218716246Y-158832243D01*
X218733813Y-158721326D01*
X218763742Y-158658194D01*
X218823053Y-158621262D01*
X218892916Y-158622260D01*
X218943967Y-158653045D01*
X224758211Y-164467289D01*
X224869711Y-164578789D01*
X225000821Y-164666394D01*
X225103833Y-164709062D01*
X225146502Y-164726737D01*
X225301152Y-164757499D01*
X225301155Y-164757500D01*
X225301157Y-164757500D01*
X252173844Y-164757500D01*
X252173845Y-164757499D01*
X252328497Y-164726737D01*
X252474179Y-164666394D01*
X252605289Y-164578789D01*
X257284065Y-159900013D01*
X274200000Y-159900013D01*
X274200000Y-160750000D01*
X275399999Y-160750000D01*
X275374979Y-160810402D01*
X275350000Y-160935981D01*
X275350000Y-161064019D01*
X275374979Y-161189598D01*
X275399999Y-161250000D01*
X274200001Y-161250000D01*
X274200001Y-162099986D01*
X274210494Y-162202697D01*
X274265641Y-162369119D01*
X274265643Y-162369124D01*
X274357684Y-162518345D01*
X274481654Y-162642315D01*
X274630875Y-162734356D01*
X274630880Y-162734358D01*
X274797302Y-162789505D01*
X274797309Y-162789506D01*
X274900019Y-162799999D01*
X275749999Y-162799999D01*
X275750000Y-162799998D01*
X275750000Y-161600001D01*
X275810402Y-161625021D01*
X275935981Y-161650000D01*
X276064019Y-161650000D01*
X276189598Y-161625021D01*
X276250000Y-161600001D01*
X276250000Y-162799999D01*
X277099972Y-162799999D01*
X277099986Y-162799998D01*
X277202697Y-162789505D01*
X277369119Y-162734358D01*
X277369124Y-162734356D01*
X277518345Y-162642315D01*
X277642315Y-162518345D01*
X277734356Y-162369124D01*
X277734358Y-162369119D01*
X277789505Y-162202697D01*
X277789506Y-162202690D01*
X277799999Y-162099986D01*
X277800000Y-162099973D01*
X277800000Y-161250000D01*
X276600001Y-161250000D01*
X276625021Y-161189598D01*
X276650000Y-161064019D01*
X276650000Y-160935981D01*
X276625021Y-160810402D01*
X276600001Y-160750000D01*
X277799999Y-160750000D01*
X277799999Y-159900028D01*
X277799998Y-159900013D01*
X277789505Y-159797302D01*
X277734358Y-159630880D01*
X277734356Y-159630875D01*
X277642315Y-159481654D01*
X277518345Y-159357684D01*
X277369124Y-159265643D01*
X277369119Y-159265641D01*
X277202697Y-159210494D01*
X277202690Y-159210493D01*
X277099986Y-159200000D01*
X276250000Y-159200000D01*
X276250000Y-160399998D01*
X276189598Y-160374979D01*
X276064019Y-160350000D01*
X275935981Y-160350000D01*
X275810402Y-160374979D01*
X275750000Y-160399998D01*
X275750000Y-159200000D01*
X274900028Y-159200000D01*
X274900012Y-159200001D01*
X274797302Y-159210494D01*
X274630880Y-159265641D01*
X274630875Y-159265643D01*
X274481654Y-159357684D01*
X274357684Y-159481654D01*
X274265643Y-159630875D01*
X274265641Y-159630880D01*
X274210494Y-159797302D01*
X274210493Y-159797309D01*
X274200000Y-159900013D01*
X257284065Y-159900013D01*
X259071259Y-158112819D01*
X259132582Y-158079334D01*
X259158940Y-158076500D01*
X264802844Y-158076500D01*
X264802845Y-158076499D01*
X264957497Y-158045737D01*
X265103179Y-157985394D01*
X265234289Y-157897789D01*
X267250083Y-155881995D01*
X274199500Y-155881995D01*
X274199500Y-156118004D01*
X274199501Y-156118020D01*
X274230306Y-156352010D01*
X274291394Y-156579993D01*
X274381714Y-156798045D01*
X274381719Y-156798056D01*
X274415055Y-156855794D01*
X274499727Y-157002450D01*
X274499729Y-157002453D01*
X274499730Y-157002454D01*
X274643406Y-157189697D01*
X274643412Y-157189704D01*
X274810295Y-157356587D01*
X274810302Y-157356593D01*
X274827631Y-157369890D01*
X274997550Y-157500273D01*
X275128918Y-157576118D01*
X275201943Y-157618280D01*
X275201948Y-157618282D01*
X275201951Y-157618284D01*
X275420007Y-157708606D01*
X275647986Y-157769693D01*
X275881989Y-157800500D01*
X275881996Y-157800500D01*
X276118004Y-157800500D01*
X276118011Y-157800500D01*
X276352014Y-157769693D01*
X276579993Y-157708606D01*
X276798049Y-157618284D01*
X277002450Y-157500273D01*
X277189699Y-157356592D01*
X277356592Y-157189699D01*
X277500273Y-157002450D01*
X277618284Y-156798049D01*
X277708606Y-156579993D01*
X277769693Y-156352014D01*
X277800500Y-156118011D01*
X277800500Y-155881989D01*
X277769693Y-155647986D01*
X277708606Y-155420007D01*
X277618284Y-155201951D01*
X277618282Y-155201948D01*
X277618280Y-155201943D01*
X277557232Y-155096206D01*
X277500273Y-154997550D01*
X277364764Y-154820951D01*
X277356593Y-154810302D01*
X277356587Y-154810295D01*
X277189704Y-154643412D01*
X277189697Y-154643406D01*
X277002454Y-154499730D01*
X277002453Y-154499729D01*
X277002450Y-154499727D01*
X276920957Y-154452677D01*
X276798056Y-154381719D01*
X276798045Y-154381714D01*
X276579993Y-154291394D01*
X276484423Y-154265786D01*
X276352014Y-154230307D01*
X276352013Y-154230306D01*
X276352010Y-154230306D01*
X276118020Y-154199501D01*
X276118017Y-154199500D01*
X276118011Y-154199500D01*
X275881989Y-154199500D01*
X275881983Y-154199500D01*
X275881979Y-154199501D01*
X275647989Y-154230306D01*
X275420006Y-154291394D01*
X275201954Y-154381714D01*
X275201943Y-154381719D01*
X274997545Y-154499730D01*
X274810302Y-154643406D01*
X274810295Y-154643412D01*
X274643412Y-154810295D01*
X274643406Y-154810302D01*
X274499730Y-154997545D01*
X274381719Y-155201943D01*
X274381714Y-155201954D01*
X274291394Y-155420006D01*
X274230306Y-155647989D01*
X274199501Y-155881979D01*
X274199500Y-155881995D01*
X267250083Y-155881995D01*
X272250082Y-150881995D01*
X274199500Y-150881995D01*
X274199500Y-151118004D01*
X274199501Y-151118020D01*
X274226027Y-151319511D01*
X274230307Y-151352014D01*
X274258565Y-151457474D01*
X274291394Y-151579993D01*
X274381714Y-151798045D01*
X274381719Y-151798056D01*
X274444104Y-151906109D01*
X274499727Y-152002450D01*
X274499729Y-152002453D01*
X274499730Y-152002454D01*
X274643406Y-152189697D01*
X274643412Y-152189704D01*
X274810295Y-152356587D01*
X274810301Y-152356592D01*
X274997550Y-152500273D01*
X275094441Y-152556213D01*
X275201943Y-152618280D01*
X275201948Y-152618282D01*
X275201951Y-152618284D01*
X275420007Y-152708606D01*
X275647986Y-152769693D01*
X275881989Y-152800500D01*
X275881996Y-152800500D01*
X276118004Y-152800500D01*
X276118011Y-152800500D01*
X276352014Y-152769693D01*
X276579993Y-152708606D01*
X276798049Y-152618284D01*
X277002450Y-152500273D01*
X277189699Y-152356592D01*
X277356592Y-152189699D01*
X277500273Y-152002450D01*
X277618284Y-151798049D01*
X277708606Y-151579993D01*
X277769693Y-151352014D01*
X277800500Y-151118011D01*
X277800500Y-150881989D01*
X277769693Y-150647986D01*
X277708606Y-150420007D01*
X277618284Y-150201951D01*
X277618282Y-150201948D01*
X277618280Y-150201943D01*
X277545459Y-150075815D01*
X277500273Y-149997550D01*
X277416655Y-149888577D01*
X277356593Y-149810302D01*
X277356587Y-149810295D01*
X277189704Y-149643412D01*
X277189697Y-149643406D01*
X277002454Y-149499730D01*
X277002453Y-149499729D01*
X277002450Y-149499727D01*
X276920957Y-149452677D01*
X276798056Y-149381719D01*
X276798045Y-149381714D01*
X276579993Y-149291394D01*
X276372484Y-149235792D01*
X276352014Y-149230307D01*
X276352013Y-149230306D01*
X276352010Y-149230306D01*
X276118020Y-149199501D01*
X276118017Y-149199500D01*
X276118011Y-149199500D01*
X275881989Y-149199500D01*
X275881983Y-149199500D01*
X275881979Y-149199501D01*
X275647989Y-149230306D01*
X275420006Y-149291394D01*
X275201954Y-149381714D01*
X275201943Y-149381719D01*
X274997545Y-149499730D01*
X274810302Y-149643406D01*
X274810295Y-149643412D01*
X274643412Y-149810295D01*
X274643406Y-149810302D01*
X274499730Y-149997545D01*
X274381719Y-150201943D01*
X274381714Y-150201954D01*
X274291394Y-150420006D01*
X274230306Y-150647989D01*
X274199501Y-150881979D01*
X274199500Y-150881995D01*
X272250082Y-150881995D01*
X275372117Y-147759959D01*
X275433438Y-147726476D01*
X275491889Y-147727867D01*
X275536521Y-147739826D01*
X275647986Y-147769693D01*
X275881989Y-147800500D01*
X275881996Y-147800500D01*
X276118004Y-147800500D01*
X276118011Y-147800500D01*
X276352014Y-147769693D01*
X276579993Y-147708606D01*
X276798049Y-147618284D01*
X277002450Y-147500273D01*
X277189699Y-147356592D01*
X277356592Y-147189699D01*
X277500273Y-147002450D01*
X277618284Y-146798049D01*
X277708606Y-146579993D01*
X277769693Y-146352014D01*
X277800500Y-146118011D01*
X277800500Y-145881989D01*
X277769693Y-145647986D01*
X277708606Y-145420007D01*
X277618284Y-145201951D01*
X277618282Y-145201948D01*
X277618280Y-145201943D01*
X277576118Y-145128918D01*
X277500273Y-144997550D01*
X277414837Y-144886208D01*
X277356593Y-144810302D01*
X277356587Y-144810295D01*
X277189704Y-144643412D01*
X277189697Y-144643406D01*
X277002454Y-144499730D01*
X277002453Y-144499729D01*
X277002450Y-144499727D01*
X276920957Y-144452677D01*
X276798056Y-144381719D01*
X276798045Y-144381714D01*
X276579993Y-144291394D01*
X276560269Y-144286109D01*
X276352014Y-144230307D01*
X276352013Y-144230306D01*
X276352010Y-144230306D01*
X276118020Y-144199501D01*
X276118017Y-144199500D01*
X276118011Y-144199500D01*
X275881989Y-144199500D01*
X275881983Y-144199500D01*
X275881979Y-144199501D01*
X275647989Y-144230306D01*
X275420006Y-144291394D01*
X275201954Y-144381714D01*
X275201943Y-144381719D01*
X274997545Y-144499730D01*
X274810302Y-144643406D01*
X274810295Y-144643412D01*
X274643412Y-144810295D01*
X274643406Y-144810302D01*
X274499730Y-144997545D01*
X274381719Y-145201943D01*
X274381714Y-145201954D01*
X274291394Y-145420006D01*
X274230306Y-145647989D01*
X274199501Y-145881979D01*
X274199500Y-145881995D01*
X274199500Y-146118004D01*
X274199501Y-146118020D01*
X274230305Y-146352003D01*
X274230306Y-146352008D01*
X274230307Y-146352014D01*
X274270982Y-146503816D01*
X274272132Y-146508108D01*
X274270469Y-146577958D01*
X274240038Y-146627882D01*
X264428741Y-156439181D01*
X264367418Y-156472666D01*
X264341060Y-156475500D01*
X258697155Y-156475500D01*
X258542510Y-156506261D01*
X258542498Y-156506264D01*
X258396827Y-156566602D01*
X258396814Y-156566609D01*
X258265711Y-156654210D01*
X258265707Y-156654213D01*
X253680164Y-161239757D01*
X253618841Y-161273242D01*
X253549149Y-161268258D01*
X253493216Y-161226386D01*
X253470010Y-161171474D01*
X253457989Y-161095582D01*
X253394755Y-160900968D01*
X253301859Y-160718650D01*
X253269474Y-160674077D01*
X253269474Y-160674076D01*
X252590000Y-161353553D01*
X252590000Y-161347339D01*
X252562741Y-161245606D01*
X252510080Y-161154394D01*
X252435606Y-161079920D01*
X252344394Y-161027259D01*
X252242661Y-161000000D01*
X252236446Y-161000000D01*
X252915922Y-160320524D01*
X252915921Y-160320523D01*
X252871359Y-160288147D01*
X252871350Y-160288141D01*
X252689031Y-160195244D01*
X252494417Y-160132009D01*
X252292317Y-160100000D01*
X252087683Y-160100000D01*
X251885582Y-160132009D01*
X251690968Y-160195244D01*
X251508644Y-160288143D01*
X251464077Y-160320523D01*
X251464077Y-160320524D01*
X252143554Y-161000000D01*
X252137339Y-161000000D01*
X252035606Y-161027259D01*
X251944394Y-161079920D01*
X251869920Y-161154394D01*
X251817259Y-161245606D01*
X251790000Y-161347339D01*
X251790000Y-161353553D01*
X251110524Y-160674077D01*
X251110523Y-160674077D01*
X251078143Y-160718644D01*
X250985244Y-160900968D01*
X250922009Y-161095582D01*
X250890000Y-161297682D01*
X250890000Y-161502317D01*
X250922009Y-161704417D01*
X250985244Y-161899031D01*
X251078141Y-162081350D01*
X251078147Y-162081359D01*
X251110523Y-162125921D01*
X251110524Y-162125922D01*
X251790000Y-161446446D01*
X251790000Y-161452661D01*
X251817259Y-161554394D01*
X251869920Y-161645606D01*
X251944394Y-161720080D01*
X252035606Y-161772741D01*
X252137339Y-161800000D01*
X252143553Y-161800000D01*
X251464076Y-162479474D01*
X251508650Y-162511859D01*
X251690968Y-162604755D01*
X251885582Y-162667989D01*
X251961474Y-162680010D01*
X252024609Y-162709939D01*
X252061540Y-162769251D01*
X252060542Y-162839113D01*
X252029757Y-162890164D01*
X251799741Y-163120181D01*
X251738418Y-163153666D01*
X251712060Y-163156500D01*
X225762940Y-163156500D01*
X225695901Y-163136815D01*
X225675259Y-163120181D01*
X218778843Y-156223765D01*
X218745358Y-156162442D01*
X218744051Y-156116687D01*
X218749500Y-156082287D01*
X218749500Y-155869713D01*
X218716246Y-155659757D01*
X218650557Y-155457588D01*
X218554051Y-155268184D01*
X218554049Y-155268181D01*
X218554048Y-155268179D01*
X218429109Y-155096213D01*
X218278786Y-154945890D01*
X218106820Y-154820951D01*
X218106115Y-154820591D01*
X218098054Y-154816485D01*
X218047259Y-154768512D01*
X218030463Y-154700692D01*
X218052999Y-154634556D01*
X218098054Y-154595515D01*
X218106816Y-154591051D01*
X218189098Y-154531270D01*
X218278786Y-154466109D01*
X218278788Y-154466106D01*
X218278792Y-154466104D01*
X218429104Y-154315792D01*
X218429106Y-154315788D01*
X218429109Y-154315786D01*
X218554048Y-154143820D01*
X218554047Y-154143820D01*
X218554051Y-154143816D01*
X218650557Y-153954412D01*
X218716246Y-153752243D01*
X218749500Y-153542287D01*
X218749500Y-153329713D01*
X218716246Y-153119757D01*
X218650557Y-152917588D01*
X218554051Y-152728184D01*
X218554049Y-152728181D01*
X218554048Y-152728179D01*
X218429109Y-152556213D01*
X218278786Y-152405890D01*
X218106820Y-152280951D01*
X218106115Y-152280591D01*
X218098054Y-152276485D01*
X218047259Y-152228512D01*
X218030463Y-152160692D01*
X218052999Y-152094556D01*
X218098054Y-152055515D01*
X218106816Y-152051051D01*
X218175640Y-152001048D01*
X218278786Y-151926109D01*
X218278788Y-151926106D01*
X218278792Y-151926104D01*
X218429104Y-151775792D01*
X218429106Y-151775788D01*
X218429109Y-151775786D01*
X218554048Y-151603820D01*
X218554047Y-151603820D01*
X218554051Y-151603816D01*
X218650557Y-151414412D01*
X218716246Y-151212243D01*
X218749500Y-151002287D01*
X218749500Y-150789713D01*
X218716246Y-150579757D01*
X218650557Y-150377588D01*
X218554051Y-150188184D01*
X218554049Y-150188181D01*
X218554048Y-150188179D01*
X218429109Y-150016213D01*
X218278786Y-149865890D01*
X218106820Y-149740951D01*
X218106115Y-149740591D01*
X218098054Y-149736485D01*
X218047259Y-149688512D01*
X218030463Y-149620692D01*
X218052999Y-149554556D01*
X218098054Y-149515515D01*
X218106816Y-149511051D01*
X218175640Y-149461048D01*
X218278786Y-149386109D01*
X218278788Y-149386106D01*
X218278792Y-149386104D01*
X218429104Y-149235792D01*
X218429108Y-149235787D01*
X218429109Y-149235786D01*
X218554048Y-149063820D01*
X218554047Y-149063820D01*
X218554051Y-149063816D01*
X218650557Y-148874412D01*
X218716246Y-148672243D01*
X218749500Y-148462287D01*
X218749500Y-148249713D01*
X218716246Y-148039757D01*
X218650557Y-147837588D01*
X218554051Y-147648184D01*
X218554049Y-147648181D01*
X218554048Y-147648179D01*
X218429109Y-147476213D01*
X218278786Y-147325890D01*
X218106820Y-147200951D01*
X218099236Y-147197087D01*
X218098054Y-147196485D01*
X218047259Y-147148512D01*
X218030463Y-147080692D01*
X218052999Y-147014556D01*
X218098054Y-146975515D01*
X218106816Y-146971051D01*
X218138257Y-146948208D01*
X218278786Y-146846109D01*
X218278788Y-146846106D01*
X218278792Y-146846104D01*
X218429104Y-146695792D01*
X218429106Y-146695788D01*
X218429109Y-146695786D01*
X218554048Y-146523820D01*
X218554047Y-146523820D01*
X218554051Y-146523816D01*
X218650557Y-146334412D01*
X218716246Y-146132243D01*
X218749500Y-145922287D01*
X218749500Y-145709713D01*
X218716246Y-145499757D01*
X218650557Y-145297588D01*
X218554051Y-145108184D01*
X218554049Y-145108181D01*
X218554048Y-145108179D01*
X218429109Y-144936213D01*
X218278786Y-144785890D01*
X218106820Y-144660951D01*
X218106115Y-144660591D01*
X218098054Y-144656485D01*
X218047259Y-144608512D01*
X218030463Y-144540692D01*
X218052999Y-144474556D01*
X218098054Y-144435515D01*
X218106816Y-144431051D01*
X218174716Y-144381719D01*
X218278786Y-144306109D01*
X218278788Y-144306106D01*
X218278792Y-144306104D01*
X218429104Y-144155792D01*
X218429106Y-144155788D01*
X218429109Y-144155786D01*
X218554048Y-143983820D01*
X218554047Y-143983820D01*
X218554051Y-143983816D01*
X218650557Y-143794412D01*
X218716246Y-143592243D01*
X218749500Y-143382287D01*
X218749500Y-143169713D01*
X218716246Y-142959757D01*
X218650557Y-142757588D01*
X218554051Y-142568184D01*
X218554049Y-142568181D01*
X218554048Y-142568179D01*
X218429109Y-142396213D01*
X218278786Y-142245890D01*
X218106820Y-142120951D01*
X218106115Y-142120591D01*
X218098054Y-142116485D01*
X218047259Y-142068512D01*
X218030463Y-142000692D01*
X218052999Y-141934556D01*
X218098054Y-141895515D01*
X218106816Y-141891051D01*
X218175640Y-141841048D01*
X218278786Y-141766109D01*
X218278788Y-141766106D01*
X218278792Y-141766104D01*
X218429104Y-141615792D01*
X218429108Y-141615787D01*
X218429109Y-141615786D01*
X218554048Y-141443820D01*
X218554047Y-141443820D01*
X218554051Y-141443816D01*
X218650557Y-141254412D01*
X218716246Y-141052243D01*
X218749500Y-140842287D01*
X218749500Y-140629713D01*
X218716246Y-140419757D01*
X218650557Y-140217588D01*
X218554051Y-140028184D01*
X218554049Y-140028181D01*
X218554048Y-140028179D01*
X218429109Y-139856213D01*
X218278786Y-139705890D01*
X218106820Y-139580951D01*
X218106115Y-139580591D01*
X218098054Y-139576485D01*
X218047259Y-139528512D01*
X218030463Y-139460692D01*
X218052999Y-139394556D01*
X218098054Y-139355515D01*
X218106816Y-139351051D01*
X218184856Y-139294352D01*
X218278786Y-139226109D01*
X218278788Y-139226106D01*
X218278792Y-139226104D01*
X218429104Y-139075792D01*
X218429108Y-139075787D01*
X218429109Y-139075786D01*
X218554048Y-138903820D01*
X218554047Y-138903820D01*
X218554051Y-138903816D01*
X218650557Y-138714412D01*
X218716246Y-138512243D01*
X218749500Y-138302287D01*
X218749500Y-138089713D01*
X218716246Y-137879757D01*
X218650557Y-137677588D01*
X218554051Y-137488184D01*
X218554049Y-137488181D01*
X218554048Y-137488179D01*
X218429109Y-137316213D01*
X218278786Y-137165890D01*
X218106820Y-137040951D01*
X218106115Y-137040591D01*
X218098054Y-137036485D01*
X218047259Y-136988512D01*
X218030463Y-136920692D01*
X218052999Y-136854556D01*
X218098054Y-136815515D01*
X218106816Y-136811051D01*
X218208446Y-136737213D01*
X218278786Y-136686109D01*
X218278788Y-136686106D01*
X218278792Y-136686104D01*
X218429104Y-136535792D01*
X218429106Y-136535788D01*
X218429109Y-136535786D01*
X218544117Y-136377489D01*
X218554051Y-136363816D01*
X218650557Y-136174412D01*
X218716246Y-135972243D01*
X218749500Y-135762287D01*
X218749500Y-135549713D01*
X218716246Y-135339757D01*
X218650557Y-135137588D01*
X218554051Y-134948184D01*
X218554049Y-134948181D01*
X218554048Y-134948179D01*
X218429109Y-134776213D01*
X218278786Y-134625890D01*
X218106820Y-134500951D01*
X218106115Y-134500591D01*
X218098054Y-134496485D01*
X218047259Y-134448512D01*
X218030463Y-134380692D01*
X218052999Y-134314556D01*
X218098054Y-134275515D01*
X218106816Y-134271051D01*
X218175640Y-134221048D01*
X218278786Y-134146109D01*
X218278788Y-134146106D01*
X218278792Y-134146104D01*
X218429104Y-133995792D01*
X218429108Y-133995787D01*
X218429109Y-133995786D01*
X218554048Y-133823820D01*
X218554047Y-133823820D01*
X218554051Y-133823816D01*
X218650557Y-133634412D01*
X218716246Y-133432243D01*
X218749500Y-133222287D01*
X218749500Y-133009713D01*
X218716246Y-132799757D01*
X218650557Y-132597588D01*
X218554051Y-132408184D01*
X218554049Y-132408181D01*
X218554048Y-132408179D01*
X218429109Y-132236213D01*
X218278786Y-132085890D01*
X218106820Y-131960951D01*
X218106115Y-131960591D01*
X218098054Y-131956485D01*
X218047259Y-131908512D01*
X218030463Y-131840692D01*
X218052999Y-131774556D01*
X218098054Y-131735515D01*
X218106816Y-131731051D01*
X218175640Y-131681048D01*
X218278786Y-131606109D01*
X218278788Y-131606106D01*
X218278792Y-131606104D01*
X218429104Y-131455792D01*
X218429106Y-131455788D01*
X218429109Y-131455786D01*
X218554048Y-131283820D01*
X218554047Y-131283820D01*
X218554051Y-131283816D01*
X218650557Y-131094412D01*
X218716246Y-130892243D01*
X218749500Y-130682287D01*
X218749500Y-130469713D01*
X218716246Y-130259757D01*
X218650557Y-130057588D01*
X218554051Y-129868184D01*
X218554049Y-129868181D01*
X218554048Y-129868179D01*
X218429109Y-129696213D01*
X218278786Y-129545890D01*
X218106820Y-129420951D01*
X218103448Y-129419233D01*
X218098054Y-129416485D01*
X218047259Y-129368512D01*
X218030463Y-129300692D01*
X218052999Y-129234556D01*
X218098054Y-129195515D01*
X218106816Y-129191051D01*
X218134348Y-129171048D01*
X218278786Y-129066109D01*
X218278788Y-129066106D01*
X218278792Y-129066104D01*
X218429104Y-128915792D01*
X218429108Y-128915787D01*
X218429109Y-128915786D01*
X218554048Y-128743820D01*
X218554047Y-128743820D01*
X218554051Y-128743816D01*
X218650557Y-128554412D01*
X218716246Y-128352243D01*
X218749500Y-128142287D01*
X218749500Y-127929713D01*
X218716246Y-127719757D01*
X218650557Y-127517588D01*
X218554051Y-127328184D01*
X218554049Y-127328181D01*
X218554048Y-127328179D01*
X218429109Y-127156213D01*
X218315569Y-127042673D01*
X218282084Y-126981350D01*
X218287068Y-126911658D01*
X218328940Y-126855725D01*
X218359915Y-126838810D01*
X218491331Y-126789796D01*
X218606546Y-126703546D01*
X218692796Y-126588331D01*
X218743091Y-126453483D01*
X218749500Y-126393873D01*
X218749499Y-125339713D01*
X241956500Y-125339713D01*
X241956500Y-125552286D01*
X241986488Y-125741626D01*
X241989754Y-125762243D01*
X242044749Y-125931500D01*
X242055444Y-125964414D01*
X242151951Y-126153820D01*
X242276890Y-126325786D01*
X242427213Y-126476109D01*
X242599182Y-126601050D01*
X242607946Y-126605516D01*
X242658742Y-126653491D01*
X242675536Y-126721312D01*
X242652998Y-126787447D01*
X242607946Y-126826484D01*
X242599182Y-126830949D01*
X242427213Y-126955890D01*
X242276890Y-127106213D01*
X242151951Y-127278179D01*
X242055444Y-127467585D01*
X241989753Y-127669760D01*
X241956500Y-127879713D01*
X241956500Y-128092286D01*
X241987262Y-128286514D01*
X241989754Y-128302243D01*
X241999500Y-128332239D01*
X242055444Y-128504414D01*
X242151951Y-128693820D01*
X242276890Y-128865786D01*
X242427213Y-129016109D01*
X242599182Y-129141050D01*
X242607946Y-129145516D01*
X242658742Y-129193491D01*
X242675536Y-129261312D01*
X242652998Y-129327447D01*
X242607946Y-129366484D01*
X242599182Y-129370949D01*
X242427213Y-129495890D01*
X242276890Y-129646213D01*
X242151951Y-129818179D01*
X242055444Y-130007585D01*
X241989753Y-130209760D01*
X241956500Y-130419713D01*
X241956500Y-130632286D01*
X241986796Y-130823571D01*
X241989754Y-130842243D01*
X242040835Y-130999454D01*
X242055444Y-131044414D01*
X242151951Y-131233820D01*
X242276890Y-131405786D01*
X242427213Y-131556109D01*
X242599182Y-131681050D01*
X242607946Y-131685516D01*
X242658742Y-131733491D01*
X242675536Y-131801312D01*
X242652998Y-131867447D01*
X242607946Y-131906484D01*
X242599182Y-131910949D01*
X242427213Y-132035890D01*
X242276890Y-132186213D01*
X242151951Y-132358179D01*
X242055444Y-132547585D01*
X241989753Y-132749760D01*
X241956500Y-132959713D01*
X241956500Y-133172286D01*
X241976622Y-133299335D01*
X241989754Y-133382243D01*
X242046698Y-133557499D01*
X242055444Y-133584414D01*
X242151951Y-133773820D01*
X242276890Y-133945786D01*
X242427213Y-134096109D01*
X242599182Y-134221050D01*
X242607946Y-134225516D01*
X242658742Y-134273491D01*
X242675536Y-134341312D01*
X242652998Y-134407447D01*
X242607946Y-134446484D01*
X242599182Y-134450949D01*
X242427213Y-134575890D01*
X242276890Y-134726213D01*
X242151951Y-134898179D01*
X242055444Y-135087585D01*
X241989753Y-135289760D01*
X241956500Y-135499713D01*
X241956500Y-135712286D01*
X241976583Y-135839089D01*
X241989754Y-135922243D01*
X242029170Y-136043553D01*
X242055444Y-136124414D01*
X242151951Y-136313820D01*
X242276890Y-136485786D01*
X242427213Y-136636109D01*
X242599182Y-136761050D01*
X242607946Y-136765516D01*
X242658742Y-136813491D01*
X242675536Y-136881312D01*
X242652998Y-136947447D01*
X242607946Y-136986484D01*
X242599182Y-136990949D01*
X242427213Y-137115890D01*
X242276890Y-137266213D01*
X242151951Y-137438179D01*
X242055444Y-137627585D01*
X241989753Y-137829760D01*
X241956500Y-138039713D01*
X241956500Y-138252286D01*
X241976583Y-138379089D01*
X241989754Y-138462243D01*
X242012623Y-138532627D01*
X242055444Y-138664414D01*
X242151951Y-138853820D01*
X242276890Y-139025786D01*
X242427213Y-139176109D01*
X242599182Y-139301050D01*
X242607946Y-139305516D01*
X242658742Y-139353491D01*
X242675536Y-139421312D01*
X242652998Y-139487447D01*
X242607946Y-139526484D01*
X242599182Y-139530949D01*
X242427213Y-139655890D01*
X242276890Y-139806213D01*
X242151951Y-139978179D01*
X242055444Y-140167585D01*
X242055443Y-140167587D01*
X242055443Y-140167588D01*
X242046895Y-140193896D01*
X241989753Y-140369760D01*
X241956500Y-140579713D01*
X241956500Y-140792286D01*
X241976583Y-140919089D01*
X241989754Y-141002243D01*
X241999500Y-141032239D01*
X242055444Y-141204414D01*
X242151951Y-141393820D01*
X242276890Y-141565786D01*
X242427213Y-141716109D01*
X242599182Y-141841050D01*
X242607946Y-141845516D01*
X242658742Y-141893491D01*
X242675536Y-141961312D01*
X242652998Y-142027447D01*
X242607946Y-142066484D01*
X242599182Y-142070949D01*
X242427213Y-142195890D01*
X242276890Y-142346213D01*
X242151951Y-142518179D01*
X242055444Y-142707585D01*
X241989753Y-142909760D01*
X241956500Y-143119713D01*
X241956500Y-143332286D01*
X241985872Y-143517738D01*
X241989754Y-143542243D01*
X242053998Y-143739966D01*
X242055444Y-143744414D01*
X242151951Y-143933820D01*
X242276890Y-144105786D01*
X242427213Y-144256109D01*
X242599182Y-144381050D01*
X242607946Y-144385516D01*
X242658742Y-144433491D01*
X242675536Y-144501312D01*
X242652998Y-144567447D01*
X242607946Y-144606484D01*
X242599182Y-144610949D01*
X242427213Y-144735890D01*
X242276890Y-144886213D01*
X242151951Y-145058179D01*
X242055444Y-145247585D01*
X241989753Y-145449760D01*
X241981834Y-145499760D01*
X241956500Y-145659713D01*
X241956500Y-145872287D01*
X241989754Y-146082243D01*
X242037597Y-146229489D01*
X242055444Y-146284414D01*
X242151951Y-146473820D01*
X242276890Y-146645786D01*
X242427213Y-146796109D01*
X242599182Y-146921050D01*
X242607946Y-146925516D01*
X242658742Y-146973491D01*
X242675536Y-147041312D01*
X242652998Y-147107447D01*
X242607946Y-147146484D01*
X242599182Y-147150949D01*
X242427213Y-147275890D01*
X242276890Y-147426213D01*
X242151951Y-147598179D01*
X242055444Y-147787585D01*
X241989753Y-147989760D01*
X241956500Y-148199713D01*
X241956500Y-148412286D01*
X241987895Y-148610510D01*
X241989754Y-148622243D01*
X242036883Y-148767291D01*
X242055444Y-148824414D01*
X242151951Y-149013820D01*
X242276890Y-149185786D01*
X242427213Y-149336109D01*
X242599182Y-149461050D01*
X242607946Y-149465516D01*
X242658742Y-149513491D01*
X242675536Y-149581312D01*
X242652998Y-149647447D01*
X242607946Y-149686484D01*
X242599182Y-149690949D01*
X242427213Y-149815890D01*
X242276890Y-149966213D01*
X242151951Y-150138179D01*
X242055444Y-150327585D01*
X241989753Y-150529760D01*
X241956500Y-150739713D01*
X241956500Y-150952286D01*
X241986739Y-151143211D01*
X241989754Y-151162243D01*
X242051413Y-151352010D01*
X242055444Y-151364414D01*
X242151951Y-151553820D01*
X242276890Y-151725786D01*
X242427213Y-151876109D01*
X242599182Y-152001050D01*
X242607946Y-152005516D01*
X242658742Y-152053491D01*
X242675536Y-152121312D01*
X242652998Y-152187447D01*
X242607946Y-152226484D01*
X242599182Y-152230949D01*
X242427213Y-152355890D01*
X242276890Y-152506213D01*
X242151951Y-152678179D01*
X242055444Y-152867585D01*
X241989753Y-153069760D01*
X241956500Y-153279713D01*
X241956500Y-153492286D01*
X241987162Y-153685882D01*
X241989754Y-153702243D01*
X242048136Y-153881925D01*
X242055444Y-153904414D01*
X242151951Y-154093820D01*
X242276890Y-154265786D01*
X242427213Y-154416109D01*
X242599182Y-154541050D01*
X242607946Y-154545516D01*
X242658742Y-154593491D01*
X242675536Y-154661312D01*
X242652998Y-154727447D01*
X242607946Y-154766484D01*
X242599182Y-154770949D01*
X242427213Y-154895890D01*
X242276890Y-155046213D01*
X242151951Y-155218179D01*
X242055444Y-155407585D01*
X241989753Y-155609760D01*
X241961167Y-155790249D01*
X241956500Y-155819713D01*
X241956500Y-156032287D01*
X241989754Y-156242243D01*
X242053743Y-156439181D01*
X242055444Y-156444414D01*
X242151951Y-156633820D01*
X242276890Y-156805786D01*
X242427213Y-156956109D01*
X242599182Y-157081050D01*
X242607946Y-157085516D01*
X242658742Y-157133491D01*
X242675536Y-157201312D01*
X242652998Y-157267447D01*
X242607946Y-157306484D01*
X242599182Y-157310949D01*
X242427213Y-157435890D01*
X242276890Y-157586213D01*
X242151951Y-157758179D01*
X242055444Y-157947585D01*
X241989753Y-158149760D01*
X241956500Y-158359713D01*
X241956500Y-158572286D01*
X241979300Y-158716243D01*
X241989754Y-158782243D01*
X242033998Y-158918412D01*
X242055444Y-158984414D01*
X242151951Y-159173820D01*
X242276890Y-159345786D01*
X242390430Y-159459326D01*
X242423915Y-159520649D01*
X242418931Y-159590341D01*
X242377059Y-159646274D01*
X242346083Y-159663189D01*
X242214669Y-159712203D01*
X242214664Y-159712206D01*
X242099455Y-159798452D01*
X242099452Y-159798455D01*
X242013206Y-159913664D01*
X242013202Y-159913671D01*
X241962908Y-160048517D01*
X241956501Y-160108116D01*
X241956501Y-160108123D01*
X241956500Y-160108135D01*
X241956500Y-161903870D01*
X241956501Y-161903876D01*
X241962908Y-161963483D01*
X242013202Y-162098328D01*
X242013206Y-162098335D01*
X242099452Y-162213544D01*
X242099455Y-162213547D01*
X242214664Y-162299793D01*
X242214671Y-162299797D01*
X242349517Y-162350091D01*
X242349516Y-162350091D01*
X242356444Y-162350835D01*
X242409127Y-162356500D01*
X244204872Y-162356499D01*
X244264483Y-162350091D01*
X244399331Y-162299796D01*
X244514546Y-162213546D01*
X244600796Y-162098331D01*
X244651091Y-161963483D01*
X244657500Y-161903873D01*
X244657499Y-160108128D01*
X244651091Y-160048517D01*
X244611985Y-159943669D01*
X244600797Y-159913671D01*
X244600793Y-159913664D01*
X244514547Y-159798455D01*
X244514544Y-159798452D01*
X244399335Y-159712206D01*
X244399328Y-159712202D01*
X244267917Y-159663189D01*
X244211983Y-159621318D01*
X244187566Y-159555853D01*
X244202418Y-159487580D01*
X244223563Y-159459332D01*
X244337104Y-159345792D01*
X244385056Y-159279792D01*
X244462048Y-159173820D01*
X244462047Y-159173820D01*
X244462051Y-159173816D01*
X244558557Y-158984412D01*
X244624246Y-158782243D01*
X244657500Y-158572287D01*
X244657500Y-158359713D01*
X244624246Y-158149757D01*
X244558557Y-157947588D01*
X244462051Y-157758184D01*
X244462049Y-157758181D01*
X244462048Y-157758179D01*
X244337109Y-157586213D01*
X244186786Y-157435890D01*
X244014820Y-157310951D01*
X244008386Y-157307673D01*
X244006054Y-157306485D01*
X243955259Y-157258512D01*
X243938463Y-157190692D01*
X243960999Y-157124556D01*
X244006054Y-157085515D01*
X244014816Y-157081051D01*
X244058243Y-157049500D01*
X244186786Y-156956109D01*
X244186788Y-156956106D01*
X244186792Y-156956104D01*
X244337104Y-156805792D01*
X244337106Y-156805788D01*
X244337109Y-156805786D01*
X244462048Y-156633820D01*
X244462047Y-156633820D01*
X244462051Y-156633816D01*
X244558557Y-156444412D01*
X244624246Y-156242243D01*
X244657500Y-156032287D01*
X244657500Y-155819713D01*
X244624246Y-155609757D01*
X244558557Y-155407588D01*
X244462051Y-155218184D01*
X244462049Y-155218181D01*
X244462048Y-155218179D01*
X244337109Y-155046213D01*
X244186786Y-154895890D01*
X244014820Y-154770951D01*
X244010033Y-154768512D01*
X244006054Y-154766485D01*
X243955259Y-154718512D01*
X243938463Y-154650692D01*
X243960999Y-154584556D01*
X244006054Y-154545515D01*
X244014816Y-154541051D01*
X244117966Y-154466109D01*
X244186786Y-154416109D01*
X244186788Y-154416106D01*
X244186792Y-154416104D01*
X244337104Y-154265792D01*
X244337106Y-154265788D01*
X244337109Y-154265786D01*
X244462048Y-154093820D01*
X244462047Y-154093820D01*
X244462051Y-154093816D01*
X244558557Y-153904412D01*
X244624246Y-153702243D01*
X244657500Y-153492287D01*
X244657500Y-153279713D01*
X244624246Y-153069757D01*
X244558557Y-152867588D01*
X244462051Y-152678184D01*
X244462049Y-152678181D01*
X244462048Y-152678179D01*
X244337109Y-152506213D01*
X244186786Y-152355890D01*
X244014820Y-152230951D01*
X244010033Y-152228512D01*
X244006054Y-152226485D01*
X243955259Y-152178512D01*
X243938463Y-152110692D01*
X243960999Y-152044556D01*
X244006054Y-152005515D01*
X244014816Y-152001051D01*
X244117966Y-151926109D01*
X244186786Y-151876109D01*
X244186788Y-151876106D01*
X244186792Y-151876104D01*
X244337104Y-151725792D01*
X244357577Y-151697613D01*
X244412906Y-151654949D01*
X244457894Y-151646500D01*
X246223310Y-151646500D01*
X246290349Y-151666185D01*
X246323629Y-151697616D01*
X246365892Y-151755788D01*
X246516213Y-151906109D01*
X246688182Y-152031050D01*
X246696946Y-152035516D01*
X246747742Y-152083491D01*
X246764536Y-152151312D01*
X246741998Y-152217447D01*
X246696946Y-152256484D01*
X246688182Y-152260949D01*
X246516213Y-152385890D01*
X246365890Y-152536213D01*
X246240951Y-152708179D01*
X246144444Y-152897585D01*
X246078753Y-153099760D01*
X246045500Y-153309713D01*
X246045500Y-153522287D01*
X246078754Y-153732243D01*
X246134695Y-153904412D01*
X246144444Y-153934414D01*
X246240951Y-154123820D01*
X246365890Y-154295786D01*
X246516213Y-154446109D01*
X246688182Y-154571050D01*
X246696946Y-154575516D01*
X246747742Y-154623491D01*
X246764536Y-154691312D01*
X246741998Y-154757447D01*
X246696946Y-154796484D01*
X246688182Y-154800949D01*
X246516213Y-154925890D01*
X246365890Y-155076213D01*
X246240951Y-155248179D01*
X246144444Y-155437585D01*
X246078753Y-155639760D01*
X246045500Y-155849713D01*
X246045500Y-156062286D01*
X246073325Y-156237970D01*
X246078754Y-156272243D01*
X246134695Y-156444412D01*
X246144444Y-156474414D01*
X246240951Y-156663820D01*
X246365890Y-156835786D01*
X246516213Y-156986109D01*
X246688182Y-157111050D01*
X246696946Y-157115516D01*
X246747742Y-157163491D01*
X246764536Y-157231312D01*
X246741998Y-157297447D01*
X246696946Y-157336484D01*
X246688182Y-157340949D01*
X246516213Y-157465890D01*
X246365890Y-157616213D01*
X246240951Y-157788179D01*
X246144444Y-157977585D01*
X246078753Y-158179760D01*
X246045500Y-158389713D01*
X246045500Y-158602287D01*
X246048668Y-158622286D01*
X246076830Y-158800099D01*
X246078754Y-158812243D01*
X246134695Y-158984412D01*
X246144444Y-159014414D01*
X246240951Y-159203820D01*
X246365890Y-159375786D01*
X246479430Y-159489326D01*
X246512915Y-159550649D01*
X246507931Y-159620341D01*
X246466059Y-159676274D01*
X246435083Y-159693189D01*
X246303669Y-159742203D01*
X246303664Y-159742206D01*
X246188455Y-159828452D01*
X246188452Y-159828455D01*
X246102206Y-159943664D01*
X246102202Y-159943671D01*
X246051908Y-160078517D01*
X246046210Y-160131522D01*
X246045501Y-160138123D01*
X246045500Y-160138135D01*
X246045500Y-161933870D01*
X246045501Y-161933876D01*
X246051908Y-161993483D01*
X246102202Y-162128328D01*
X246102206Y-162128335D01*
X246188452Y-162243544D01*
X246188455Y-162243547D01*
X246303664Y-162329793D01*
X246303671Y-162329797D01*
X246438517Y-162380091D01*
X246438516Y-162380091D01*
X246445444Y-162380835D01*
X246498127Y-162386500D01*
X248293872Y-162386499D01*
X248353483Y-162380091D01*
X248488331Y-162329796D01*
X248603546Y-162243546D01*
X248689796Y-162128331D01*
X248740091Y-161993483D01*
X248746500Y-161933873D01*
X248746499Y-161036000D01*
X248746499Y-160367783D01*
X248746499Y-160138129D01*
X248746498Y-160138123D01*
X248746497Y-160138116D01*
X248740091Y-160078517D01*
X248728901Y-160048516D01*
X248689797Y-159943671D01*
X248689793Y-159943664D01*
X248603547Y-159828455D01*
X248603544Y-159828452D01*
X248488335Y-159742206D01*
X248488328Y-159742202D01*
X248356917Y-159693189D01*
X248300983Y-159651318D01*
X248276566Y-159585853D01*
X248291418Y-159517580D01*
X248312563Y-159489332D01*
X248426104Y-159375792D01*
X248447905Y-159345786D01*
X248551048Y-159203820D01*
X248551047Y-159203820D01*
X248551051Y-159203816D01*
X248647557Y-159014412D01*
X248713246Y-158812243D01*
X248746500Y-158602287D01*
X248746500Y-158389713D01*
X248741051Y-158355312D01*
X248750005Y-158286020D01*
X248775840Y-158248236D01*
X249469259Y-157554819D01*
X249530582Y-157521334D01*
X249556940Y-157518500D01*
X252980663Y-157518500D01*
X253047702Y-157538185D01*
X253068344Y-157554818D01*
X253185354Y-157671828D01*
X253344595Y-157787524D01*
X253385133Y-157808179D01*
X253519970Y-157876882D01*
X253519972Y-157876882D01*
X253519975Y-157876884D01*
X253620317Y-157909487D01*
X253707173Y-157937709D01*
X253901578Y-157968500D01*
X253901583Y-157968500D01*
X254098422Y-157968500D01*
X254292826Y-157937709D01*
X254304010Y-157934075D01*
X254480025Y-157876884D01*
X254655405Y-157787524D01*
X254814646Y-157671828D01*
X254953828Y-157532646D01*
X255069524Y-157373405D01*
X255158884Y-157198025D01*
X255219709Y-157010826D01*
X255228376Y-156956104D01*
X255250500Y-156816422D01*
X255250500Y-156619577D01*
X255219709Y-156425173D01*
X255170017Y-156272239D01*
X255158884Y-156237975D01*
X255158882Y-156237972D01*
X255158882Y-156237970D01*
X255097756Y-156118004D01*
X255069524Y-156062595D01*
X254953828Y-155903354D01*
X254814646Y-155764172D01*
X254655405Y-155648476D01*
X254638293Y-155639757D01*
X254480029Y-155559117D01*
X254292826Y-155498290D01*
X254098422Y-155467500D01*
X254098417Y-155467500D01*
X253901583Y-155467500D01*
X253901578Y-155467500D01*
X253707173Y-155498290D01*
X253519970Y-155559117D01*
X253344594Y-155648476D01*
X253185355Y-155764171D01*
X253068344Y-155881182D01*
X253007021Y-155914666D01*
X252980663Y-155917500D01*
X249095153Y-155917500D01*
X248940510Y-155948260D01*
X248940498Y-155948263D01*
X248917812Y-155957660D01*
X248848342Y-155965127D01*
X248785864Y-155933851D01*
X248750213Y-155873761D01*
X248746744Y-155852822D01*
X248746500Y-155849719D01*
X248746500Y-155849713D01*
X248713246Y-155639757D01*
X248647557Y-155437588D01*
X248551051Y-155248184D01*
X248551049Y-155248181D01*
X248551048Y-155248179D01*
X248426109Y-155076213D01*
X248275786Y-154925890D01*
X248103820Y-154800951D01*
X248103115Y-154800591D01*
X248095054Y-154796485D01*
X248044259Y-154748512D01*
X248027463Y-154680692D01*
X248049999Y-154614556D01*
X248095054Y-154575515D01*
X248103816Y-154571051D01*
X248190138Y-154508335D01*
X248275786Y-154446109D01*
X248275788Y-154446106D01*
X248275792Y-154446104D01*
X248426104Y-154295792D01*
X248426106Y-154295788D01*
X248426109Y-154295786D01*
X248549902Y-154125397D01*
X248551051Y-154123816D01*
X248647557Y-153934412D01*
X248713246Y-153732243D01*
X248746500Y-153522287D01*
X248746500Y-153309713D01*
X248713246Y-153099757D01*
X248647557Y-152897588D01*
X248551051Y-152708184D01*
X248551049Y-152708181D01*
X248551048Y-152708179D01*
X248426109Y-152536213D01*
X248275786Y-152385890D01*
X248103820Y-152260951D01*
X248103115Y-152260591D01*
X248095054Y-152256485D01*
X248044259Y-152208512D01*
X248027463Y-152140692D01*
X248049999Y-152074556D01*
X248095054Y-152035515D01*
X248103816Y-152031051D01*
X248145112Y-152001048D01*
X248275786Y-151906109D01*
X248275788Y-151906106D01*
X248275792Y-151906104D01*
X248426104Y-151755792D01*
X248426106Y-151755788D01*
X248426109Y-151755786D01*
X248551048Y-151583820D01*
X248551047Y-151583820D01*
X248551051Y-151583816D01*
X248647557Y-151394412D01*
X248713246Y-151192243D01*
X248746500Y-150982287D01*
X248746500Y-150769713D01*
X248713246Y-150559757D01*
X248647557Y-150357588D01*
X248551051Y-150168184D01*
X248551049Y-150168181D01*
X248551048Y-150168179D01*
X248426109Y-149996213D01*
X248275786Y-149845890D01*
X248103820Y-149720951D01*
X248103115Y-149720591D01*
X248095054Y-149716485D01*
X248044259Y-149668512D01*
X248027463Y-149600692D01*
X248049999Y-149534556D01*
X248095054Y-149495515D01*
X248103816Y-149491051D01*
X248145112Y-149461048D01*
X248275786Y-149366109D01*
X248275788Y-149366106D01*
X248275792Y-149366104D01*
X248426104Y-149215792D01*
X248426106Y-149215788D01*
X248426109Y-149215786D01*
X248551048Y-149043820D01*
X248551047Y-149043820D01*
X248551051Y-149043816D01*
X248647557Y-148854412D01*
X248713246Y-148652243D01*
X248746500Y-148442287D01*
X248746500Y-148229713D01*
X248713246Y-148019757D01*
X248647557Y-147817588D01*
X248551051Y-147628184D01*
X248551049Y-147628181D01*
X248551048Y-147628179D01*
X248426109Y-147456213D01*
X248275786Y-147305890D01*
X248103820Y-147180951D01*
X248103115Y-147180591D01*
X248095054Y-147176485D01*
X248044259Y-147128512D01*
X248027463Y-147060692D01*
X248049999Y-146994556D01*
X248095054Y-146955515D01*
X248103816Y-146951051D01*
X248145112Y-146921048D01*
X248275786Y-146826109D01*
X248275788Y-146826106D01*
X248275792Y-146826104D01*
X248426104Y-146675792D01*
X248426106Y-146675788D01*
X248426109Y-146675786D01*
X248551048Y-146503820D01*
X248551047Y-146503820D01*
X248551051Y-146503816D01*
X248647557Y-146314412D01*
X248713246Y-146112243D01*
X248746500Y-145902287D01*
X248746500Y-145689713D01*
X248713246Y-145479757D01*
X248647557Y-145277588D01*
X248551051Y-145088184D01*
X248551049Y-145088181D01*
X248551048Y-145088179D01*
X248426109Y-144916213D01*
X248275786Y-144765890D01*
X248103820Y-144640951D01*
X248103115Y-144640591D01*
X248095054Y-144636485D01*
X248044259Y-144588512D01*
X248027463Y-144520692D01*
X248049999Y-144454556D01*
X248095054Y-144415515D01*
X248103816Y-144411051D01*
X248144188Y-144381719D01*
X248275786Y-144286109D01*
X248275788Y-144286106D01*
X248275792Y-144286104D01*
X248426104Y-144135792D01*
X248426106Y-144135788D01*
X248426109Y-144135786D01*
X248551048Y-143963820D01*
X248551047Y-143963820D01*
X248551051Y-143963816D01*
X248647557Y-143774412D01*
X248713246Y-143572243D01*
X248746500Y-143362287D01*
X248746500Y-143149713D01*
X248741051Y-143115312D01*
X248750005Y-143046020D01*
X248775840Y-143008236D01*
X251181822Y-140602255D01*
X251243141Y-140568773D01*
X251312833Y-140573757D01*
X251357180Y-140602258D01*
X258823707Y-148068786D01*
X258823711Y-148068789D01*
X258954814Y-148156390D01*
X258954827Y-148156397D01*
X259059403Y-148199713D01*
X259100503Y-148216737D01*
X259255153Y-148247499D01*
X259255156Y-148247500D01*
X259255158Y-148247500D01*
X259412842Y-148247500D01*
X260346663Y-148247500D01*
X260413702Y-148267185D01*
X260434344Y-148283818D01*
X260551354Y-148400828D01*
X260710595Y-148516524D01*
X260748466Y-148535820D01*
X260887213Y-148606515D01*
X260938009Y-148654489D01*
X260954804Y-148722310D01*
X260932267Y-148788445D01*
X260887213Y-148827485D01*
X260710594Y-148917476D01*
X260620930Y-148982622D01*
X260551354Y-149033172D01*
X260551352Y-149033174D01*
X260551351Y-149033174D01*
X260412174Y-149172351D01*
X260412174Y-149172352D01*
X260412172Y-149172354D01*
X260366086Y-149235786D01*
X260296476Y-149331594D01*
X260207117Y-149506970D01*
X260146290Y-149694173D01*
X260115500Y-149888577D01*
X260115500Y-150085422D01*
X260146290Y-150279826D01*
X260207117Y-150467029D01*
X260264555Y-150579757D01*
X260296476Y-150642405D01*
X260412172Y-150801646D01*
X260551354Y-150940828D01*
X260710595Y-151056524D01*
X260831257Y-151118004D01*
X260887213Y-151146515D01*
X260938009Y-151194489D01*
X260954804Y-151262310D01*
X260932267Y-151328445D01*
X260887213Y-151367485D01*
X260710594Y-151457476D01*
X260619741Y-151523485D01*
X260551354Y-151573172D01*
X260551352Y-151573174D01*
X260551351Y-151573174D01*
X260412174Y-151712351D01*
X260412174Y-151712352D01*
X260412172Y-151712354D01*
X260386554Y-151747614D01*
X260296476Y-151871594D01*
X260207117Y-152046970D01*
X260146290Y-152234173D01*
X260115500Y-152428577D01*
X260115500Y-152625422D01*
X260146290Y-152819826D01*
X260207117Y-153007029D01*
X260259071Y-153108993D01*
X260296476Y-153182405D01*
X260412172Y-153341646D01*
X260551354Y-153480828D01*
X260710595Y-153596524D01*
X260793455Y-153638743D01*
X260885970Y-153685882D01*
X260885972Y-153685882D01*
X260885975Y-153685884D01*
X260936323Y-153702243D01*
X261073173Y-153746709D01*
X261267578Y-153777500D01*
X261267583Y-153777500D01*
X261464422Y-153777500D01*
X261658826Y-153746709D01*
X261846025Y-153685884D01*
X262021405Y-153596524D01*
X262180646Y-153480828D01*
X262319828Y-153341646D01*
X262435524Y-153182405D01*
X262524884Y-153007025D01*
X262585709Y-152819826D01*
X262594781Y-152762548D01*
X262616500Y-152625422D01*
X262616500Y-152428577D01*
X262585709Y-152234173D01*
X262549328Y-152122206D01*
X262524884Y-152046975D01*
X262524882Y-152046972D01*
X262524882Y-152046970D01*
X262463300Y-151926109D01*
X262435524Y-151871595D01*
X262319828Y-151712354D01*
X262180646Y-151573172D01*
X262101025Y-151515324D01*
X262021403Y-151457474D01*
X261844787Y-151367485D01*
X261793990Y-151319511D01*
X261777195Y-151251690D01*
X261799732Y-151185555D01*
X261844787Y-151146515D01*
X262021403Y-151056525D01*
X262021402Y-151056525D01*
X262021405Y-151056524D01*
X262180646Y-150940828D01*
X262319828Y-150801646D01*
X262435524Y-150642405D01*
X262524884Y-150467025D01*
X262585709Y-150279826D01*
X262598043Y-150201951D01*
X262616500Y-150085422D01*
X262616500Y-149888577D01*
X262585709Y-149694173D01*
X262536749Y-149543491D01*
X262524884Y-149506975D01*
X262524882Y-149506972D01*
X262524882Y-149506970D01*
X262463300Y-149386109D01*
X262435524Y-149331595D01*
X262319828Y-149172354D01*
X262180646Y-149033172D01*
X262101025Y-148975324D01*
X262021403Y-148917474D01*
X261844787Y-148827485D01*
X261793990Y-148779511D01*
X261777195Y-148711690D01*
X261799732Y-148645555D01*
X261844787Y-148606515D01*
X262021403Y-148516525D01*
X262021402Y-148516525D01*
X262021405Y-148516524D01*
X262180646Y-148400828D01*
X262319828Y-148261646D01*
X262435524Y-148102405D01*
X262524884Y-147927025D01*
X262585709Y-147739826D01*
X262590654Y-147708605D01*
X262616500Y-147545422D01*
X262616500Y-147348577D01*
X262585709Y-147154173D01*
X262536412Y-147002454D01*
X262524884Y-146966975D01*
X262524882Y-146966972D01*
X262524882Y-146966970D01*
X262477743Y-146874455D01*
X262435524Y-146791595D01*
X262319828Y-146632354D01*
X262180646Y-146493172D01*
X262026692Y-146381317D01*
X261984028Y-146325988D01*
X261978049Y-146256374D01*
X262010655Y-146194579D01*
X262071494Y-146160222D01*
X262099579Y-146157000D01*
X262163828Y-146157000D01*
X262163844Y-146156999D01*
X262223372Y-146150598D01*
X262223379Y-146150596D01*
X262358086Y-146100354D01*
X262358093Y-146100350D01*
X262473187Y-146014190D01*
X262473190Y-146014187D01*
X262559350Y-145899093D01*
X262559354Y-145899086D01*
X262609596Y-145764379D01*
X262609598Y-145764372D01*
X262615999Y-145704841D01*
X262616000Y-145704827D01*
X262616000Y-145157000D01*
X261681686Y-145157000D01*
X261686080Y-145152606D01*
X261738741Y-145061394D01*
X261766000Y-144959661D01*
X261766000Y-144854339D01*
X261738741Y-144752606D01*
X261686080Y-144661394D01*
X261681686Y-144657000D01*
X262616000Y-144657000D01*
X262616000Y-144109172D01*
X262615999Y-144109155D01*
X262609598Y-144049627D01*
X262609596Y-144049620D01*
X262559354Y-143914913D01*
X262559350Y-143914906D01*
X262473190Y-143799812D01*
X262473187Y-143799809D01*
X262358093Y-143713649D01*
X262358086Y-143713645D01*
X262223379Y-143663403D01*
X262223372Y-143663401D01*
X262163844Y-143657000D01*
X261616000Y-143657000D01*
X261616000Y-144591314D01*
X261611606Y-144586920D01*
X261520394Y-144534259D01*
X261418661Y-144507000D01*
X261313339Y-144507000D01*
X261211606Y-144534259D01*
X261120394Y-144586920D01*
X261116000Y-144591314D01*
X261116000Y-143657000D01*
X260568155Y-143657000D01*
X260508627Y-143663401D01*
X260508620Y-143663403D01*
X260373913Y-143713645D01*
X260373906Y-143713649D01*
X260258812Y-143799809D01*
X260258809Y-143799812D01*
X260172649Y-143914906D01*
X260172645Y-143914913D01*
X260122403Y-144049620D01*
X260122401Y-144049627D01*
X260116000Y-144109155D01*
X260116000Y-144657000D01*
X261050314Y-144657000D01*
X261045920Y-144661394D01*
X260993259Y-144752606D01*
X260966000Y-144854339D01*
X260966000Y-144959661D01*
X260993259Y-145061394D01*
X261045920Y-145152606D01*
X261050314Y-145157000D01*
X260116000Y-145157000D01*
X260116000Y-145704827D01*
X260116001Y-145704841D01*
X260122401Y-145764372D01*
X260122403Y-145764379D01*
X260172645Y-145899086D01*
X260172649Y-145899093D01*
X260258809Y-146014187D01*
X260258812Y-146014190D01*
X260373906Y-146100350D01*
X260373913Y-146100354D01*
X260508620Y-146150596D01*
X260508627Y-146150598D01*
X260568155Y-146156999D01*
X260568172Y-146157000D01*
X260632421Y-146157000D01*
X260699460Y-146176685D01*
X260745215Y-146229489D01*
X260755159Y-146298647D01*
X260726134Y-146362203D01*
X260705307Y-146381318D01*
X260551355Y-146493171D01*
X260434344Y-146610182D01*
X260373021Y-146643666D01*
X260346663Y-146646500D01*
X259716940Y-146646500D01*
X259649901Y-146626815D01*
X259629259Y-146610181D01*
X252415100Y-139396022D01*
X252400304Y-139368926D01*
X252383692Y-139342893D01*
X252383140Y-139337491D01*
X252381615Y-139334699D01*
X252378782Y-139307942D01*
X252378811Y-139298697D01*
X252379500Y-139294352D01*
X252379500Y-139089682D01*
X257399000Y-139089682D01*
X257399000Y-139294317D01*
X257431009Y-139496417D01*
X257494244Y-139691031D01*
X257587141Y-139873350D01*
X257587147Y-139873359D01*
X257619523Y-139917921D01*
X257619524Y-139917922D01*
X258299000Y-139238446D01*
X258299000Y-139244661D01*
X258326259Y-139346394D01*
X258378920Y-139437606D01*
X258453394Y-139512080D01*
X258544606Y-139564741D01*
X258646339Y-139592000D01*
X258652553Y-139592000D01*
X257973076Y-140271474D01*
X258017650Y-140303859D01*
X258199968Y-140396755D01*
X258394582Y-140459990D01*
X258596683Y-140492000D01*
X258801317Y-140492000D01*
X259003417Y-140459990D01*
X259198031Y-140396755D01*
X259380349Y-140303859D01*
X259424921Y-140271474D01*
X258745447Y-139592000D01*
X258751661Y-139592000D01*
X258853394Y-139564741D01*
X258944606Y-139512080D01*
X259019080Y-139437606D01*
X259071741Y-139346394D01*
X259099000Y-139244661D01*
X259099000Y-139238447D01*
X259778474Y-139917921D01*
X259810859Y-139873349D01*
X259903755Y-139691029D01*
X259916983Y-139650320D01*
X259916983Y-139650319D01*
X259966990Y-139496417D01*
X259999000Y-139294317D01*
X259999000Y-139089682D01*
X259966990Y-138887582D01*
X259903755Y-138692968D01*
X259810859Y-138510650D01*
X259778474Y-138466077D01*
X259778474Y-138466076D01*
X259099000Y-139145551D01*
X259099000Y-139139339D01*
X259071741Y-139037606D01*
X259019080Y-138946394D01*
X258944606Y-138871920D01*
X258853394Y-138819259D01*
X258751661Y-138792000D01*
X258745446Y-138792000D01*
X259424922Y-138112524D01*
X259424921Y-138112523D01*
X259380359Y-138080147D01*
X259380350Y-138080141D01*
X259198031Y-137987244D01*
X259003417Y-137924009D01*
X258801317Y-137892000D01*
X258596683Y-137892000D01*
X258394582Y-137924009D01*
X258199968Y-137987244D01*
X258017644Y-138080143D01*
X257973077Y-138112523D01*
X257973077Y-138112524D01*
X258652554Y-138792000D01*
X258646339Y-138792000D01*
X258544606Y-138819259D01*
X258453394Y-138871920D01*
X258378920Y-138946394D01*
X258326259Y-139037606D01*
X258299000Y-139139339D01*
X258299000Y-139145553D01*
X257619524Y-138466077D01*
X257619523Y-138466077D01*
X257587143Y-138510644D01*
X257494244Y-138692968D01*
X257431009Y-138887582D01*
X257399000Y-139089682D01*
X252379500Y-139089682D01*
X252379500Y-139089648D01*
X252350067Y-138903816D01*
X252347477Y-138887465D01*
X252291248Y-138714412D01*
X252284220Y-138692781D01*
X252284218Y-138692778D01*
X252284218Y-138692776D01*
X252202617Y-138532627D01*
X252191287Y-138510390D01*
X252159092Y-138466077D01*
X252070971Y-138344786D01*
X251926213Y-138200028D01*
X251760613Y-138079715D01*
X251760612Y-138079714D01*
X251760610Y-138079713D01*
X251682106Y-138039713D01*
X251578223Y-137986781D01*
X251383534Y-137923522D01*
X251208995Y-137895878D01*
X251181352Y-137891500D01*
X250976648Y-137891500D01*
X250952329Y-137895351D01*
X250774465Y-137923522D01*
X250579776Y-137986781D01*
X250397386Y-138079715D01*
X250231786Y-138200028D01*
X250087028Y-138344786D01*
X249966715Y-138510386D01*
X249873781Y-138692776D01*
X249810522Y-138887465D01*
X249780695Y-139075787D01*
X249778500Y-139089648D01*
X249778500Y-139294352D01*
X249785020Y-139335514D01*
X249810523Y-139496535D01*
X249810523Y-139496538D01*
X249839243Y-139584928D01*
X249841238Y-139654769D01*
X249808993Y-139710927D01*
X248940967Y-140578954D01*
X248879644Y-140612439D01*
X248809953Y-140607455D01*
X248754019Y-140565583D01*
X248730813Y-140510671D01*
X248722786Y-140459990D01*
X248713246Y-140399757D01*
X248647557Y-140197588D01*
X248551051Y-140008184D01*
X248551049Y-140008181D01*
X248551048Y-140008179D01*
X248426109Y-139836213D01*
X248275786Y-139685890D01*
X248103820Y-139560951D01*
X248101681Y-139559861D01*
X248095054Y-139556485D01*
X248044259Y-139508512D01*
X248027463Y-139440692D01*
X248049999Y-139374556D01*
X248095054Y-139335515D01*
X248103816Y-139331051D01*
X248154330Y-139294351D01*
X248275786Y-139206109D01*
X248275788Y-139206106D01*
X248275792Y-139206104D01*
X248426104Y-139055792D01*
X248426106Y-139055788D01*
X248426109Y-139055786D01*
X248551048Y-138883820D01*
X248551047Y-138883820D01*
X248551051Y-138883816D01*
X248647557Y-138694412D01*
X248713246Y-138492243D01*
X248746500Y-138282287D01*
X248746500Y-138069713D01*
X248713246Y-137859757D01*
X248647557Y-137657588D01*
X248551051Y-137468184D01*
X248551049Y-137468181D01*
X248551048Y-137468179D01*
X248426109Y-137296213D01*
X248275792Y-137145896D01*
X248201194Y-137091698D01*
X248158528Y-137036368D01*
X248152549Y-136966754D01*
X248185154Y-136904959D01*
X248226627Y-136876818D01*
X248283172Y-136853396D01*
X248283172Y-136853395D01*
X248283179Y-136853393D01*
X248414289Y-136765788D01*
X248525788Y-136654289D01*
X248613393Y-136523179D01*
X248673737Y-136377497D01*
X248704500Y-136222842D01*
X248704500Y-136065157D01*
X248700202Y-136043551D01*
X248703888Y-135981040D01*
X248713246Y-135952243D01*
X248746500Y-135742287D01*
X248746500Y-135529713D01*
X248741051Y-135495311D01*
X248750005Y-135426018D01*
X248775840Y-135388235D01*
X251120258Y-133043819D01*
X251181581Y-133010334D01*
X251207939Y-133007500D01*
X256337649Y-133007500D01*
X256404688Y-133027185D01*
X256450443Y-133079989D01*
X256460939Y-133118248D01*
X256465908Y-133164483D01*
X256516202Y-133299328D01*
X256516206Y-133299335D01*
X256602452Y-133414544D01*
X256602455Y-133414547D01*
X256717664Y-133500793D01*
X256717671Y-133500797D01*
X256852517Y-133551091D01*
X256852516Y-133551091D01*
X256859444Y-133551835D01*
X256912127Y-133557500D01*
X258707872Y-133557499D01*
X258767483Y-133551091D01*
X258902331Y-133500796D01*
X259017546Y-133414546D01*
X259103796Y-133299331D01*
X259154091Y-133164483D01*
X259159062Y-133118242D01*
X259185799Y-133053694D01*
X259243191Y-133013846D01*
X259282351Y-133007500D01*
X275192060Y-133007500D01*
X275259099Y-133027185D01*
X275279741Y-133043819D01*
X276398155Y-134162233D01*
X276431640Y-134223556D01*
X276432948Y-134269310D01*
X276427500Y-134303711D01*
X276427500Y-134516286D01*
X276444859Y-134625890D01*
X276460754Y-134726243D01*
X276516621Y-134898184D01*
X276526444Y-134928414D01*
X276622951Y-135117820D01*
X276747890Y-135289786D01*
X276898213Y-135440109D01*
X277070182Y-135565050D01*
X277078946Y-135569516D01*
X277129742Y-135617491D01*
X277146536Y-135685312D01*
X277123998Y-135751447D01*
X277078946Y-135790484D01*
X277070182Y-135794949D01*
X276898213Y-135919890D01*
X276747890Y-136070213D01*
X276622951Y-136242179D01*
X276526444Y-136431585D01*
X276526443Y-136431587D01*
X276526443Y-136431588D01*
X276510438Y-136480845D01*
X276460753Y-136633760D01*
X276427500Y-136843713D01*
X276427500Y-137056286D01*
X276448222Y-137187123D01*
X276460754Y-137266243D01*
X276526367Y-137468179D01*
X276526444Y-137468414D01*
X276622951Y-137657820D01*
X276747890Y-137829786D01*
X276861818Y-137943714D01*
X276895303Y-138005037D01*
X276890319Y-138074729D01*
X276848447Y-138130662D01*
X276817471Y-138147577D01*
X276685912Y-138196646D01*
X276685906Y-138196649D01*
X276570812Y-138282809D01*
X276570809Y-138282812D01*
X276484649Y-138397906D01*
X276484645Y-138397913D01*
X276434403Y-138532620D01*
X276434401Y-138532627D01*
X276428000Y-138592155D01*
X276428000Y-139240000D01*
X277344988Y-139240000D01*
X277312075Y-139297007D01*
X277278000Y-139424174D01*
X277278000Y-139555826D01*
X277312075Y-139682993D01*
X277344988Y-139740000D01*
X276428000Y-139740000D01*
X276428000Y-140387844D01*
X276434401Y-140447372D01*
X276434403Y-140447379D01*
X276484645Y-140582086D01*
X276484649Y-140582093D01*
X276570809Y-140697187D01*
X276570812Y-140697190D01*
X276685906Y-140783350D01*
X276685913Y-140783354D01*
X276820620Y-140833596D01*
X276820627Y-140833598D01*
X276880155Y-140839999D01*
X276880172Y-140840000D01*
X277528000Y-140840000D01*
X277528000Y-139923012D01*
X277585007Y-139955925D01*
X277712174Y-139990000D01*
X277843826Y-139990000D01*
X277970993Y-139955925D01*
X278028000Y-139923012D01*
X278028000Y-140840000D01*
X278675828Y-140840000D01*
X278675844Y-140839999D01*
X278735372Y-140833598D01*
X278735379Y-140833596D01*
X278870086Y-140783354D01*
X278870093Y-140783350D01*
X278985187Y-140697190D01*
X278985190Y-140697187D01*
X279071350Y-140582093D01*
X279071354Y-140582086D01*
X279121596Y-140447379D01*
X279121598Y-140447372D01*
X279127999Y-140387844D01*
X279128000Y-140387827D01*
X279128000Y-139740000D01*
X278211012Y-139740000D01*
X278243925Y-139682993D01*
X278278000Y-139555826D01*
X278278000Y-139424174D01*
X278243925Y-139297007D01*
X278211012Y-139240000D01*
X279128000Y-139240000D01*
X279128000Y-138592172D01*
X279127999Y-138592155D01*
X279121598Y-138532627D01*
X279121596Y-138532620D01*
X279071354Y-138397913D01*
X279071350Y-138397906D01*
X278985190Y-138282812D01*
X278985187Y-138282809D01*
X278870093Y-138196649D01*
X278870088Y-138196646D01*
X278738528Y-138147577D01*
X278682595Y-138105705D01*
X278658178Y-138040241D01*
X278673030Y-137971968D01*
X278694175Y-137943720D01*
X278808104Y-137829792D01*
X278808130Y-137829757D01*
X278933048Y-137657820D01*
X278933047Y-137657820D01*
X278933051Y-137657816D01*
X279029557Y-137468412D01*
X279095246Y-137266243D01*
X279128500Y-137056287D01*
X279128500Y-136843713D01*
X279095246Y-136633757D01*
X279029557Y-136431588D01*
X278933051Y-136242184D01*
X278933049Y-136242181D01*
X278933048Y-136242179D01*
X278808109Y-136070213D01*
X278657786Y-135919890D01*
X278485820Y-135794951D01*
X278485115Y-135794591D01*
X278477054Y-135790485D01*
X278426259Y-135742512D01*
X278409463Y-135674692D01*
X278431999Y-135608556D01*
X278477054Y-135569515D01*
X278485816Y-135565051D01*
X278575747Y-135499713D01*
X278657786Y-135440109D01*
X278657788Y-135440106D01*
X278657792Y-135440104D01*
X278808104Y-135289792D01*
X278808106Y-135289788D01*
X278808109Y-135289786D01*
X278933048Y-135117820D01*
X278933047Y-135117820D01*
X278933051Y-135117816D01*
X279029557Y-134928412D01*
X279095246Y-134726243D01*
X279128500Y-134516287D01*
X279128500Y-134303713D01*
X279095246Y-134093757D01*
X279029557Y-133891588D01*
X278933051Y-133702184D01*
X278933049Y-133702181D01*
X278933048Y-133702179D01*
X278808109Y-133530213D01*
X278657786Y-133379890D01*
X278485820Y-133254951D01*
X278485115Y-133254591D01*
X278477054Y-133250485D01*
X278426259Y-133202512D01*
X278409463Y-133134692D01*
X278431999Y-133068556D01*
X278477054Y-133029515D01*
X278485816Y-133025051D01*
X278575747Y-132959713D01*
X278657786Y-132900109D01*
X278657788Y-132900106D01*
X278657792Y-132900104D01*
X278808104Y-132749792D01*
X278808106Y-132749788D01*
X278808109Y-132749786D01*
X278933048Y-132577820D01*
X278933047Y-132577820D01*
X278933051Y-132577816D01*
X279029557Y-132388412D01*
X279095246Y-132186243D01*
X279128500Y-131976287D01*
X279128500Y-131763713D01*
X279095246Y-131553757D01*
X279029557Y-131351588D01*
X278933051Y-131162184D01*
X278933049Y-131162181D01*
X278933048Y-131162179D01*
X278808109Y-130990213D01*
X278657786Y-130839890D01*
X278485820Y-130714951D01*
X278296414Y-130618444D01*
X278296413Y-130618443D01*
X278296412Y-130618443D01*
X278094243Y-130552754D01*
X278094241Y-130552753D01*
X278094240Y-130552753D01*
X277918684Y-130524948D01*
X277884287Y-130519500D01*
X277671713Y-130519500D01*
X277671711Y-130519500D01*
X277637310Y-130524948D01*
X277568016Y-130515992D01*
X277530233Y-130490155D01*
X276085292Y-129045213D01*
X276085288Y-129045210D01*
X275954185Y-128957609D01*
X275954172Y-128957602D01*
X275808501Y-128897264D01*
X275808489Y-128897261D01*
X275653845Y-128866500D01*
X275653842Y-128866500D01*
X258960894Y-128866500D01*
X258893855Y-128846815D01*
X258860577Y-128815387D01*
X258840104Y-128787208D01*
X258689792Y-128636896D01*
X258689786Y-128636890D01*
X258517820Y-128511951D01*
X258517115Y-128511591D01*
X258509054Y-128507485D01*
X258458259Y-128459512D01*
X258441463Y-128391692D01*
X258463999Y-128325556D01*
X258509054Y-128286515D01*
X258517816Y-128282051D01*
X258568034Y-128245566D01*
X258689786Y-128157109D01*
X258689788Y-128157106D01*
X258689792Y-128157104D01*
X258840104Y-128006792D01*
X258840106Y-128006788D01*
X258840109Y-128006786D01*
X258965048Y-127834820D01*
X258965047Y-127834820D01*
X258965051Y-127834816D01*
X259061557Y-127645412D01*
X259127246Y-127443243D01*
X259160500Y-127233287D01*
X259160500Y-127020713D01*
X259127246Y-126810757D01*
X259061557Y-126608588D01*
X258965051Y-126419184D01*
X258965049Y-126419181D01*
X258965048Y-126419179D01*
X258840109Y-126247213D01*
X258689786Y-126096890D01*
X258517817Y-125971949D01*
X258508504Y-125967204D01*
X258457707Y-125919230D01*
X258440912Y-125851409D01*
X258463449Y-125785274D01*
X258508507Y-125746232D01*
X258517555Y-125741622D01*
X258571716Y-125702270D01*
X258571717Y-125702270D01*
X257939408Y-125069962D01*
X258002993Y-125052925D01*
X258117007Y-124987099D01*
X258210099Y-124894007D01*
X258275925Y-124779993D01*
X258292962Y-124716408D01*
X258925270Y-125348717D01*
X258925270Y-125348716D01*
X258964622Y-125294554D01*
X259061095Y-125105217D01*
X259126757Y-124903130D01*
X259126757Y-124903127D01*
X259160000Y-124693246D01*
X259160000Y-124480754D01*
X259132833Y-124309236D01*
X259132832Y-124309231D01*
X259130258Y-124292983D01*
X273945500Y-124292983D01*
X273945500Y-126493001D01*
X273945501Y-126493018D01*
X273956000Y-126595796D01*
X273956001Y-126595799D01*
X274011185Y-126762331D01*
X274011187Y-126762336D01*
X274028125Y-126789797D01*
X274103288Y-126911656D01*
X274227344Y-127035712D01*
X274376666Y-127127814D01*
X274543203Y-127182999D01*
X274645991Y-127193500D01*
X276846008Y-127193499D01*
X276948797Y-127182999D01*
X277115334Y-127127814D01*
X277264656Y-127035712D01*
X277388712Y-126911656D01*
X277480814Y-126762334D01*
X277535999Y-126595797D01*
X277546500Y-126493009D01*
X277546499Y-124292992D01*
X277546035Y-124288454D01*
X277535999Y-124190203D01*
X277535998Y-124190200D01*
X277525577Y-124158753D01*
X277480814Y-124023666D01*
X277388712Y-123874344D01*
X277264656Y-123750288D01*
X277115334Y-123658186D01*
X276948797Y-123603001D01*
X276948795Y-123603000D01*
X276846010Y-123592500D01*
X274645998Y-123592500D01*
X274645981Y-123592501D01*
X274543203Y-123603000D01*
X274543200Y-123603001D01*
X274376668Y-123658185D01*
X274376663Y-123658187D01*
X274227342Y-123750289D01*
X274103289Y-123874342D01*
X274011187Y-124023663D01*
X274011185Y-124023668D01*
X273983349Y-124107670D01*
X273956001Y-124190203D01*
X273956001Y-124190204D01*
X273956000Y-124190204D01*
X273945500Y-124292983D01*
X259130258Y-124292983D01*
X259126755Y-124270865D01*
X259061095Y-124068782D01*
X258964624Y-123879449D01*
X258925270Y-123825282D01*
X258925269Y-123825282D01*
X258292962Y-124457590D01*
X258275925Y-124394007D01*
X258210099Y-124279993D01*
X258117007Y-124186901D01*
X258002993Y-124121075D01*
X257939409Y-124104037D01*
X258571716Y-123471728D01*
X258517550Y-123432375D01*
X258328217Y-123335904D01*
X258126129Y-123270242D01*
X257916246Y-123237000D01*
X257703754Y-123237000D01*
X257493872Y-123270242D01*
X257493869Y-123270242D01*
X257291782Y-123335904D01*
X257102439Y-123432380D01*
X257048282Y-123471727D01*
X257048282Y-123471728D01*
X257680591Y-124104037D01*
X257617007Y-124121075D01*
X257502993Y-124186901D01*
X257409901Y-124279993D01*
X257344075Y-124394007D01*
X257327037Y-124457591D01*
X256694728Y-123825282D01*
X256694727Y-123825282D01*
X256655380Y-123879439D01*
X256558904Y-124068782D01*
X256493242Y-124270869D01*
X256493242Y-124270872D01*
X256460000Y-124480753D01*
X256460000Y-124693246D01*
X256493242Y-124903127D01*
X256493242Y-124903130D01*
X256558904Y-125105217D01*
X256655375Y-125294550D01*
X256694728Y-125348716D01*
X257327037Y-124716408D01*
X257344075Y-124779993D01*
X257409901Y-124894007D01*
X257502993Y-124987099D01*
X257617007Y-125052925D01*
X257680590Y-125069962D01*
X257048282Y-125702269D01*
X257048282Y-125702270D01*
X257102452Y-125741626D01*
X257102451Y-125741626D01*
X257111495Y-125746234D01*
X257162292Y-125794208D01*
X257179087Y-125862029D01*
X257156550Y-125928164D01*
X257111499Y-125967202D01*
X257102182Y-125971949D01*
X256930213Y-126096890D01*
X256779890Y-126247213D01*
X256654951Y-126419179D01*
X256558444Y-126608585D01*
X256492753Y-126810760D01*
X256459500Y-127020713D01*
X256459500Y-127108495D01*
X256439815Y-127175534D01*
X256387011Y-127221289D01*
X256317853Y-127231233D01*
X256311310Y-127230113D01*
X256237842Y-127215500D01*
X248546894Y-127215500D01*
X248479855Y-127195815D01*
X248446577Y-127164387D01*
X248426104Y-127136208D01*
X248275792Y-126985896D01*
X248275786Y-126985890D01*
X248103820Y-126860951D01*
X248100338Y-126859177D01*
X248095054Y-126856485D01*
X248044259Y-126808512D01*
X248027463Y-126740692D01*
X248049999Y-126674556D01*
X248095054Y-126635515D01*
X248103816Y-126631051D01*
X248134738Y-126608585D01*
X248275786Y-126506109D01*
X248275788Y-126506106D01*
X248275792Y-126506104D01*
X248426104Y-126355792D01*
X248426106Y-126355788D01*
X248426109Y-126355786D01*
X248551048Y-126183820D01*
X248551047Y-126183820D01*
X248551051Y-126183816D01*
X248647557Y-125994412D01*
X248713246Y-125792243D01*
X248746500Y-125582287D01*
X248746500Y-125369713D01*
X248713246Y-125159757D01*
X248647557Y-124957588D01*
X248551051Y-124768184D01*
X248551049Y-124768181D01*
X248551048Y-124768179D01*
X248426109Y-124596213D01*
X248275786Y-124445890D01*
X248103820Y-124320951D01*
X247914414Y-124224444D01*
X247914413Y-124224443D01*
X247914412Y-124224443D01*
X247712243Y-124158754D01*
X247712241Y-124158753D01*
X247712240Y-124158753D01*
X247550957Y-124133208D01*
X247502287Y-124125500D01*
X247289713Y-124125500D01*
X247241042Y-124133208D01*
X247079760Y-124158753D01*
X246877585Y-124224444D01*
X246688179Y-124320951D01*
X246516213Y-124445890D01*
X246365897Y-124596206D01*
X246362730Y-124599915D01*
X246361459Y-124598829D01*
X246311884Y-124637054D01*
X246266902Y-124645500D01*
X244457894Y-124645500D01*
X244390855Y-124625815D01*
X244357577Y-124594387D01*
X244337104Y-124566208D01*
X244186792Y-124415896D01*
X244186786Y-124415890D01*
X244014820Y-124290951D01*
X243825414Y-124194444D01*
X243825413Y-124194443D01*
X243825412Y-124194443D01*
X243623243Y-124128754D01*
X243623241Y-124128753D01*
X243623240Y-124128753D01*
X243461957Y-124103208D01*
X243413287Y-124095500D01*
X243200713Y-124095500D01*
X243152042Y-124103208D01*
X242990760Y-124128753D01*
X242788585Y-124194444D01*
X242599179Y-124290951D01*
X242427213Y-124415890D01*
X242276890Y-124566213D01*
X242151951Y-124738179D01*
X242055444Y-124927585D01*
X241989753Y-125129760D01*
X241956500Y-125339713D01*
X218749499Y-125339713D01*
X218749499Y-124598128D01*
X218743091Y-124538517D01*
X218736622Y-124521174D01*
X218692797Y-124403671D01*
X218692793Y-124403664D01*
X218606547Y-124288455D01*
X218606544Y-124288452D01*
X218491335Y-124202206D01*
X218491328Y-124202202D01*
X218356482Y-124151908D01*
X218356483Y-124151908D01*
X218296883Y-124145501D01*
X218296881Y-124145500D01*
X218296873Y-124145500D01*
X218296864Y-124145500D01*
X216501129Y-124145500D01*
X216501123Y-124145501D01*
X216441516Y-124151908D01*
X216306671Y-124202202D01*
X216306664Y-124202206D01*
X216191455Y-124288452D01*
X216191452Y-124288455D01*
X216105206Y-124403664D01*
X216105202Y-124403671D01*
X216054908Y-124538517D01*
X216048706Y-124596208D01*
X216048501Y-124598123D01*
X216048500Y-124598135D01*
X216048500Y-126393870D01*
X216048501Y-126393876D01*
X216054908Y-126453483D01*
X216105202Y-126588328D01*
X216105206Y-126588335D01*
X216191452Y-126703544D01*
X216191455Y-126703547D01*
X216306664Y-126789793D01*
X216306671Y-126789797D01*
X216438082Y-126838810D01*
X216465290Y-126859177D01*
X216492787Y-126879068D01*
X216493171Y-126880048D01*
X216494016Y-126880681D01*
X216505890Y-126912517D01*
X216518272Y-126944124D01*
X216518064Y-126945157D01*
X216518433Y-126946145D01*
X216511215Y-126979324D01*
X216504539Y-127012631D01*
X216503732Y-127013727D01*
X216503582Y-127014418D01*
X216483853Y-127041227D01*
X216483131Y-127041972D01*
X216368896Y-127156208D01*
X216357820Y-127171452D01*
X216351740Y-127177735D01*
X216328648Y-127190838D01*
X216307624Y-127207051D01*
X216296348Y-127209168D01*
X216290973Y-127212219D01*
X216282571Y-127211756D01*
X216262636Y-127215500D01*
X214002894Y-127215500D01*
X213935855Y-127195815D01*
X213902577Y-127164387D01*
X213882104Y-127136208D01*
X213768569Y-127022673D01*
X213735084Y-126961350D01*
X213740068Y-126891658D01*
X213781940Y-126835725D01*
X213812915Y-126818810D01*
X213944331Y-126769796D01*
X214059546Y-126683546D01*
X214145796Y-126568331D01*
X214196091Y-126433483D01*
X214202500Y-126373873D01*
X214202499Y-124578128D01*
X214196091Y-124518517D01*
X214182006Y-124480754D01*
X214145797Y-124383671D01*
X214145793Y-124383664D01*
X214059547Y-124268455D01*
X214059544Y-124268452D01*
X213944335Y-124182206D01*
X213944328Y-124182202D01*
X213809482Y-124131908D01*
X213809483Y-124131908D01*
X213749883Y-124125501D01*
X213749881Y-124125500D01*
X213749873Y-124125500D01*
X213749864Y-124125500D01*
X211954129Y-124125500D01*
X211954123Y-124125501D01*
X211894516Y-124131908D01*
X211759671Y-124182202D01*
X211759664Y-124182206D01*
X211644455Y-124268452D01*
X211644452Y-124268455D01*
X211558206Y-124383664D01*
X211558202Y-124383671D01*
X211507908Y-124518517D01*
X211502781Y-124566208D01*
X211501501Y-124578123D01*
X211501500Y-124578135D01*
X211501500Y-126373870D01*
X211501501Y-126373876D01*
X211507908Y-126433483D01*
X211558202Y-126568328D01*
X211558206Y-126568335D01*
X211644452Y-126683544D01*
X211644455Y-126683547D01*
X211759664Y-126769793D01*
X211759671Y-126769797D01*
X211891082Y-126818810D01*
X211947016Y-126860681D01*
X211971433Y-126926145D01*
X211956582Y-126994418D01*
X211935431Y-127022673D01*
X211821889Y-127136215D01*
X211696951Y-127308179D01*
X211600444Y-127497585D01*
X211534753Y-127699760D01*
X211501500Y-127909713D01*
X211501500Y-128122286D01*
X211521025Y-128245566D01*
X211534754Y-128332243D01*
X211593144Y-128511949D01*
X211600444Y-128534414D01*
X211696951Y-128723820D01*
X211821890Y-128895786D01*
X211972213Y-129046109D01*
X212144182Y-129171050D01*
X212152946Y-129175516D01*
X212203742Y-129223491D01*
X212220536Y-129291312D01*
X212197998Y-129357447D01*
X212152946Y-129396484D01*
X212144182Y-129400949D01*
X211972213Y-129525890D01*
X211821890Y-129676213D01*
X211696951Y-129848179D01*
X211600444Y-130037585D01*
X211534753Y-130239760D01*
X211505800Y-130422566D01*
X211501500Y-130449713D01*
X211501500Y-130662287D01*
X211505886Y-130689980D01*
X211533275Y-130862909D01*
X211534754Y-130872243D01*
X211590695Y-131044412D01*
X211600444Y-131074414D01*
X211696951Y-131263820D01*
X211821890Y-131435786D01*
X211972213Y-131586109D01*
X212144182Y-131711050D01*
X212152946Y-131715516D01*
X212203742Y-131763491D01*
X212220536Y-131831312D01*
X212197998Y-131897447D01*
X212152946Y-131936484D01*
X212144182Y-131940949D01*
X211972213Y-132065890D01*
X211821890Y-132216213D01*
X211696951Y-132388179D01*
X211600444Y-132577585D01*
X211534753Y-132779760D01*
X211501500Y-132989713D01*
X211501500Y-133202287D01*
X211501499Y-133202287D01*
X211506948Y-133236686D01*
X211497993Y-133305979D01*
X211472156Y-133343764D01*
X208478651Y-136337270D01*
X208417328Y-136370755D01*
X208347636Y-136365771D01*
X208291703Y-136323899D01*
X208267286Y-136258435D01*
X208273040Y-136211269D01*
X208278475Y-136194541D01*
X208278475Y-136194539D01*
X208278477Y-136194534D01*
X208310500Y-135992352D01*
X208310500Y-135787648D01*
X208278477Y-135585466D01*
X208271843Y-135565050D01*
X208249127Y-135495137D01*
X208215220Y-135390781D01*
X208215218Y-135390778D01*
X208215218Y-135390776D01*
X208163747Y-135289760D01*
X208122287Y-135208390D01*
X208056482Y-135117816D01*
X208001971Y-135042786D01*
X207857213Y-134898028D01*
X207691613Y-134777715D01*
X207691612Y-134777714D01*
X207691610Y-134777713D01*
X207590536Y-134726213D01*
X207509223Y-134684781D01*
X207314534Y-134621522D01*
X207139995Y-134593878D01*
X207112352Y-134589500D01*
X206907648Y-134589500D01*
X206883329Y-134593351D01*
X206705465Y-134621522D01*
X206510776Y-134684781D01*
X206328386Y-134777715D01*
X206162786Y-134898028D01*
X206018028Y-135042786D01*
X205897715Y-135208386D01*
X205804781Y-135390776D01*
X205741522Y-135585465D01*
X205709500Y-135787648D01*
X205709500Y-135992351D01*
X205741522Y-136194534D01*
X205804781Y-136389223D01*
X205897715Y-136571613D01*
X206018028Y-136737213D01*
X206162786Y-136881971D01*
X206309430Y-136988512D01*
X206328390Y-137002287D01*
X206434369Y-137056286D01*
X206510776Y-137095218D01*
X206510778Y-137095218D01*
X206510781Y-137095220D01*
X206615137Y-137129127D01*
X206705465Y-137158477D01*
X206806557Y-137174488D01*
X206907648Y-137190500D01*
X206907649Y-137190500D01*
X207112351Y-137190500D01*
X207112352Y-137190500D01*
X207314534Y-137158477D01*
X207314539Y-137158475D01*
X207314541Y-137158475D01*
X207331269Y-137153040D01*
X207401110Y-137151043D01*
X207460943Y-137187123D01*
X207491772Y-137249823D01*
X207483809Y-137319237D01*
X207457270Y-137358651D01*
X206968741Y-137847181D01*
X206907418Y-137880666D01*
X206881060Y-137883500D01*
X189965351Y-137883500D01*
X189898312Y-137863815D01*
X189852557Y-137811011D01*
X189842061Y-137772752D01*
X189837091Y-137726516D01*
X189786797Y-137591671D01*
X189786793Y-137591664D01*
X189700547Y-137476455D01*
X189700544Y-137476452D01*
X189585335Y-137390206D01*
X189585328Y-137390202D01*
X189450482Y-137339908D01*
X189450483Y-137339908D01*
X189390883Y-137333501D01*
X189390881Y-137333500D01*
X189390873Y-137333500D01*
X189390864Y-137333500D01*
X187595129Y-137333500D01*
X187595123Y-137333501D01*
X187535516Y-137339908D01*
X187400671Y-137390202D01*
X187400664Y-137390206D01*
X187285455Y-137476452D01*
X187285452Y-137476455D01*
X187199206Y-137591664D01*
X187199202Y-137591671D01*
X187148908Y-137726517D01*
X187142501Y-137786116D01*
X187142500Y-137786135D01*
X187142500Y-139581870D01*
X187142501Y-139581876D01*
X187148908Y-139641483D01*
X187199202Y-139776328D01*
X187199206Y-139776335D01*
X187285452Y-139891544D01*
X187285455Y-139891547D01*
X187400664Y-139977793D01*
X187400671Y-139977797D01*
X187532082Y-140026810D01*
X187588016Y-140068681D01*
X187612433Y-140134145D01*
X187597582Y-140202418D01*
X187576431Y-140230673D01*
X187462889Y-140344215D01*
X187337951Y-140516179D01*
X187241444Y-140705585D01*
X187175753Y-140907760D01*
X187142500Y-141117713D01*
X187142500Y-141330286D01*
X187173331Y-141524949D01*
X187175754Y-141540243D01*
X187206774Y-141635713D01*
X187241444Y-141742414D01*
X187337951Y-141931820D01*
X187462890Y-142103786D01*
X187613213Y-142254109D01*
X187785179Y-142379048D01*
X187785181Y-142379049D01*
X187785184Y-142379051D01*
X187974588Y-142475557D01*
X188176757Y-142541246D01*
X188386713Y-142574500D01*
X188386714Y-142574500D01*
X188599285Y-142574500D01*
X188599287Y-142574500D01*
X188633686Y-142569051D01*
X188702977Y-142578005D01*
X188740765Y-142603843D01*
X189395211Y-143258289D01*
X189469208Y-143332286D01*
X189506712Y-143369790D01*
X189541516Y-143393045D01*
X189637821Y-143457394D01*
X189740833Y-143500062D01*
X189783502Y-143517737D01*
X189906681Y-143542239D01*
X189938152Y-143548499D01*
X189938155Y-143548500D01*
X189938157Y-143548500D01*
X189938158Y-143548500D01*
X193347967Y-143548500D01*
X193415006Y-143568185D01*
X193442252Y-143591962D01*
X193445035Y-143595220D01*
X193589786Y-143739971D01*
X193744749Y-143852556D01*
X193755390Y-143860287D01*
X193871607Y-143919503D01*
X193937776Y-143953218D01*
X193937778Y-143953218D01*
X193937781Y-143953220D01*
X194031946Y-143983816D01*
X194132465Y-144016477D01*
X194233557Y-144032488D01*
X194334648Y-144048500D01*
X194334649Y-144048500D01*
X194539351Y-144048500D01*
X194539352Y-144048500D01*
X194741534Y-144016477D01*
X194936219Y-143953220D01*
X195118610Y-143860287D01*
X195236808Y-143774412D01*
X195284213Y-143739971D01*
X195284215Y-143739968D01*
X195284219Y-143739966D01*
X195428966Y-143595219D01*
X195428968Y-143595215D01*
X195428971Y-143595213D01*
X195485259Y-143517738D01*
X195549287Y-143429610D01*
X195642220Y-143247219D01*
X195705477Y-143052534D01*
X195737500Y-142850352D01*
X195737500Y-142645648D01*
X200756500Y-142645648D01*
X200756500Y-142850351D01*
X200788522Y-143052534D01*
X200851781Y-143247223D01*
X200944715Y-143429613D01*
X201065028Y-143595213D01*
X201209786Y-143739971D01*
X201364749Y-143852556D01*
X201375390Y-143860287D01*
X201491607Y-143919503D01*
X201557776Y-143953218D01*
X201557778Y-143953218D01*
X201557781Y-143953220D01*
X201651946Y-143983816D01*
X201752465Y-144016477D01*
X201853557Y-144032488D01*
X201954648Y-144048500D01*
X201954649Y-144048500D01*
X202159351Y-144048500D01*
X202159352Y-144048500D01*
X202361534Y-144016477D01*
X202556219Y-143953220D01*
X202738610Y-143860287D01*
X202856808Y-143774412D01*
X202904213Y-143739971D01*
X202904215Y-143739968D01*
X202904219Y-143739966D01*
X203048966Y-143595219D01*
X203048968Y-143595215D01*
X203048971Y-143595213D01*
X203105259Y-143517738D01*
X203169287Y-143429610D01*
X203262220Y-143247219D01*
X203325477Y-143052534D01*
X203357500Y-142850352D01*
X203357500Y-142645648D01*
X203330560Y-142475557D01*
X203325477Y-142443465D01*
X203263951Y-142254109D01*
X203262220Y-142248781D01*
X203262218Y-142248778D01*
X203262218Y-142248776D01*
X203188341Y-142103786D01*
X203169287Y-142066390D01*
X203156298Y-142048512D01*
X203048971Y-141900786D01*
X202904213Y-141756028D01*
X202738613Y-141635715D01*
X202738612Y-141635714D01*
X202738610Y-141635713D01*
X202660249Y-141595786D01*
X202556223Y-141542781D01*
X202361534Y-141479522D01*
X202186995Y-141451878D01*
X202159352Y-141447500D01*
X201954648Y-141447500D01*
X201930329Y-141451351D01*
X201752465Y-141479522D01*
X201557776Y-141542781D01*
X201375386Y-141635715D01*
X201209786Y-141756028D01*
X201065028Y-141900786D01*
X200944715Y-142066386D01*
X200851781Y-142248776D01*
X200788522Y-142443465D01*
X200756500Y-142645648D01*
X195737500Y-142645648D01*
X195710560Y-142475557D01*
X195705477Y-142443465D01*
X195643951Y-142254109D01*
X195642220Y-142248781D01*
X195642218Y-142248778D01*
X195642218Y-142248776D01*
X195568341Y-142103786D01*
X195549287Y-142066390D01*
X195536298Y-142048512D01*
X195428971Y-141900786D01*
X195284213Y-141756028D01*
X195118613Y-141635715D01*
X195118612Y-141635714D01*
X195118610Y-141635713D01*
X195040249Y-141595786D01*
X194936223Y-141542781D01*
X194741534Y-141479522D01*
X194566995Y-141451878D01*
X194539352Y-141447500D01*
X194334648Y-141447500D01*
X194310329Y-141451351D01*
X194132465Y-141479522D01*
X193937776Y-141542781D01*
X193755386Y-141635715D01*
X193589786Y-141756028D01*
X193445035Y-141900779D01*
X193442252Y-141904038D01*
X193383742Y-141942227D01*
X193347967Y-141947500D01*
X190399940Y-141947500D01*
X190332901Y-141927815D01*
X190312259Y-141911181D01*
X189872843Y-141471765D01*
X189839358Y-141410442D01*
X189838051Y-141364687D01*
X189843500Y-141330287D01*
X189843500Y-141117713D01*
X189810246Y-140907757D01*
X189744557Y-140705588D01*
X189648051Y-140516184D01*
X189648049Y-140516181D01*
X189648048Y-140516179D01*
X189523109Y-140344213D01*
X189409569Y-140230673D01*
X189376084Y-140169350D01*
X189381068Y-140099658D01*
X189422940Y-140043725D01*
X189453915Y-140026810D01*
X189585331Y-139977796D01*
X189700546Y-139891546D01*
X189786796Y-139776331D01*
X189837091Y-139641483D01*
X189842062Y-139595242D01*
X189868799Y-139530694D01*
X189926191Y-139490846D01*
X189965351Y-139484500D01*
X207342844Y-139484500D01*
X207342845Y-139484499D01*
X207497497Y-139453737D01*
X207612405Y-139406140D01*
X207681872Y-139398672D01*
X207744352Y-139429947D01*
X207780004Y-139490036D01*
X207777510Y-139559861D01*
X207747537Y-139608383D01*
X194782436Y-152573485D01*
X194721113Y-152606970D01*
X194651421Y-152601986D01*
X194595488Y-152560114D01*
X194594480Y-152558748D01*
X194578104Y-152536208D01*
X194427792Y-152385896D01*
X194427786Y-152385890D01*
X194255820Y-152260951D01*
X194066414Y-152164444D01*
X194066413Y-152164443D01*
X194066412Y-152164443D01*
X193864243Y-152098754D01*
X193864241Y-152098753D01*
X193864240Y-152098753D01*
X193702957Y-152073208D01*
X193654287Y-152065500D01*
X193441713Y-152065500D01*
X193393042Y-152073208D01*
X193231760Y-152098753D01*
X193029585Y-152164444D01*
X192840179Y-152260951D01*
X192668213Y-152385890D01*
X192517890Y-152536213D01*
X192392949Y-152708182D01*
X192388202Y-152717499D01*
X192340227Y-152768293D01*
X192272405Y-152785087D01*
X192206271Y-152762548D01*
X192167234Y-152717495D01*
X192162626Y-152708452D01*
X192123270Y-152654282D01*
X192123269Y-152654282D01*
X191490962Y-153286590D01*
X191473925Y-153223007D01*
X191408099Y-153108993D01*
X191315007Y-153015901D01*
X191200993Y-152950075D01*
X191137409Y-152933037D01*
X191769716Y-152300728D01*
X191715550Y-152261375D01*
X191526217Y-152164904D01*
X191324129Y-152099242D01*
X191114246Y-152066000D01*
X190901754Y-152066000D01*
X190691872Y-152099242D01*
X190691869Y-152099242D01*
X190489782Y-152164904D01*
X190300439Y-152261380D01*
X190246282Y-152300727D01*
X190246282Y-152300728D01*
X190878591Y-152933037D01*
X190815007Y-152950075D01*
X190700993Y-153015901D01*
X190607901Y-153108993D01*
X190542075Y-153223007D01*
X190525037Y-153286591D01*
X189854818Y-152616372D01*
X189821333Y-152555049D01*
X189821330Y-152555036D01*
X189818499Y-152542015D01*
X189818499Y-152518128D01*
X189812091Y-152458517D01*
X189774076Y-152356593D01*
X189761798Y-152323673D01*
X189761793Y-152323664D01*
X189675547Y-152208455D01*
X189675544Y-152208452D01*
X189560335Y-152122206D01*
X189560328Y-152122202D01*
X189425482Y-152071908D01*
X189425483Y-152071908D01*
X189365883Y-152065501D01*
X189365881Y-152065500D01*
X189365873Y-152065500D01*
X189365864Y-152065500D01*
X187570129Y-152065500D01*
X187570123Y-152065501D01*
X187510516Y-152071908D01*
X187375671Y-152122202D01*
X187375664Y-152122206D01*
X187260455Y-152208452D01*
X187260452Y-152208455D01*
X187174206Y-152323664D01*
X187174202Y-152323671D01*
X187123908Y-152458517D01*
X187117501Y-152518116D01*
X187117500Y-152518135D01*
X182335290Y-152518135D01*
X182335290Y-146930135D01*
X187117500Y-146930135D01*
X187117500Y-148725870D01*
X187117501Y-148725876D01*
X187123908Y-148785483D01*
X187174202Y-148920328D01*
X187174206Y-148920335D01*
X187260452Y-149035544D01*
X187260455Y-149035547D01*
X187375664Y-149121793D01*
X187375671Y-149121797D01*
X187510517Y-149172091D01*
X187510516Y-149172091D01*
X187512963Y-149172354D01*
X187570127Y-149178500D01*
X189365872Y-149178499D01*
X189425483Y-149172091D01*
X189560331Y-149121796D01*
X189675546Y-149035546D01*
X189761796Y-148920331D01*
X189812091Y-148785483D01*
X189818500Y-148725873D01*
X189818499Y-148701979D01*
X189821330Y-148688963D01*
X189831940Y-148669525D01*
X189838179Y-148648275D01*
X189854803Y-148627643D01*
X189854808Y-148627636D01*
X189854811Y-148627634D01*
X189854818Y-148627626D01*
X190525037Y-147957408D01*
X190542075Y-148020993D01*
X190607901Y-148135007D01*
X190700993Y-148228099D01*
X190815007Y-148293925D01*
X190878590Y-148310962D01*
X190246282Y-148943269D01*
X190246282Y-148943270D01*
X190300449Y-148982624D01*
X190489782Y-149079095D01*
X190691870Y-149144757D01*
X190901754Y-149178000D01*
X191114246Y-149178000D01*
X191324127Y-149144757D01*
X191324130Y-149144757D01*
X191526217Y-149079095D01*
X191715554Y-148982622D01*
X191769716Y-148943270D01*
X191769717Y-148943270D01*
X191137408Y-148310962D01*
X191200993Y-148293925D01*
X191315007Y-148228099D01*
X191408099Y-148135007D01*
X191473925Y-148020993D01*
X191490962Y-147957408D01*
X192123270Y-148589717D01*
X192123270Y-148589716D01*
X192162622Y-148535555D01*
X192167232Y-148526507D01*
X192215205Y-148475709D01*
X192283025Y-148458912D01*
X192349161Y-148481447D01*
X192388204Y-148526504D01*
X192392949Y-148535817D01*
X192517890Y-148707786D01*
X192668213Y-148858109D01*
X192840179Y-148983048D01*
X192840181Y-148983049D01*
X192840184Y-148983051D01*
X193029588Y-149079557D01*
X193231757Y-149145246D01*
X193441713Y-149178500D01*
X193441714Y-149178500D01*
X193654286Y-149178500D01*
X193654287Y-149178500D01*
X193864243Y-149145246D01*
X194066412Y-149079557D01*
X194255816Y-148983051D01*
X194342138Y-148920335D01*
X194427786Y-148858109D01*
X194427788Y-148858106D01*
X194427792Y-148858104D01*
X194578104Y-148707792D01*
X194578106Y-148707788D01*
X194578109Y-148707786D01*
X194703048Y-148535820D01*
X194703050Y-148535817D01*
X194703051Y-148535816D01*
X194799557Y-148346412D01*
X194865246Y-148144243D01*
X194898500Y-147934287D01*
X194898500Y-147721713D01*
X194865246Y-147511757D01*
X194799557Y-147309588D01*
X194703051Y-147120184D01*
X194703049Y-147120181D01*
X194703048Y-147120179D01*
X194578109Y-146948213D01*
X194427786Y-146797890D01*
X194255820Y-146672951D01*
X194066414Y-146576444D01*
X194066413Y-146576443D01*
X194066412Y-146576443D01*
X193864243Y-146510754D01*
X193864241Y-146510753D01*
X193864240Y-146510753D01*
X193702957Y-146485208D01*
X193654287Y-146477500D01*
X193441713Y-146477500D01*
X193393042Y-146485208D01*
X193231760Y-146510753D01*
X193029585Y-146576444D01*
X192840179Y-146672951D01*
X192668213Y-146797890D01*
X192517890Y-146948213D01*
X192392949Y-147120182D01*
X192388202Y-147129499D01*
X192340227Y-147180293D01*
X192272405Y-147197087D01*
X192206271Y-147174548D01*
X192167234Y-147129495D01*
X192162626Y-147120452D01*
X192123270Y-147066282D01*
X192123269Y-147066282D01*
X191490962Y-147698590D01*
X191473925Y-147635007D01*
X191408099Y-147520993D01*
X191315007Y-147427901D01*
X191200993Y-147362075D01*
X191137409Y-147345037D01*
X191769716Y-146712728D01*
X191715550Y-146673375D01*
X191526217Y-146576904D01*
X191324129Y-146511242D01*
X191114246Y-146478000D01*
X190901754Y-146478000D01*
X190691872Y-146511242D01*
X190691869Y-146511242D01*
X190489782Y-146576904D01*
X190300439Y-146673380D01*
X190246282Y-146712727D01*
X190246282Y-146712728D01*
X190878591Y-147345037D01*
X190815007Y-147362075D01*
X190700993Y-147427901D01*
X190607901Y-147520993D01*
X190542075Y-147635007D01*
X190525037Y-147698591D01*
X189854818Y-147028372D01*
X189821333Y-146967049D01*
X189821330Y-146967036D01*
X189818499Y-146954015D01*
X189818499Y-146930128D01*
X189812091Y-146870517D01*
X189782655Y-146791594D01*
X189761798Y-146735673D01*
X189761793Y-146735664D01*
X189675547Y-146620455D01*
X189675544Y-146620452D01*
X189560335Y-146534206D01*
X189560328Y-146534202D01*
X189425482Y-146483908D01*
X189425483Y-146483908D01*
X189365883Y-146477501D01*
X189365881Y-146477500D01*
X189365873Y-146477500D01*
X189365864Y-146477500D01*
X187570129Y-146477500D01*
X187570123Y-146477501D01*
X187510516Y-146483908D01*
X187375671Y-146534202D01*
X187375664Y-146534206D01*
X187260455Y-146620452D01*
X187260452Y-146620455D01*
X187174206Y-146735664D01*
X187174202Y-146735671D01*
X187123908Y-146870517D01*
X187117501Y-146930116D01*
X187117500Y-146930135D01*
X182335290Y-146930135D01*
X182335290Y-124595902D01*
X182649500Y-124595902D01*
X182649500Y-127372097D01*
X182686446Y-127605368D01*
X182759433Y-127829996D01*
X182866657Y-128040434D01*
X183005483Y-128231510D01*
X184950490Y-130176518D01*
X185127031Y-130304782D01*
X185141567Y-130315343D01*
X185238915Y-130364944D01*
X185352003Y-130422566D01*
X185352005Y-130422566D01*
X185352008Y-130422568D01*
X185472412Y-130461689D01*
X185576631Y-130495553D01*
X185809903Y-130532500D01*
X185809908Y-130532500D01*
X188078097Y-130532500D01*
X188311368Y-130495553D01*
X188337122Y-130487185D01*
X188535992Y-130422568D01*
X188746433Y-130315343D01*
X188937510Y-130176517D01*
X189104517Y-130009510D01*
X189243343Y-129818433D01*
X189350568Y-129607992D01*
X189423553Y-129383368D01*
X189426227Y-129366484D01*
X189460500Y-129150097D01*
X189460500Y-128913902D01*
X189423553Y-128680631D01*
X189382542Y-128554414D01*
X189350568Y-128456008D01*
X189350566Y-128456005D01*
X189350566Y-128456003D01*
X189272219Y-128302239D01*
X189243343Y-128245567D01*
X189104517Y-128054490D01*
X189094208Y-128044181D01*
X189060723Y-127982858D01*
X189065707Y-127913166D01*
X189107579Y-127857233D01*
X189173043Y-127832816D01*
X189181889Y-127832500D01*
X196387060Y-127832500D01*
X196454099Y-127852185D01*
X196474741Y-127868819D01*
X197382133Y-128776211D01*
X198033795Y-129427872D01*
X198067280Y-129489195D01*
X198062296Y-129558887D01*
X198020424Y-129614820D01*
X197954960Y-129639237D01*
X197886687Y-129624385D01*
X197871803Y-129614820D01*
X197862687Y-129607996D01*
X197790831Y-129554204D01*
X197790830Y-129554203D01*
X197790828Y-129554202D01*
X197655982Y-129503908D01*
X197655983Y-129503908D01*
X197596383Y-129497501D01*
X197596381Y-129497500D01*
X197596373Y-129497500D01*
X197596364Y-129497500D01*
X195595629Y-129497500D01*
X195595623Y-129497501D01*
X195536016Y-129503908D01*
X195401171Y-129554202D01*
X195401164Y-129554206D01*
X195285955Y-129640452D01*
X195285952Y-129640455D01*
X195199706Y-129755664D01*
X195199702Y-129755671D01*
X195149408Y-129890517D01*
X195143001Y-129950116D01*
X195143000Y-129950135D01*
X195143000Y-132045870D01*
X195143001Y-132045876D01*
X195149408Y-132105483D01*
X195199702Y-132240328D01*
X195199706Y-132240335D01*
X195285952Y-132355544D01*
X195285955Y-132355547D01*
X195401164Y-132441793D01*
X195401171Y-132441797D01*
X195536017Y-132492091D01*
X195536016Y-132492091D01*
X195542944Y-132492835D01*
X195595627Y-132498500D01*
X196913059Y-132498499D01*
X196980098Y-132518184D01*
X197000740Y-132534818D01*
X198553181Y-134087259D01*
X198586666Y-134148582D01*
X198589500Y-134174940D01*
X198589500Y-134800966D01*
X198569815Y-134868005D01*
X198546046Y-134895244D01*
X198542784Y-134898030D01*
X198398028Y-135042786D01*
X198277715Y-135208386D01*
X198184781Y-135390776D01*
X198121522Y-135585465D01*
X198089500Y-135787648D01*
X198089500Y-135992351D01*
X198121522Y-136194534D01*
X198184781Y-136389223D01*
X198277715Y-136571613D01*
X198398028Y-136737213D01*
X198542786Y-136881971D01*
X198689430Y-136988512D01*
X198708390Y-137002287D01*
X198814369Y-137056286D01*
X198890776Y-137095218D01*
X198890778Y-137095218D01*
X198890781Y-137095220D01*
X198995137Y-137129127D01*
X199085465Y-137158477D01*
X199186557Y-137174488D01*
X199287648Y-137190500D01*
X199287649Y-137190500D01*
X199492351Y-137190500D01*
X199492352Y-137190500D01*
X199694534Y-137158477D01*
X199889219Y-137095220D01*
X200071610Y-137002287D01*
X200193490Y-136913737D01*
X200237213Y-136881971D01*
X200237215Y-136881968D01*
X200237219Y-136881966D01*
X200381966Y-136737219D01*
X200381968Y-136737215D01*
X200381971Y-136737213D01*
X200434732Y-136664590D01*
X200502287Y-136571610D01*
X200595220Y-136389219D01*
X200658477Y-136194534D01*
X200690500Y-135992352D01*
X200690500Y-135787648D01*
X200658477Y-135585466D01*
X200651843Y-135565050D01*
X200629127Y-135495137D01*
X200595220Y-135390781D01*
X200595218Y-135390778D01*
X200595218Y-135390776D01*
X200543747Y-135289760D01*
X200502287Y-135208390D01*
X200436482Y-135117816D01*
X200381971Y-135042786D01*
X200237215Y-134898030D01*
X200233954Y-134895244D01*
X200195770Y-134836731D01*
X200190500Y-134800966D01*
X200190500Y-133713159D01*
X200190500Y-133713158D01*
X200188317Y-133702184D01*
X200159738Y-133558503D01*
X200099394Y-133412821D01*
X200099392Y-133412818D01*
X200099390Y-133412814D01*
X200011789Y-133281711D01*
X200011786Y-133281707D01*
X199403639Y-132673560D01*
X199370154Y-132612237D01*
X199375138Y-132542545D01*
X199417010Y-132486612D01*
X199471929Y-132463405D01*
X199476245Y-132462722D01*
X199476250Y-132462720D01*
X199476252Y-132462720D01*
X199693755Y-132392049D01*
X199693755Y-132392048D01*
X199693758Y-132392048D01*
X199897538Y-132288217D01*
X200082566Y-132153786D01*
X200244286Y-131992066D01*
X200305683Y-131907559D01*
X200361012Y-131864896D01*
X200430625Y-131858917D01*
X200492420Y-131891523D01*
X200506314Y-131907556D01*
X200567714Y-131992066D01*
X200729434Y-132153786D01*
X200914462Y-132288217D01*
X201111106Y-132388412D01*
X201118244Y-132392049D01*
X201335751Y-132462721D01*
X201335752Y-132462721D01*
X201335755Y-132462722D01*
X201561646Y-132498500D01*
X201561647Y-132498500D01*
X201790353Y-132498500D01*
X201790354Y-132498500D01*
X202016245Y-132462722D01*
X202016248Y-132462721D01*
X202016249Y-132462721D01*
X202233755Y-132392049D01*
X202233755Y-132392048D01*
X202233758Y-132392048D01*
X202437538Y-132288217D01*
X202622566Y-132153786D01*
X202784286Y-131992066D01*
X202918717Y-131807038D01*
X203022548Y-131603258D01*
X203028412Y-131585211D01*
X203093221Y-131385749D01*
X203093221Y-131385748D01*
X203093222Y-131385745D01*
X203129000Y-131159854D01*
X203129000Y-130836146D01*
X203093222Y-130610255D01*
X203093221Y-130610251D01*
X203093221Y-130610250D01*
X203022549Y-130392744D01*
X202977730Y-130304782D01*
X202918717Y-130188962D01*
X202784286Y-130003934D01*
X202622566Y-129842214D01*
X202437538Y-129707783D01*
X202414821Y-129696208D01*
X202233755Y-129603950D01*
X202016248Y-129533278D01*
X201830812Y-129503908D01*
X201790354Y-129497500D01*
X201561646Y-129497500D01*
X201521188Y-129503908D01*
X201335753Y-129533278D01*
X201335750Y-129533278D01*
X201118244Y-129603950D01*
X200914461Y-129707783D01*
X200848550Y-129755671D01*
X200729434Y-129842214D01*
X200729432Y-129842216D01*
X200729431Y-129842216D01*
X200567715Y-130003932D01*
X200506318Y-130088438D01*
X200450987Y-130131103D01*
X200381374Y-130137082D01*
X200319579Y-130104476D01*
X200305682Y-130088438D01*
X200268735Y-130037585D01*
X200244286Y-130003934D01*
X200082566Y-129842214D01*
X199987613Y-129773226D01*
X199944949Y-129717896D01*
X199936500Y-129672909D01*
X199936500Y-129319156D01*
X199920268Y-129237558D01*
X199920268Y-129237557D01*
X199905737Y-129164503D01*
X199886570Y-129118229D01*
X199845397Y-129018827D01*
X199845390Y-129018814D01*
X199757789Y-128887711D01*
X199757786Y-128887707D01*
X199641970Y-128771891D01*
X199641947Y-128771870D01*
X197280292Y-126410213D01*
X197280288Y-126410210D01*
X197149185Y-126322609D01*
X197149172Y-126322602D01*
X197003501Y-126262264D01*
X197003489Y-126262261D01*
X196848845Y-126231500D01*
X196848842Y-126231500D01*
X189042204Y-126231500D01*
X188975165Y-126211815D01*
X188954523Y-126195181D01*
X188951930Y-126192588D01*
X188951928Y-126192586D01*
X188811788Y-126090768D01*
X188657445Y-126012127D01*
X188492701Y-125958598D01*
X188492699Y-125958597D01*
X188492698Y-125958597D01*
X188361271Y-125937781D01*
X188321611Y-125931500D01*
X187598389Y-125931500D01*
X187558728Y-125937781D01*
X187427302Y-125958597D01*
X187262552Y-126012128D01*
X187108211Y-126090768D01*
X187028256Y-126148859D01*
X186968072Y-126192586D01*
X186968070Y-126192588D01*
X186968069Y-126192588D01*
X186845588Y-126315069D01*
X186845588Y-126315070D01*
X186845586Y-126315072D01*
X186816004Y-126355788D01*
X186743768Y-126455211D01*
X186665128Y-126609552D01*
X186611597Y-126774302D01*
X186584500Y-126945389D01*
X186584500Y-127118611D01*
X186584499Y-127118611D01*
X186609082Y-127273822D01*
X186600127Y-127343115D01*
X186555131Y-127396567D01*
X186488379Y-127417206D01*
X186421065Y-127398481D01*
X186398928Y-127380900D01*
X185686819Y-126668791D01*
X185653334Y-126607468D01*
X185650500Y-126581110D01*
X185650500Y-125386889D01*
X185670185Y-125319850D01*
X185686819Y-125299208D01*
X187554722Y-123431306D01*
X188545209Y-122440819D01*
X188606532Y-122407334D01*
X188632890Y-122404500D01*
X218425597Y-122404500D01*
X218658868Y-122367553D01*
X218883492Y-122294568D01*
X219093934Y-122187343D01*
X219285010Y-122048517D01*
X222435844Y-118897682D01*
X255200000Y-118897682D01*
X255200000Y-119102317D01*
X255232009Y-119304417D01*
X255295244Y-119499031D01*
X255388141Y-119681350D01*
X255388147Y-119681359D01*
X255420523Y-119725921D01*
X255420524Y-119725922D01*
X256100000Y-119046446D01*
X256100000Y-119052661D01*
X256127259Y-119154394D01*
X256179920Y-119245606D01*
X256254394Y-119320080D01*
X256345606Y-119372741D01*
X256447339Y-119400000D01*
X256453553Y-119400000D01*
X255774076Y-120079474D01*
X255818650Y-120111859D01*
X256000968Y-120204755D01*
X256195582Y-120267990D01*
X256397683Y-120300000D01*
X256602317Y-120300000D01*
X256804417Y-120267990D01*
X256999031Y-120204755D01*
X257181349Y-120111859D01*
X257225921Y-120079474D01*
X256546447Y-119400000D01*
X256552661Y-119400000D01*
X256654394Y-119372741D01*
X256745606Y-119320080D01*
X256820080Y-119245606D01*
X256872741Y-119154394D01*
X256900000Y-119052661D01*
X256900000Y-119046447D01*
X257579474Y-119725921D01*
X257611859Y-119681349D01*
X257704755Y-119499031D01*
X257767990Y-119304417D01*
X257800000Y-119102317D01*
X257800000Y-118897682D01*
X257799995Y-118897648D01*
X260199500Y-118897648D01*
X260199500Y-119102351D01*
X260231522Y-119304534D01*
X260294781Y-119499223D01*
X260356794Y-119620928D01*
X260387585Y-119681359D01*
X260387715Y-119681613D01*
X260508028Y-119847213D01*
X260652786Y-119991971D01*
X260807749Y-120104556D01*
X260818390Y-120112287D01*
X260912970Y-120160478D01*
X261000776Y-120205218D01*
X261000778Y-120205218D01*
X261000781Y-120205220D01*
X261105137Y-120239127D01*
X261195465Y-120268477D01*
X261296557Y-120284488D01*
X261397648Y-120300500D01*
X261397649Y-120300500D01*
X261602351Y-120300500D01*
X261602352Y-120300500D01*
X261763262Y-120275014D01*
X273946000Y-120275014D01*
X273946000Y-120510985D01*
X273976799Y-120744914D01*
X274037870Y-120972837D01*
X274128160Y-121190819D01*
X274128165Y-121190828D01*
X274246144Y-121395171D01*
X274246145Y-121395172D01*
X274308721Y-121476723D01*
X275144958Y-120640487D01*
X275169978Y-120700890D01*
X275241112Y-120807351D01*
X275331649Y-120897888D01*
X275438110Y-120969022D01*
X275498511Y-120994041D01*
X274662275Y-121830277D01*
X274743827Y-121892854D01*
X274743828Y-121892855D01*
X274948171Y-122010834D01*
X274948180Y-122010839D01*
X275166163Y-122101129D01*
X275166161Y-122101129D01*
X275394085Y-122162200D01*
X275628014Y-122192999D01*
X275628029Y-122193000D01*
X275863971Y-122193000D01*
X275863985Y-122192999D01*
X276097914Y-122162200D01*
X276325837Y-122101129D01*
X276543819Y-122010839D01*
X276543828Y-122010834D01*
X276748181Y-121892850D01*
X276829723Y-121830279D01*
X276829723Y-121830276D01*
X275993487Y-120994041D01*
X276053890Y-120969022D01*
X276160351Y-120897888D01*
X276250888Y-120807351D01*
X276322022Y-120700890D01*
X276347041Y-120640488D01*
X277183276Y-121476723D01*
X277183279Y-121476723D01*
X277245850Y-121395181D01*
X277363834Y-121190828D01*
X277363839Y-121190819D01*
X277454129Y-120972837D01*
X277515200Y-120744914D01*
X277545999Y-120510985D01*
X277546000Y-120510971D01*
X277546000Y-120275028D01*
X277545999Y-120275014D01*
X277515200Y-120041085D01*
X277454129Y-119813162D01*
X277363839Y-119595180D01*
X277363834Y-119595171D01*
X277245855Y-119390828D01*
X277245854Y-119390827D01*
X277183277Y-119309275D01*
X276347041Y-120145511D01*
X276322022Y-120085110D01*
X276250888Y-119978649D01*
X276160351Y-119888112D01*
X276053890Y-119816978D01*
X275993488Y-119791958D01*
X276829723Y-118955721D01*
X276748172Y-118893145D01*
X276748171Y-118893144D01*
X276543828Y-118775165D01*
X276543819Y-118775160D01*
X276325836Y-118684870D01*
X276325838Y-118684870D01*
X276097914Y-118623799D01*
X275863985Y-118593000D01*
X275628014Y-118593000D01*
X275394085Y-118623799D01*
X275166162Y-118684870D01*
X274948180Y-118775160D01*
X274948171Y-118775165D01*
X274743828Y-118893144D01*
X274743818Y-118893150D01*
X274662275Y-118955720D01*
X274662275Y-118955721D01*
X275498512Y-119791958D01*
X275438110Y-119816978D01*
X275331649Y-119888112D01*
X275241112Y-119978649D01*
X275169978Y-120085110D01*
X275144958Y-120145511D01*
X274308721Y-119309275D01*
X274308720Y-119309275D01*
X274246150Y-119390818D01*
X274246144Y-119390828D01*
X274128165Y-119595171D01*
X274128160Y-119595180D01*
X274037870Y-119813162D01*
X273976799Y-120041085D01*
X273946000Y-120275014D01*
X261763262Y-120275014D01*
X261804534Y-120268477D01*
X261999219Y-120205220D01*
X262181610Y-120112287D01*
X262281868Y-120039446D01*
X262347213Y-119991971D01*
X262347215Y-119991968D01*
X262347219Y-119991966D01*
X262491966Y-119847219D01*
X262491968Y-119847215D01*
X262491971Y-119847213D01*
X262575460Y-119732298D01*
X262612287Y-119681610D01*
X262705220Y-119499219D01*
X262768477Y-119304534D01*
X262800500Y-119102352D01*
X262800500Y-118897648D01*
X262781100Y-118775165D01*
X262768477Y-118695465D01*
X262735184Y-118593000D01*
X262705220Y-118500781D01*
X262705218Y-118500778D01*
X262705218Y-118500776D01*
X262671503Y-118434607D01*
X262612287Y-118318390D01*
X262580092Y-118274077D01*
X262491971Y-118152786D01*
X262347213Y-118008028D01*
X262181613Y-117887715D01*
X262181612Y-117887714D01*
X262181610Y-117887713D01*
X262124653Y-117858691D01*
X261999223Y-117794781D01*
X261804534Y-117731522D01*
X261629995Y-117703878D01*
X261602352Y-117699500D01*
X261397648Y-117699500D01*
X261373329Y-117703351D01*
X261195465Y-117731522D01*
X261000776Y-117794781D01*
X260818386Y-117887715D01*
X260652786Y-118008028D01*
X260508028Y-118152786D01*
X260387715Y-118318386D01*
X260294781Y-118500776D01*
X260231522Y-118695465D01*
X260199500Y-118897648D01*
X257799995Y-118897648D01*
X257767990Y-118695582D01*
X257704755Y-118500968D01*
X257611859Y-118318650D01*
X257579474Y-118274077D01*
X257579474Y-118274076D01*
X256900000Y-118953551D01*
X256900000Y-118947339D01*
X256872741Y-118845606D01*
X256820080Y-118754394D01*
X256745606Y-118679920D01*
X256654394Y-118627259D01*
X256552661Y-118600000D01*
X256546446Y-118600000D01*
X257225922Y-117920524D01*
X257225921Y-117920523D01*
X257181359Y-117888147D01*
X257181350Y-117888141D01*
X256999031Y-117795244D01*
X256804417Y-117732009D01*
X256602317Y-117700000D01*
X256397683Y-117700000D01*
X256195582Y-117732009D01*
X256000968Y-117795244D01*
X255818644Y-117888143D01*
X255774077Y-117920523D01*
X255774077Y-117920524D01*
X256453554Y-118600000D01*
X256447339Y-118600000D01*
X256345606Y-118627259D01*
X256254394Y-118679920D01*
X256179920Y-118754394D01*
X256127259Y-118845606D01*
X256100000Y-118947339D01*
X256100000Y-118953553D01*
X255420524Y-118274077D01*
X255420523Y-118274077D01*
X255388143Y-118318644D01*
X255295244Y-118500968D01*
X255232009Y-118695582D01*
X255200000Y-118897682D01*
X222435844Y-118897682D01*
X226058512Y-115275014D01*
X273946000Y-115275014D01*
X273946000Y-115510985D01*
X273976799Y-115744914D01*
X274037870Y-115972837D01*
X274128160Y-116190819D01*
X274128165Y-116190828D01*
X274246144Y-116395171D01*
X274246145Y-116395172D01*
X274308721Y-116476723D01*
X275144958Y-115640487D01*
X275169978Y-115700890D01*
X275241112Y-115807351D01*
X275331649Y-115897888D01*
X275438110Y-115969022D01*
X275498511Y-115994041D01*
X274662275Y-116830277D01*
X274743827Y-116892854D01*
X274743828Y-116892855D01*
X274948171Y-117010834D01*
X274948180Y-117010839D01*
X275166163Y-117101129D01*
X275166161Y-117101129D01*
X275394085Y-117162200D01*
X275628014Y-117192999D01*
X275628029Y-117193000D01*
X275863971Y-117193000D01*
X275863985Y-117192999D01*
X276097914Y-117162200D01*
X276325837Y-117101129D01*
X276543819Y-117010839D01*
X276543828Y-117010834D01*
X276748181Y-116892850D01*
X276829723Y-116830279D01*
X276829723Y-116830276D01*
X275993487Y-115994041D01*
X276053890Y-115969022D01*
X276160351Y-115897888D01*
X276250888Y-115807351D01*
X276322022Y-115700890D01*
X276347041Y-115640488D01*
X277183276Y-116476723D01*
X277183279Y-116476723D01*
X277245850Y-116395181D01*
X277363834Y-116190828D01*
X277363839Y-116190819D01*
X277454129Y-115972837D01*
X277515200Y-115744914D01*
X277545999Y-115510985D01*
X277546000Y-115510971D01*
X277546000Y-115275028D01*
X277545999Y-115275014D01*
X277515200Y-115041085D01*
X277454129Y-114813162D01*
X277363839Y-114595180D01*
X277363834Y-114595171D01*
X277245855Y-114390828D01*
X277245854Y-114390827D01*
X277183277Y-114309275D01*
X276347041Y-115145511D01*
X276322022Y-115085110D01*
X276250888Y-114978649D01*
X276160351Y-114888112D01*
X276053890Y-114816978D01*
X275993488Y-114791958D01*
X276829723Y-113955721D01*
X276748172Y-113893145D01*
X276748171Y-113893144D01*
X276543828Y-113775165D01*
X276543819Y-113775160D01*
X276325836Y-113684870D01*
X276325838Y-113684870D01*
X276097914Y-113623799D01*
X275863985Y-113593000D01*
X275628014Y-113593000D01*
X275394085Y-113623799D01*
X275166162Y-113684870D01*
X274948180Y-113775160D01*
X274948171Y-113775165D01*
X274743828Y-113893144D01*
X274743818Y-113893150D01*
X274662275Y-113955720D01*
X274662275Y-113955721D01*
X275498512Y-114791958D01*
X275438110Y-114816978D01*
X275331649Y-114888112D01*
X275241112Y-114978649D01*
X275169978Y-115085110D01*
X275144958Y-115145511D01*
X274308721Y-114309275D01*
X274308720Y-114309275D01*
X274246150Y-114390818D01*
X274246144Y-114390828D01*
X274128165Y-114595171D01*
X274128160Y-114595180D01*
X274037870Y-114813162D01*
X273976799Y-115041085D01*
X273946000Y-115275014D01*
X226058512Y-115275014D01*
X230492958Y-110840567D01*
X230548541Y-110808476D01*
X230743993Y-110756106D01*
X230962049Y-110665784D01*
X231166450Y-110547773D01*
X231353699Y-110404092D01*
X231520592Y-110237199D01*
X231664273Y-110049950D01*
X231782284Y-109845549D01*
X231872606Y-109627493D01*
X231924976Y-109432041D01*
X231957067Y-109376458D01*
X233151820Y-108181705D01*
X233213142Y-108148222D01*
X233282834Y-108153206D01*
X233338767Y-108195078D01*
X233363184Y-108260542D01*
X233363500Y-108269388D01*
X233363500Y-110147501D01*
X233363501Y-110147518D01*
X233374000Y-110250296D01*
X233374001Y-110250299D01*
X233429185Y-110416831D01*
X233429187Y-110416836D01*
X233447395Y-110446356D01*
X233521288Y-110566156D01*
X233645344Y-110690212D01*
X233794666Y-110782314D01*
X233961203Y-110837499D01*
X234063991Y-110848000D01*
X236264008Y-110847999D01*
X236366797Y-110837499D01*
X236533334Y-110782314D01*
X236682656Y-110690212D01*
X236806712Y-110566156D01*
X236898814Y-110416834D01*
X236953999Y-110250297D01*
X236964500Y-110147509D01*
X236964499Y-108170999D01*
X236984184Y-108103961D01*
X237036987Y-108058206D01*
X237088499Y-108047000D01*
X239690111Y-108047000D01*
X239757150Y-108066685D01*
X239777792Y-108083319D01*
X241070929Y-109376456D01*
X241103023Y-109432043D01*
X241155394Y-109627493D01*
X241245714Y-109845545D01*
X241245719Y-109845556D01*
X241316677Y-109968457D01*
X241363727Y-110049950D01*
X241363729Y-110049953D01*
X241363730Y-110049954D01*
X241507406Y-110237197D01*
X241507412Y-110237204D01*
X241674295Y-110404087D01*
X241674302Y-110404093D01*
X241784306Y-110488501D01*
X241861550Y-110547773D01*
X241992918Y-110623618D01*
X242065943Y-110665780D01*
X242065948Y-110665782D01*
X242065951Y-110665784D01*
X242284007Y-110756106D01*
X242511986Y-110817193D01*
X242745989Y-110848000D01*
X242745996Y-110848000D01*
X242982004Y-110848000D01*
X242982011Y-110848000D01*
X243216014Y-110817193D01*
X243443993Y-110756106D01*
X243662049Y-110665784D01*
X243866450Y-110547773D01*
X244053699Y-110404092D01*
X244220592Y-110237199D01*
X244364273Y-110049950D01*
X244482284Y-109845549D01*
X244572606Y-109627493D01*
X244624976Y-109432041D01*
X244657067Y-109376458D01*
X245851820Y-108181705D01*
X245913142Y-108148222D01*
X245982834Y-108153206D01*
X246038767Y-108195078D01*
X246063184Y-108260542D01*
X246063500Y-108269388D01*
X246063500Y-110147501D01*
X246063501Y-110147518D01*
X246074000Y-110250296D01*
X246074001Y-110250299D01*
X246129185Y-110416831D01*
X246129187Y-110416836D01*
X246147395Y-110446356D01*
X246221288Y-110566156D01*
X246345344Y-110690212D01*
X246494666Y-110782314D01*
X246661203Y-110837499D01*
X246763991Y-110848000D01*
X248964008Y-110847999D01*
X249066797Y-110837499D01*
X249233334Y-110782314D01*
X249382656Y-110690212D01*
X249506712Y-110566156D01*
X249598814Y-110416834D01*
X249653999Y-110250297D01*
X249664500Y-110147509D01*
X249664499Y-107947492D01*
X249653999Y-107844703D01*
X249598814Y-107678166D01*
X249506712Y-107528844D01*
X249382656Y-107404788D01*
X249282287Y-107342880D01*
X249233336Y-107312687D01*
X249233331Y-107312685D01*
X249231894Y-107312208D01*
X249132295Y-107279205D01*
X249074852Y-107239433D01*
X249048029Y-107174918D01*
X249060344Y-107106142D01*
X249107887Y-107054942D01*
X249171301Y-107037500D01*
X253955314Y-107037500D01*
X254022353Y-107057185D01*
X254068108Y-107109989D01*
X254078052Y-107179147D01*
X254049027Y-107242703D01*
X254030800Y-107259876D01*
X253906302Y-107355406D01*
X253906295Y-107355412D01*
X253739412Y-107522295D01*
X253739406Y-107522302D01*
X253595730Y-107709545D01*
X253477719Y-107913943D01*
X253477714Y-107913954D01*
X253387394Y-108132006D01*
X253326306Y-108359989D01*
X253295501Y-108593979D01*
X253295500Y-108593995D01*
X253295500Y-108830004D01*
X253295501Y-108830020D01*
X253326306Y-109064010D01*
X253387394Y-109291993D01*
X253477714Y-109510045D01*
X253477719Y-109510056D01*
X253548677Y-109632957D01*
X253595727Y-109714450D01*
X253595729Y-109714453D01*
X253595730Y-109714454D01*
X253739406Y-109901697D01*
X253739412Y-109901704D01*
X253906295Y-110068587D01*
X253906302Y-110068593D01*
X254016306Y-110153001D01*
X254093550Y-110212273D01*
X254224918Y-110288118D01*
X254297943Y-110330280D01*
X254297948Y-110330282D01*
X254297951Y-110330284D01*
X254516007Y-110420606D01*
X254743986Y-110481693D01*
X254977989Y-110512500D01*
X254977996Y-110512500D01*
X255214004Y-110512500D01*
X255214011Y-110512500D01*
X255448014Y-110481693D01*
X255675993Y-110420606D01*
X255894049Y-110330284D01*
X256098450Y-110212273D01*
X256285699Y-110068592D01*
X256452592Y-109901699D01*
X256596273Y-109714450D01*
X256714284Y-109510049D01*
X256804606Y-109291993D01*
X256865693Y-109064014D01*
X256896500Y-108830011D01*
X256896500Y-108593989D01*
X256865693Y-108359986D01*
X256804606Y-108132007D01*
X256714284Y-107913951D01*
X256714282Y-107913948D01*
X256714280Y-107913943D01*
X256672118Y-107840918D01*
X256596273Y-107709550D01*
X256472039Y-107547645D01*
X256452593Y-107522302D01*
X256452587Y-107522295D01*
X256285704Y-107355412D01*
X256285697Y-107355406D01*
X256161200Y-107259876D01*
X256119997Y-107203448D01*
X256115842Y-107133702D01*
X256150054Y-107072782D01*
X256211772Y-107040029D01*
X256236686Y-107037500D01*
X258327826Y-107037500D01*
X258394865Y-107057185D01*
X258440620Y-107109989D01*
X258450564Y-107179147D01*
X258433365Y-107226597D01*
X258361643Y-107342875D01*
X258361641Y-107342880D01*
X258306494Y-107509302D01*
X258306493Y-107509309D01*
X258296000Y-107612013D01*
X258296000Y-108462000D01*
X259495999Y-108462000D01*
X259470979Y-108522402D01*
X259446000Y-108647981D01*
X259446000Y-108776019D01*
X259470979Y-108901598D01*
X259495999Y-108962000D01*
X258296001Y-108962000D01*
X258296001Y-109811986D01*
X258306494Y-109914697D01*
X258361641Y-110081119D01*
X258361643Y-110081124D01*
X258453684Y-110230345D01*
X258577654Y-110354315D01*
X258726875Y-110446356D01*
X258726880Y-110446358D01*
X258893302Y-110501505D01*
X258893309Y-110501506D01*
X258996019Y-110511999D01*
X259845999Y-110511999D01*
X259846000Y-110511998D01*
X259846000Y-109312001D01*
X259906402Y-109337021D01*
X260031981Y-109362000D01*
X260160019Y-109362000D01*
X260285598Y-109337021D01*
X260346000Y-109312001D01*
X260346000Y-110511999D01*
X261195972Y-110511999D01*
X261195986Y-110511998D01*
X261298697Y-110501505D01*
X261465119Y-110446358D01*
X261465124Y-110446356D01*
X261614345Y-110354315D01*
X261738315Y-110230345D01*
X261830356Y-110081124D01*
X261830358Y-110081119D01*
X261885505Y-109914697D01*
X261885506Y-109914690D01*
X261895999Y-109811986D01*
X261896000Y-109811973D01*
X261896000Y-108962000D01*
X260696001Y-108962000D01*
X260721021Y-108901598D01*
X260746000Y-108776019D01*
X260746000Y-108647981D01*
X260721021Y-108522402D01*
X260696001Y-108462000D01*
X261895999Y-108462000D01*
X261895999Y-107612028D01*
X261895998Y-107612013D01*
X261885505Y-107509302D01*
X261830358Y-107342880D01*
X261830356Y-107342875D01*
X261758635Y-107226597D01*
X261740195Y-107159204D01*
X261761118Y-107092541D01*
X261814760Y-107047771D01*
X261864174Y-107037500D01*
X262471111Y-107037500D01*
X262538150Y-107057185D01*
X262558792Y-107073819D01*
X265468490Y-109983517D01*
X265659566Y-110122343D01*
X265870008Y-110229568D01*
X266094631Y-110302553D01*
X266182109Y-110316408D01*
X266327903Y-110339500D01*
X266327908Y-110339500D01*
X266564097Y-110339500D01*
X266797368Y-110302553D01*
X267021992Y-110229568D01*
X267232433Y-110122343D01*
X267423510Y-109983517D01*
X267590517Y-109816510D01*
X267729343Y-109625433D01*
X267836568Y-109414992D01*
X267909553Y-109190368D01*
X267919692Y-109126351D01*
X267946500Y-108957097D01*
X267946500Y-108720902D01*
X267909553Y-108487634D01*
X267909553Y-108487631D01*
X267836568Y-108263008D01*
X267729343Y-108052566D01*
X267729341Y-108052563D01*
X267729340Y-108052561D01*
X267653038Y-107947542D01*
X267653037Y-107947541D01*
X267603029Y-107878711D01*
X275149500Y-107878711D01*
X275149500Y-108121288D01*
X275181161Y-108361785D01*
X275243947Y-108596104D01*
X275336773Y-108820205D01*
X275336776Y-108820212D01*
X275458064Y-109030289D01*
X275458066Y-109030292D01*
X275458067Y-109030293D01*
X275605733Y-109222736D01*
X275605739Y-109222743D01*
X275777256Y-109394260D01*
X275777263Y-109394266D01*
X275865342Y-109461851D01*
X275969711Y-109541936D01*
X276179788Y-109663224D01*
X276403900Y-109756054D01*
X276638211Y-109818838D01*
X276818586Y-109842584D01*
X276878711Y-109850500D01*
X276878712Y-109850500D01*
X277121289Y-109850500D01*
X277169388Y-109844167D01*
X277361789Y-109818838D01*
X277596100Y-109756054D01*
X277820212Y-109663224D01*
X278030289Y-109541936D01*
X278222738Y-109394265D01*
X278394265Y-109222738D01*
X278541936Y-109030289D01*
X278663224Y-108820212D01*
X278756054Y-108596100D01*
X278818838Y-108361789D01*
X278850500Y-108121288D01*
X278850500Y-107878712D01*
X278848232Y-107861488D01*
X278825776Y-107690912D01*
X278818838Y-107638211D01*
X278756054Y-107403900D01*
X278753649Y-107398095D01*
X278718272Y-107312686D01*
X278663224Y-107179788D01*
X278541936Y-106969711D01*
X278447052Y-106846056D01*
X278394266Y-106777263D01*
X278394260Y-106777256D01*
X278222743Y-106605739D01*
X278222736Y-106605733D01*
X278030293Y-106458067D01*
X278030292Y-106458066D01*
X278030289Y-106458064D01*
X277820212Y-106336776D01*
X277820205Y-106336773D01*
X277596104Y-106243947D01*
X277361785Y-106181161D01*
X277121289Y-106149500D01*
X277121288Y-106149500D01*
X276878712Y-106149500D01*
X276878711Y-106149500D01*
X276638214Y-106181161D01*
X276403895Y-106243947D01*
X276179794Y-106336773D01*
X276179785Y-106336777D01*
X275969706Y-106458067D01*
X275777263Y-106605733D01*
X275777256Y-106605739D01*
X275605739Y-106777256D01*
X275605733Y-106777263D01*
X275458067Y-106969706D01*
X275336777Y-107179785D01*
X275336773Y-107179794D01*
X275243947Y-107403895D01*
X275181161Y-107638214D01*
X275149500Y-107878711D01*
X267603029Y-107878711D01*
X267590517Y-107861490D01*
X264121510Y-104392483D01*
X263930434Y-104253657D01*
X263719996Y-104146433D01*
X263495368Y-104073446D01*
X263262097Y-104036500D01*
X263262092Y-104036500D01*
X246492592Y-104036500D01*
X246256408Y-104036500D01*
X246256403Y-104036500D01*
X246023131Y-104073446D01*
X245798503Y-104146433D01*
X245588063Y-104253659D01*
X245396996Y-104392476D01*
X245396991Y-104392480D01*
X242951680Y-106837791D01*
X242890357Y-106871276D01*
X242820665Y-106866292D01*
X242776318Y-106837791D01*
X241340511Y-105401984D01*
X241149434Y-105263157D01*
X240938996Y-105155933D01*
X240714368Y-105082946D01*
X240481097Y-105046000D01*
X240481092Y-105046000D01*
X232783092Y-105046000D01*
X232546908Y-105046000D01*
X232546903Y-105046000D01*
X232313634Y-105082946D01*
X232089005Y-105155933D01*
X231878565Y-105263157D01*
X231687488Y-105401984D01*
X231687487Y-105401985D01*
X229835042Y-107254429D01*
X229779455Y-107286523D01*
X229584006Y-107338894D01*
X229365954Y-107429214D01*
X229365943Y-107429219D01*
X229161545Y-107547230D01*
X228974302Y-107690906D01*
X228974295Y-107690912D01*
X228807412Y-107857795D01*
X228807406Y-107857802D01*
X228663730Y-108045045D01*
X228663727Y-108045049D01*
X228663727Y-108045050D01*
X228662601Y-108047000D01*
X228545719Y-108249443D01*
X228545714Y-108249454D01*
X228455394Y-108467506D01*
X228403023Y-108662955D01*
X228370929Y-108718542D01*
X217722292Y-119367181D01*
X217660969Y-119400666D01*
X217634611Y-119403500D01*
X189400508Y-119403500D01*
X189333469Y-119383815D01*
X189287714Y-119331011D01*
X189277770Y-119261853D01*
X189282577Y-119241182D01*
X189286013Y-119230605D01*
X189308402Y-119161701D01*
X189335500Y-118990611D01*
X189335500Y-118817389D01*
X189308402Y-118646299D01*
X189254873Y-118481555D01*
X189176232Y-118327212D01*
X189074414Y-118187072D01*
X188951928Y-118064586D01*
X188811788Y-117962768D01*
X188657445Y-117884127D01*
X188492701Y-117830598D01*
X188492699Y-117830597D01*
X188492698Y-117830597D01*
X188361271Y-117809781D01*
X188321611Y-117803500D01*
X187598389Y-117803500D01*
X187558728Y-117809781D01*
X187427302Y-117830597D01*
X187262552Y-117884128D01*
X187108211Y-117962768D01*
X187045917Y-118008028D01*
X186968072Y-118064586D01*
X186968070Y-118064588D01*
X186968069Y-118064588D01*
X186845588Y-118187069D01*
X186845588Y-118187070D01*
X186845586Y-118187072D01*
X186801859Y-118247256D01*
X186743768Y-118327211D01*
X186665128Y-118481552D01*
X186611597Y-118646302D01*
X186584500Y-118817389D01*
X186584500Y-118990610D01*
X186611597Y-119161697D01*
X186611597Y-119161699D01*
X186611598Y-119161701D01*
X186665127Y-119326445D01*
X186743768Y-119480788D01*
X186845586Y-119620928D01*
X186845588Y-119620930D01*
X186895633Y-119670975D01*
X186929118Y-119732298D01*
X186924134Y-119801990D01*
X186895633Y-119846337D01*
X183005485Y-123736487D01*
X183005484Y-123736488D01*
X182866657Y-123927565D01*
X182817692Y-124023666D01*
X182759433Y-124138003D01*
X182686446Y-124362631D01*
X182649500Y-124595902D01*
X182335290Y-124595902D01*
X182335290Y-114900013D01*
X196047349Y-114900013D01*
X196047349Y-115250000D01*
X197031663Y-115250000D01*
X197027269Y-115254394D01*
X196974608Y-115345606D01*
X196947349Y-115447339D01*
X196947349Y-115552661D01*
X196974608Y-115654394D01*
X197027269Y-115745606D01*
X197031663Y-115750000D01*
X196047350Y-115750000D01*
X196047350Y-116099986D01*
X196057843Y-116202697D01*
X196112990Y-116369119D01*
X196112992Y-116369124D01*
X196205033Y-116518345D01*
X196329003Y-116642315D01*
X196478224Y-116734356D01*
X196478229Y-116734358D01*
X196644651Y-116789505D01*
X196644658Y-116789506D01*
X196747368Y-116799999D01*
X197097348Y-116799999D01*
X197097349Y-116799998D01*
X197097349Y-115815686D01*
X197101743Y-115820080D01*
X197192955Y-115872741D01*
X197294688Y-115900000D01*
X197400010Y-115900000D01*
X197501743Y-115872741D01*
X197592955Y-115820080D01*
X197597349Y-115815686D01*
X197597349Y-116799999D01*
X197947321Y-116799999D01*
X197947335Y-116799998D01*
X198050046Y-116789505D01*
X198216468Y-116734358D01*
X198216473Y-116734356D01*
X198365694Y-116642315D01*
X198489664Y-116518345D01*
X198581705Y-116369124D01*
X198581707Y-116369119D01*
X198636854Y-116202697D01*
X198636855Y-116202690D01*
X198647348Y-116099986D01*
X198647349Y-116099973D01*
X198647349Y-115750000D01*
X197663035Y-115750000D01*
X197667429Y-115745606D01*
X197720090Y-115654394D01*
X197747349Y-115552661D01*
X197747349Y-115447339D01*
X197734034Y-115397648D01*
X199546849Y-115397648D01*
X199546849Y-115602351D01*
X199578871Y-115804534D01*
X199642130Y-115999223D01*
X199735064Y-116181613D01*
X199855377Y-116347213D01*
X200000135Y-116491971D01*
X200155098Y-116604556D01*
X200165739Y-116612287D01*
X200281956Y-116671503D01*
X200348125Y-116705218D01*
X200348127Y-116705218D01*
X200348130Y-116705220D01*
X200437808Y-116734358D01*
X200542814Y-116768477D01*
X200643906Y-116784488D01*
X200744997Y-116800500D01*
X200744998Y-116800500D01*
X200949700Y-116800500D01*
X200949701Y-116800500D01*
X201151883Y-116768477D01*
X201346568Y-116705220D01*
X201528959Y-116612287D01*
X201621939Y-116544732D01*
X201694562Y-116491971D01*
X201694564Y-116491968D01*
X201694568Y-116491966D01*
X201839315Y-116347219D01*
X201839317Y-116347215D01*
X201839320Y-116347213D01*
X201892081Y-116274590D01*
X201959636Y-116181610D01*
X202052569Y-115999219D01*
X202115826Y-115804534D01*
X202147849Y-115602352D01*
X202147849Y-115397648D01*
X202128425Y-115275014D01*
X202115826Y-115195465D01*
X202079969Y-115085110D01*
X202052569Y-115000781D01*
X202052567Y-115000778D01*
X202052567Y-115000776D01*
X202018852Y-114934607D01*
X201959636Y-114818390D01*
X201923011Y-114767979D01*
X201839320Y-114652786D01*
X201694562Y-114508028D01*
X201528962Y-114387715D01*
X201528961Y-114387714D01*
X201528959Y-114387713D01*
X201470024Y-114357684D01*
X201346572Y-114294781D01*
X201151883Y-114231522D01*
X200977344Y-114203878D01*
X200949701Y-114199500D01*
X200744997Y-114199500D01*
X200720678Y-114203351D01*
X200542814Y-114231522D01*
X200348125Y-114294781D01*
X200165735Y-114387715D01*
X200000135Y-114508028D01*
X199855377Y-114652786D01*
X199735064Y-114818386D01*
X199642130Y-115000776D01*
X199578871Y-115195465D01*
X199546849Y-115397648D01*
X197734034Y-115397648D01*
X197720090Y-115345606D01*
X197667429Y-115254394D01*
X197663035Y-115250000D01*
X198647348Y-115250000D01*
X198647348Y-114900028D01*
X198647347Y-114900013D01*
X198636854Y-114797302D01*
X198581707Y-114630880D01*
X198581705Y-114630875D01*
X198489664Y-114481654D01*
X198365694Y-114357684D01*
X198216473Y-114265643D01*
X198216468Y-114265641D01*
X198050046Y-114210494D01*
X198050039Y-114210493D01*
X197947335Y-114200000D01*
X197597349Y-114200000D01*
X197597349Y-115184314D01*
X197592955Y-115179920D01*
X197501743Y-115127259D01*
X197400010Y-115100000D01*
X197294688Y-115100000D01*
X197192955Y-115127259D01*
X197101743Y-115179920D01*
X197097349Y-115184314D01*
X197097349Y-114200000D01*
X196747377Y-114200000D01*
X196747361Y-114200001D01*
X196644651Y-114210494D01*
X196478229Y-114265641D01*
X196478224Y-114265643D01*
X196329003Y-114357684D01*
X196205033Y-114481654D01*
X196112992Y-114630875D01*
X196112990Y-114630880D01*
X196057843Y-114797302D01*
X196057842Y-114797309D01*
X196047349Y-114900013D01*
X182335290Y-114900013D01*
X182335290Y-107878711D01*
X185149500Y-107878711D01*
X185149500Y-108121288D01*
X185181161Y-108361785D01*
X185243947Y-108596104D01*
X185336773Y-108820205D01*
X185336776Y-108820212D01*
X185458064Y-109030289D01*
X185458066Y-109030292D01*
X185458067Y-109030293D01*
X185605733Y-109222736D01*
X185605739Y-109222743D01*
X185777256Y-109394260D01*
X185777263Y-109394266D01*
X185865342Y-109461851D01*
X185969711Y-109541936D01*
X186179788Y-109663224D01*
X186403900Y-109756054D01*
X186638211Y-109818838D01*
X186818586Y-109842584D01*
X186878711Y-109850500D01*
X186878712Y-109850500D01*
X187121289Y-109850500D01*
X187169388Y-109844167D01*
X187361789Y-109818838D01*
X187596100Y-109756054D01*
X187820212Y-109663224D01*
X188030289Y-109541936D01*
X188222738Y-109394265D01*
X188394265Y-109222738D01*
X188541936Y-109030289D01*
X188600118Y-108929514D01*
X210076000Y-108929514D01*
X210076000Y-109165485D01*
X210106799Y-109399414D01*
X210167870Y-109627337D01*
X210258160Y-109845319D01*
X210258165Y-109845328D01*
X210376144Y-110049671D01*
X210376145Y-110049672D01*
X210438721Y-110131223D01*
X211274958Y-109294987D01*
X211299978Y-109355390D01*
X211371112Y-109461851D01*
X211461649Y-109552388D01*
X211568110Y-109623522D01*
X211628511Y-109648541D01*
X210792275Y-110484777D01*
X210873827Y-110547354D01*
X210873828Y-110547355D01*
X211078171Y-110665334D01*
X211078180Y-110665339D01*
X211296163Y-110755629D01*
X211296161Y-110755629D01*
X211524085Y-110816700D01*
X211758014Y-110847499D01*
X211758029Y-110847500D01*
X211993971Y-110847500D01*
X211993985Y-110847499D01*
X212227914Y-110816700D01*
X212455837Y-110755629D01*
X212673819Y-110665339D01*
X212673828Y-110665334D01*
X212878181Y-110547350D01*
X212959723Y-110484779D01*
X212959723Y-110484776D01*
X212123487Y-109648541D01*
X212183890Y-109623522D01*
X212290351Y-109552388D01*
X212380888Y-109461851D01*
X212452022Y-109355390D01*
X212477041Y-109294988D01*
X213313276Y-110131223D01*
X213313279Y-110131223D01*
X213375850Y-110049681D01*
X213493834Y-109845328D01*
X213493839Y-109845319D01*
X213584129Y-109627337D01*
X213645200Y-109399414D01*
X213675999Y-109165485D01*
X213676000Y-109165471D01*
X213676000Y-108929528D01*
X213675999Y-108929514D01*
X213645200Y-108695585D01*
X213584129Y-108467662D01*
X213493839Y-108249680D01*
X213493834Y-108249671D01*
X213375855Y-108045328D01*
X213375848Y-108045317D01*
X213356286Y-108019824D01*
X213356283Y-108019821D01*
X213313277Y-107963775D01*
X212477041Y-108800011D01*
X212452022Y-108739610D01*
X212380888Y-108633149D01*
X212290351Y-108542612D01*
X212183890Y-108471478D01*
X212123488Y-108446458D01*
X212622462Y-107947483D01*
X215075500Y-107947483D01*
X215075500Y-110147501D01*
X215075501Y-110147518D01*
X215086000Y-110250296D01*
X215086001Y-110250299D01*
X215141185Y-110416831D01*
X215141187Y-110416836D01*
X215159395Y-110446356D01*
X215233288Y-110566156D01*
X215357344Y-110690212D01*
X215506666Y-110782314D01*
X215673203Y-110837499D01*
X215775991Y-110848000D01*
X217976008Y-110847999D01*
X218078797Y-110837499D01*
X218245334Y-110782314D01*
X218394656Y-110690212D01*
X218518712Y-110566156D01*
X218610814Y-110416834D01*
X218665999Y-110250297D01*
X218676500Y-110147509D01*
X218676499Y-107947492D01*
X218665999Y-107844703D01*
X218610814Y-107678166D01*
X218518712Y-107528844D01*
X218394656Y-107404788D01*
X218294287Y-107342880D01*
X218245336Y-107312687D01*
X218245331Y-107312685D01*
X218243862Y-107312198D01*
X218078797Y-107257501D01*
X218078795Y-107257500D01*
X217976010Y-107247000D01*
X215775998Y-107247000D01*
X215775981Y-107247001D01*
X215673203Y-107257500D01*
X215673200Y-107257501D01*
X215506668Y-107312685D01*
X215506663Y-107312687D01*
X215357342Y-107404789D01*
X215233289Y-107528842D01*
X215141187Y-107678163D01*
X215141185Y-107678168D01*
X215136962Y-107690912D01*
X215086001Y-107844703D01*
X215086001Y-107844704D01*
X215086000Y-107844704D01*
X215075500Y-107947483D01*
X212622462Y-107947483D01*
X212959723Y-107610221D01*
X212878172Y-107547645D01*
X212878171Y-107547644D01*
X212673828Y-107429665D01*
X212673819Y-107429660D01*
X212455836Y-107339370D01*
X212455838Y-107339370D01*
X212227914Y-107278299D01*
X211993985Y-107247500D01*
X211758014Y-107247500D01*
X211524085Y-107278299D01*
X211296162Y-107339370D01*
X211078180Y-107429660D01*
X211078171Y-107429665D01*
X210873828Y-107547644D01*
X210873818Y-107547650D01*
X210792275Y-107610220D01*
X210792275Y-107610221D01*
X211628512Y-108446458D01*
X211568110Y-108471478D01*
X211461649Y-108542612D01*
X211371112Y-108633149D01*
X211299978Y-108739610D01*
X211274958Y-108800011D01*
X210438721Y-107963775D01*
X210438720Y-107963775D01*
X210376150Y-108045318D01*
X210376144Y-108045328D01*
X210258165Y-108249671D01*
X210258160Y-108249680D01*
X210167870Y-108467662D01*
X210106799Y-108695585D01*
X210076000Y-108929514D01*
X188600118Y-108929514D01*
X188663224Y-108820212D01*
X188756054Y-108596100D01*
X188818838Y-108361789D01*
X188850500Y-108121288D01*
X188850500Y-107878712D01*
X188848232Y-107861488D01*
X188823597Y-107674359D01*
X188818838Y-107638214D01*
X188818838Y-107638211D01*
X188756054Y-107403900D01*
X188753649Y-107398095D01*
X188718272Y-107312686D01*
X188663224Y-107179788D01*
X188541936Y-106969711D01*
X188447052Y-106846056D01*
X188394266Y-106777263D01*
X188394260Y-106777256D01*
X188222743Y-106605739D01*
X188222736Y-106605733D01*
X188030293Y-106458067D01*
X188030292Y-106458066D01*
X188030289Y-106458064D01*
X187820212Y-106336776D01*
X187820205Y-106336773D01*
X187596104Y-106243947D01*
X187361785Y-106181161D01*
X187121289Y-106149500D01*
X187121288Y-106149500D01*
X186878712Y-106149500D01*
X186878711Y-106149500D01*
X186638214Y-106181161D01*
X186403895Y-106243947D01*
X186179794Y-106336773D01*
X186179785Y-106336777D01*
X185969706Y-106458067D01*
X185777263Y-106605733D01*
X185777256Y-106605739D01*
X185605739Y-106777256D01*
X185605733Y-106777263D01*
X185458067Y-106969706D01*
X185336777Y-107179785D01*
X185336773Y-107179794D01*
X185243947Y-107403895D01*
X185181161Y-107638214D01*
X185149500Y-107878711D01*
X182335290Y-107878711D01*
X182335290Y-105249135D01*
X196261500Y-105249135D01*
X196261500Y-107044870D01*
X196261501Y-107044876D01*
X196267908Y-107104483D01*
X196318202Y-107239328D01*
X196318206Y-107239335D01*
X196404452Y-107354544D01*
X196404455Y-107354547D01*
X196519664Y-107440793D01*
X196519671Y-107440797D01*
X196654517Y-107491091D01*
X196654516Y-107491091D01*
X196661444Y-107491835D01*
X196714127Y-107497500D01*
X198509872Y-107497499D01*
X198569483Y-107491091D01*
X198704331Y-107440796D01*
X198819546Y-107354546D01*
X198905796Y-107239331D01*
X198954810Y-107107916D01*
X198996681Y-107051984D01*
X199062145Y-107027566D01*
X199130418Y-107042417D01*
X199158673Y-107063569D01*
X199272213Y-107177109D01*
X199444179Y-107302048D01*
X199444181Y-107302049D01*
X199444184Y-107302051D01*
X199633588Y-107398557D01*
X199835757Y-107464246D01*
X200045713Y-107497500D01*
X200045714Y-107497500D01*
X200258286Y-107497500D01*
X200258287Y-107497500D01*
X200468243Y-107464246D01*
X200670412Y-107398557D01*
X200859816Y-107302051D01*
X200914572Y-107262269D01*
X201031786Y-107177109D01*
X201031788Y-107177106D01*
X201031792Y-107177104D01*
X201182104Y-107026792D01*
X201182106Y-107026788D01*
X201182109Y-107026786D01*
X201307048Y-106854820D01*
X201307047Y-106854820D01*
X201307051Y-106854816D01*
X201311514Y-106846054D01*
X201359488Y-106795259D01*
X201427308Y-106778463D01*
X201493444Y-106800999D01*
X201532486Y-106846056D01*
X201536951Y-106854820D01*
X201661890Y-107026786D01*
X201812213Y-107177109D01*
X201984179Y-107302048D01*
X201984181Y-107302049D01*
X201984184Y-107302051D01*
X202173588Y-107398557D01*
X202375757Y-107464246D01*
X202585713Y-107497500D01*
X202585714Y-107497500D01*
X202798286Y-107497500D01*
X202798287Y-107497500D01*
X203008243Y-107464246D01*
X203210412Y-107398557D01*
X203399816Y-107302051D01*
X203454572Y-107262269D01*
X203571786Y-107177109D01*
X203571788Y-107177106D01*
X203571792Y-107177104D01*
X203722104Y-107026792D01*
X203722106Y-107026788D01*
X203722109Y-107026786D01*
X203807890Y-106908717D01*
X203847051Y-106854816D01*
X203851793Y-106845508D01*
X203899763Y-106794711D01*
X203967583Y-106777911D01*
X204033719Y-106800445D01*
X204072763Y-106845500D01*
X204077373Y-106854547D01*
X204116728Y-106908716D01*
X204749037Y-106276408D01*
X204766075Y-106339993D01*
X204831901Y-106454007D01*
X204924993Y-106547099D01*
X205039007Y-106612925D01*
X205102590Y-106629962D01*
X204470282Y-107262269D01*
X204470282Y-107262270D01*
X204524449Y-107301624D01*
X204713782Y-107398095D01*
X204915870Y-107463757D01*
X205125754Y-107497000D01*
X205338246Y-107497000D01*
X205548127Y-107463757D01*
X205548130Y-107463757D01*
X205750217Y-107398095D01*
X205939554Y-107301622D01*
X205993716Y-107262270D01*
X205993717Y-107262270D01*
X205361408Y-106629962D01*
X205424993Y-106612925D01*
X205539007Y-106547099D01*
X205632099Y-106454007D01*
X205697925Y-106339993D01*
X205714962Y-106276408D01*
X206347270Y-106908717D01*
X206347270Y-106908716D01*
X206386622Y-106854554D01*
X206483095Y-106665217D01*
X206548757Y-106463130D01*
X206548757Y-106463127D01*
X206582000Y-106253246D01*
X206582000Y-106040753D01*
X206548757Y-105830872D01*
X206548757Y-105830869D01*
X206483095Y-105628782D01*
X206386624Y-105439449D01*
X206347270Y-105385282D01*
X206347269Y-105385282D01*
X205714962Y-106017590D01*
X205697925Y-105954007D01*
X205632099Y-105839993D01*
X205539007Y-105746901D01*
X205424993Y-105681075D01*
X205361409Y-105664037D01*
X205993716Y-105031728D01*
X205939550Y-104992375D01*
X205750217Y-104895904D01*
X205548129Y-104830242D01*
X205338246Y-104797000D01*
X205125754Y-104797000D01*
X204915872Y-104830242D01*
X204915869Y-104830242D01*
X204713782Y-104895904D01*
X204524439Y-104992380D01*
X204470282Y-105031727D01*
X204470282Y-105031728D01*
X205102591Y-105664037D01*
X205039007Y-105681075D01*
X204924993Y-105746901D01*
X204831901Y-105839993D01*
X204766075Y-105954007D01*
X204749037Y-106017591D01*
X204116728Y-105385282D01*
X204116727Y-105385282D01*
X204077380Y-105439440D01*
X204077376Y-105439446D01*
X204072760Y-105448505D01*
X204024781Y-105499297D01*
X203956959Y-105516087D01*
X203890826Y-105493543D01*
X203851794Y-105448493D01*
X203847051Y-105439184D01*
X203847049Y-105439181D01*
X203847048Y-105439179D01*
X203722109Y-105267213D01*
X203571786Y-105116890D01*
X203399820Y-104991951D01*
X203210414Y-104895444D01*
X203210413Y-104895443D01*
X203210412Y-104895443D01*
X203008243Y-104829754D01*
X203008241Y-104829753D01*
X203008240Y-104829753D01*
X202846957Y-104804208D01*
X202798287Y-104796500D01*
X202585713Y-104796500D01*
X202537042Y-104804208D01*
X202375760Y-104829753D01*
X202274672Y-104862598D01*
X202200512Y-104886695D01*
X202173585Y-104895444D01*
X201984179Y-104991951D01*
X201812213Y-105116890D01*
X201661890Y-105267213D01*
X201536949Y-105439182D01*
X201532484Y-105447946D01*
X201484509Y-105498742D01*
X201416688Y-105515536D01*
X201350553Y-105492998D01*
X201311516Y-105447946D01*
X201307050Y-105439182D01*
X201182109Y-105267213D01*
X201031786Y-105116890D01*
X200859820Y-104991951D01*
X200670414Y-104895444D01*
X200670413Y-104895443D01*
X200670412Y-104895443D01*
X200468243Y-104829754D01*
X200468241Y-104829753D01*
X200468240Y-104829753D01*
X200306957Y-104804208D01*
X200258287Y-104796500D01*
X200045713Y-104796500D01*
X199997042Y-104804208D01*
X199835760Y-104829753D01*
X199734672Y-104862598D01*
X199660512Y-104886695D01*
X199633585Y-104895444D01*
X199444179Y-104991951D01*
X199272215Y-105116889D01*
X199158673Y-105230431D01*
X199097350Y-105263915D01*
X199027658Y-105258931D01*
X198971725Y-105217059D01*
X198954810Y-105186082D01*
X198905797Y-105054671D01*
X198905793Y-105054664D01*
X198819547Y-104939455D01*
X198819544Y-104939452D01*
X198704335Y-104853206D01*
X198704328Y-104853202D01*
X198569482Y-104802908D01*
X198569483Y-104802908D01*
X198509883Y-104796501D01*
X198509881Y-104796500D01*
X198509873Y-104796500D01*
X198509864Y-104796500D01*
X196714129Y-104796500D01*
X196714123Y-104796501D01*
X196654516Y-104802908D01*
X196519671Y-104853202D01*
X196519664Y-104853206D01*
X196404455Y-104939452D01*
X196404452Y-104939455D01*
X196318206Y-105054664D01*
X196318202Y-105054671D01*
X196267908Y-105189517D01*
X196261501Y-105249116D01*
X196261500Y-105249135D01*
X182335290Y-105249135D01*
X182335290Y-103214500D01*
X182354975Y-103147461D01*
X182407779Y-103101706D01*
X182459290Y-103090500D01*
X184390738Y-103090500D01*
X184457777Y-103110185D01*
G37*
%TD.AperFunction*%
%TD*%
M02*
