M48
; DRILL file {KiCad 9.0.6} date 2026-03-31T20:51:54+0200
; FORMAT={-:-/ absolute / metric / decimal}
; #@! TF.CreationDate,2026-03-31T20:51:54+02:00
; #@! TF.GenerationSoftware,Kicad,Pcbnew,9.0.6
; #@! TF.FileFunction,Plated,1,2,PTH
FMAT,2
METRIC
; #@! TA.AperFunction,Plated,PTH,ComponentDrill
T1C0.750
; #@! TA.AperFunction,Plated,PTH,ComponentDrill
T2C0.800
; #@! TA.AperFunction,Plated,PTH,ComponentDrill
T3C0.900
; #@! TA.AperFunction,Plated,PTH,ComponentDrill
T4C1.000
; #@! TA.AperFunction,Plated,PTH,ComponentDrill
T5C1.100
; #@! TA.AperFunction,Plated,PTH,ComponentDrill
T6C1.300
%
G90
G05
T1
X187.96Y-118.904
X187.96Y-120.904
X187.96Y-127.032
X187.96Y-129.032
T2
X194.437Y-142.748
X197.347Y-115.5
X199.39Y-135.89
X200.847Y-115.5
X202.057Y-142.748
X207.01Y-135.89
X251.079Y-139.192
X252.19Y-161.4
X256.5Y-119.0
X258.699Y-139.192
X259.81Y-161.4
X261.366Y-144.907
X261.366Y-147.447
X261.366Y-149.987
X261.366Y-152.527
X261.5Y-119.0
T3
X258.735Y-167.0
X261.275Y-167.0
T4
X188.46Y-158.4
X188.46Y-163.0
X188.468Y-147.828
X188.468Y-153.416
X188.493Y-138.684
X188.493Y-141.224
X191.0Y-158.4
X191.0Y-163.0
X191.008Y-147.828
X191.008Y-153.416
X193.54Y-158.4
X193.54Y-163.0
X193.548Y-147.828
X193.548Y-153.416
X197.612Y-106.147
X199.263Y-163.576
X199.263Y-166.116
X199.263Y-168.656
X200.152Y-106.147
X202.692Y-106.147
X204.724Y-163.576
X204.724Y-166.116
X204.724Y-168.656
X205.232Y-106.147
X212.852Y-125.476
X212.852Y-128.016
X212.852Y-130.556
X212.852Y-133.096
X212.852Y-135.636
X212.852Y-138.176
X212.852Y-140.716
X212.852Y-143.256
X212.852Y-145.796
X212.852Y-148.336
X212.852Y-150.876
X212.852Y-153.416
X212.852Y-155.956
X212.852Y-158.496
X212.852Y-161.036
X217.399Y-125.496
X217.399Y-128.036
X217.399Y-130.576
X217.399Y-133.116
X217.399Y-135.656
X217.399Y-138.196
X217.399Y-140.736
X217.399Y-143.276
X217.399Y-145.816
X217.399Y-148.356
X217.399Y-150.896
X217.399Y-153.436
X217.399Y-155.976
X217.399Y-158.516
X217.399Y-161.056
X243.307Y-125.446
X243.307Y-127.986
X243.307Y-130.526
X243.307Y-133.066
X243.307Y-135.606
X243.307Y-138.146
X243.307Y-140.686
X243.307Y-143.226
X243.307Y-145.766
X243.307Y-148.306
X243.307Y-150.846
X243.307Y-153.386
X243.307Y-155.926
X243.307Y-158.466
X243.307Y-161.006
X247.396Y-125.476
X247.396Y-128.016
X247.396Y-130.556
X247.396Y-133.096
X247.396Y-135.636
X247.396Y-138.176
X247.396Y-140.716
X247.396Y-143.256
X247.396Y-145.796
X247.396Y-148.336
X247.396Y-150.876
X247.396Y-153.416
X247.396Y-155.956
X247.396Y-158.496
X247.396Y-161.036
X257.81Y-124.587
X257.81Y-127.127
X257.81Y-129.667
X257.81Y-132.207
X277.778Y-131.87
X277.778Y-134.41
X277.778Y-136.95
X277.778Y-139.49
T5
X196.596Y-130.998
X199.136Y-130.998
X201.676Y-130.998
T6
X211.876Y-109.047
X216.876Y-109.047
X230.164Y-109.047
X235.164Y-109.047
X242.864Y-109.047
X247.864Y-109.047
X255.096Y-108.712
X260.096Y-108.712
X275.746Y-115.393
X275.746Y-120.393
X275.746Y-125.393
X276.0Y-146.0
X276.0Y-151.0
X276.0Y-156.0
X276.0Y-161.0
M30
