%TF.GenerationSoftware,KiCad,Pcbnew,9.0.6*%
%TF.CreationDate,2026-03-31T20:51:52+02:00*%
%TF.ProjectId,SegmaSirra,5365676d-6153-4697-9272-612e6b696361,rev?*%
%TF.SameCoordinates,Original*%
%TF.FileFunction,Soldermask,Top*%
%TF.FilePolarity,Negative*%
%FSLAX46Y46*%
G04 Gerber Fmt 4.6, Leading zero omitted, Abs format (unit mm)*
G04 Created by KiCad (PCBNEW 9.0.6) date 2026-03-31 20:51:52*
%MOMM*%
%LPD*%
G01*
G04 APERTURE LIST*
G04 Aperture macros list*
%AMRoundRect*
0 Rectangle with rounded corners*
0 $1 Rounding radius*
0 $2 $3 $4 $5 $6 $7 $8 $9 X,Y pos of 4 corners*
0 Add a 4 corners polygon primitive as box body*
4,1,4,$2,$3,$4,$5,$6,$7,$8,$9,$2,$3,0*
0 Add four circle primitives for the rounded corners*
1,1,$1+$1,$2,$3*
1,1,$1+$1,$4,$5*
1,1,$1+$1,$6,$7*
1,1,$1+$1,$8,$9*
0 Add four rect primitives between the rounded corners*
20,1,$1+$1,$2,$3,$4,$5,0*
20,1,$1+$1,$4,$5,$6,$7,0*
20,1,$1+$1,$6,$7,$8,$9,0*
20,1,$1+$1,$8,$9,$2,$3,0*%
G04 Aperture macros list end*
%ADD10C,3.200000*%
%ADD11R,1.800000X1.800000*%
%ADD12C,1.800000*%
%ADD13R,1.700000X1.700000*%
%ADD14C,1.700000*%
%ADD15C,1.600000*%
%ADD16R,1.500000X1.500000*%
%ADD17C,1.500000*%
%ADD18RoundRect,0.250000X1.050000X-1.050000X1.050000X1.050000X-1.050000X1.050000X-1.050000X-1.050000X0*%
%ADD19C,2.600000*%
%ADD20RoundRect,0.250000X-0.550000X-0.550000X0.550000X-0.550000X0.550000X0.550000X-0.550000X0.550000X0*%
%ADD21RoundRect,0.250000X1.050000X1.050000X-1.050000X1.050000X-1.050000X-1.050000X1.050000X-1.050000X0*%
%ADD22RoundRect,0.250000X0.625000X-0.350000X0.625000X0.350000X-0.625000X0.350000X-0.625000X-0.350000X0*%
%ADD23O,1.750000X1.200000*%
%ADD24R,1.905000X2.000000*%
%ADD25O,1.905000X2.000000*%
G04 APERTURE END LIST*
D10*
%TO.C,REF\u002A\u002A*%
X187000000Y-170000000D03*
%TD*%
D11*
%TO.C,D1*%
X261275000Y-167000000D03*
D12*
X258735000Y-167000000D03*
%TD*%
D13*
%TO.C,J3*%
X247396000Y-161036000D03*
D14*
X247396000Y-158496000D03*
X247396000Y-155956000D03*
X247396000Y-153416000D03*
X247396000Y-150876000D03*
X247396000Y-148336000D03*
X247396000Y-145796000D03*
X247396000Y-143256000D03*
X247396000Y-140716000D03*
X247396000Y-138176000D03*
X247396000Y-135636000D03*
X247396000Y-133096000D03*
X247396000Y-130556000D03*
X247396000Y-128016000D03*
X247396000Y-125476000D03*
%TD*%
D13*
%TO.C,J24*%
X217399000Y-125496000D03*
D14*
X217399000Y-128036000D03*
X217399000Y-130576000D03*
X217399000Y-133116000D03*
X217399000Y-135656000D03*
X217399000Y-138196000D03*
X217399000Y-140736000D03*
X217399000Y-143276000D03*
X217399000Y-145816000D03*
X217399000Y-148356000D03*
X217399000Y-150896000D03*
X217399000Y-153436000D03*
X217399000Y-155976000D03*
X217399000Y-158516000D03*
X217399000Y-161056000D03*
%TD*%
D15*
%TO.C,R1*%
X259810000Y-161400000D03*
X252190000Y-161400000D03*
%TD*%
D13*
%TO.C,J8*%
X199263000Y-163576000D03*
D14*
X199263000Y-166116000D03*
X199263000Y-168656000D03*
%TD*%
D16*
%TO.C,U1*%
X261366000Y-144907000D03*
D17*
X261366000Y-147447000D03*
X261366000Y-149987000D03*
X261366000Y-152527000D03*
%TD*%
D13*
%TO.C,J7*%
X188460000Y-158400000D03*
D14*
X191000000Y-158400000D03*
X193540000Y-158400000D03*
%TD*%
D10*
%TO.C,REF\u002A\u002A*%
X277000000Y-108000000D03*
%TD*%
%TO.C,REF\u002A\u002A*%
X187000000Y-108000000D03*
%TD*%
D18*
%TO.C,J19*%
X276000000Y-161000000D03*
D19*
X276000000Y-156000000D03*
X276000000Y-151000000D03*
X276000000Y-146000000D03*
%TD*%
D10*
%TO.C,REF\u002A\u002A*%
X277000000Y-170000000D03*
%TD*%
D20*
%TO.C,C2*%
X197347349Y-115500000D03*
D15*
X200847349Y-115500000D03*
%TD*%
D21*
%TO.C,J18*%
X216876000Y-109047500D03*
D19*
X211876000Y-109047500D03*
%TD*%
D22*
%TO.C,J12*%
X187960000Y-129032000D03*
D23*
X187960000Y-127032000D03*
%TD*%
D15*
%TO.C,R5*%
X251079000Y-139192000D03*
X258699000Y-139192000D03*
%TD*%
D13*
%TO.C,J6*%
X188460000Y-163000000D03*
D14*
X191000000Y-163000000D03*
X193540000Y-163000000D03*
%TD*%
D15*
%TO.C,R2*%
X199390000Y-135890000D03*
X207010000Y-135890000D03*
%TD*%
D13*
%TO.C,J23*%
X243307000Y-161006000D03*
D14*
X243307000Y-158466000D03*
X243307000Y-155926000D03*
X243307000Y-153386000D03*
X243307000Y-150846000D03*
X243307000Y-148306000D03*
X243307000Y-145766000D03*
X243307000Y-143226000D03*
X243307000Y-140686000D03*
X243307000Y-138146000D03*
X243307000Y-135606000D03*
X243307000Y-133066000D03*
X243307000Y-130526000D03*
X243307000Y-127986000D03*
X243307000Y-125446000D03*
%TD*%
D21*
%TO.C,J4*%
X235164000Y-109047500D03*
D19*
X230164000Y-109047500D03*
%TD*%
D13*
%TO.C,J15*%
X277778000Y-139490000D03*
D14*
X277778000Y-136950000D03*
X277778000Y-134410000D03*
X277778000Y-131870000D03*
%TD*%
D22*
%TO.C,J11*%
X187960000Y-120904000D03*
D23*
X187960000Y-118904000D03*
%TD*%
D15*
%TO.C,R4*%
X202057000Y-142748000D03*
X194437000Y-142748000D03*
%TD*%
D13*
%TO.C,J2*%
X212852000Y-125476000D03*
D14*
X212852000Y-128016000D03*
X212852000Y-130556000D03*
X212852000Y-133096000D03*
X212852000Y-135636000D03*
X212852000Y-138176000D03*
X212852000Y-140716000D03*
X212852000Y-143256000D03*
X212852000Y-145796000D03*
X212852000Y-148336000D03*
X212852000Y-150876000D03*
X212852000Y-153416000D03*
X212852000Y-155956000D03*
X212852000Y-158496000D03*
X212852000Y-161036000D03*
%TD*%
D17*
%TO.C,TP3*%
X210312000Y-169418000D03*
%TD*%
D21*
%TO.C,J1*%
X247864000Y-109047500D03*
D19*
X242864000Y-109047500D03*
%TD*%
D17*
%TO.C,TP1*%
X254000000Y-156718000D03*
%TD*%
D13*
%TO.C,J9*%
X204724000Y-163576000D03*
D14*
X204724000Y-166116000D03*
X204724000Y-168656000D03*
%TD*%
D17*
%TO.C,TP2*%
X266446000Y-108839000D03*
%TD*%
D21*
%TO.C,J5*%
X260096000Y-108712000D03*
D19*
X255096000Y-108712000D03*
%TD*%
D13*
%TO.C,J14*%
X197612000Y-106147000D03*
D14*
X200152000Y-106147000D03*
X202692000Y-106147000D03*
X205232000Y-106147000D03*
%TD*%
D13*
%TO.C,J17*%
X188468000Y-147828000D03*
D14*
X191008000Y-147828000D03*
X193548000Y-147828000D03*
%TD*%
D15*
%TO.C,C1*%
X256500000Y-119000000D03*
X261500000Y-119000000D03*
%TD*%
D13*
%TO.C,J20*%
X257810000Y-132207000D03*
D14*
X257810000Y-129667000D03*
X257810000Y-127127000D03*
X257810000Y-124587000D03*
%TD*%
D13*
%TO.C,J16*%
X188468000Y-153416000D03*
D14*
X191008000Y-153416000D03*
X193548000Y-153416000D03*
%TD*%
D18*
%TO.C,J10*%
X275746000Y-125393000D03*
D19*
X275746000Y-120393000D03*
X275746000Y-115393000D03*
%TD*%
D24*
%TO.C,Q1*%
X196596000Y-130998000D03*
D25*
X199136000Y-130998000D03*
X201676000Y-130998000D03*
%TD*%
D13*
%TO.C,J13*%
X188493000Y-138684000D03*
D14*
X188493000Y-141224000D03*
%TD*%
M02*
