%TF.GenerationSoftware,KiCad,Pcbnew,9.0.6*%
%TF.CreationDate,2026-03-31T20:51:52+02:00*%
%TF.ProjectId,SegmaSirra,5365676d-6153-4697-9272-612e6b696361,rev?*%
%TF.SameCoordinates,Original*%
%TF.FileFunction,Legend,Top*%
%TF.FilePolarity,Positive*%
%FSLAX46Y46*%
G04 Gerber Fmt 4.6, Leading zero omitted, Abs format (unit mm)*
G04 Created by KiCad (PCBNEW 9.0.6) date 2026-03-31 20:51:52*
%MOMM*%
%LPD*%
G01*
G04 APERTURE LIST*
%ADD10C,0.600000*%
%ADD11C,0.150000*%
%ADD12C,0.120000*%
G04 APERTURE END LIST*
D10*
X214516640Y-170992800D02*
X215088069Y-171183276D01*
X215088069Y-171183276D02*
X216040450Y-171183276D01*
X216040450Y-171183276D02*
X216421402Y-170992800D01*
X216421402Y-170992800D02*
X216611878Y-170802323D01*
X216611878Y-170802323D02*
X216802355Y-170421371D01*
X216802355Y-170421371D02*
X216802355Y-170040419D01*
X216802355Y-170040419D02*
X216611878Y-169659466D01*
X216611878Y-169659466D02*
X216421402Y-169468990D01*
X216421402Y-169468990D02*
X216040450Y-169278514D01*
X216040450Y-169278514D02*
X215278545Y-169088038D01*
X215278545Y-169088038D02*
X214897593Y-168897561D01*
X214897593Y-168897561D02*
X214707116Y-168707085D01*
X214707116Y-168707085D02*
X214516640Y-168326133D01*
X214516640Y-168326133D02*
X214516640Y-167945180D01*
X214516640Y-167945180D02*
X214707116Y-167564228D01*
X214707116Y-167564228D02*
X214897593Y-167373752D01*
X214897593Y-167373752D02*
X215278545Y-167183276D01*
X215278545Y-167183276D02*
X216230926Y-167183276D01*
X216230926Y-167183276D02*
X216802355Y-167373752D01*
X220040450Y-170992800D02*
X219659498Y-171183276D01*
X219659498Y-171183276D02*
X218897593Y-171183276D01*
X218897593Y-171183276D02*
X218516640Y-170992800D01*
X218516640Y-170992800D02*
X218326164Y-170611847D01*
X218326164Y-170611847D02*
X218326164Y-169088038D01*
X218326164Y-169088038D02*
X218516640Y-168707085D01*
X218516640Y-168707085D02*
X218897593Y-168516609D01*
X218897593Y-168516609D02*
X219659498Y-168516609D01*
X219659498Y-168516609D02*
X220040450Y-168707085D01*
X220040450Y-168707085D02*
X220230926Y-169088038D01*
X220230926Y-169088038D02*
X220230926Y-169468990D01*
X220230926Y-169468990D02*
X218326164Y-169849942D01*
X223659497Y-168516609D02*
X223659497Y-171754704D01*
X223659497Y-171754704D02*
X223469021Y-172135657D01*
X223469021Y-172135657D02*
X223278545Y-172326133D01*
X223278545Y-172326133D02*
X222897592Y-172516609D01*
X222897592Y-172516609D02*
X222326164Y-172516609D01*
X222326164Y-172516609D02*
X221945211Y-172326133D01*
X223659497Y-170992800D02*
X223278545Y-171183276D01*
X223278545Y-171183276D02*
X222516640Y-171183276D01*
X222516640Y-171183276D02*
X222135688Y-170992800D01*
X222135688Y-170992800D02*
X221945211Y-170802323D01*
X221945211Y-170802323D02*
X221754735Y-170421371D01*
X221754735Y-170421371D02*
X221754735Y-169278514D01*
X221754735Y-169278514D02*
X221945211Y-168897561D01*
X221945211Y-168897561D02*
X222135688Y-168707085D01*
X222135688Y-168707085D02*
X222516640Y-168516609D01*
X222516640Y-168516609D02*
X223278545Y-168516609D01*
X223278545Y-168516609D02*
X223659497Y-168707085D01*
X225564259Y-171183276D02*
X225564259Y-168516609D01*
X225564259Y-168897561D02*
X225754736Y-168707085D01*
X225754736Y-168707085D02*
X226135688Y-168516609D01*
X226135688Y-168516609D02*
X226707117Y-168516609D01*
X226707117Y-168516609D02*
X227088069Y-168707085D01*
X227088069Y-168707085D02*
X227278545Y-169088038D01*
X227278545Y-169088038D02*
X227278545Y-171183276D01*
X227278545Y-169088038D02*
X227469021Y-168707085D01*
X227469021Y-168707085D02*
X227849974Y-168516609D01*
X227849974Y-168516609D02*
X228421402Y-168516609D01*
X228421402Y-168516609D02*
X228802355Y-168707085D01*
X228802355Y-168707085D02*
X228992831Y-169088038D01*
X228992831Y-169088038D02*
X228992831Y-171183276D01*
X232611878Y-171183276D02*
X232611878Y-169088038D01*
X232611878Y-169088038D02*
X232421402Y-168707085D01*
X232421402Y-168707085D02*
X232040450Y-168516609D01*
X232040450Y-168516609D02*
X231278545Y-168516609D01*
X231278545Y-168516609D02*
X230897592Y-168707085D01*
X232611878Y-170992800D02*
X232230926Y-171183276D01*
X232230926Y-171183276D02*
X231278545Y-171183276D01*
X231278545Y-171183276D02*
X230897592Y-170992800D01*
X230897592Y-170992800D02*
X230707116Y-170611847D01*
X230707116Y-170611847D02*
X230707116Y-170230895D01*
X230707116Y-170230895D02*
X230897592Y-169849942D01*
X230897592Y-169849942D02*
X231278545Y-169659466D01*
X231278545Y-169659466D02*
X232230926Y-169659466D01*
X232230926Y-169659466D02*
X232611878Y-169468990D01*
X234326164Y-170992800D02*
X234897593Y-171183276D01*
X234897593Y-171183276D02*
X235849974Y-171183276D01*
X235849974Y-171183276D02*
X236230926Y-170992800D01*
X236230926Y-170992800D02*
X236421402Y-170802323D01*
X236421402Y-170802323D02*
X236611879Y-170421371D01*
X236611879Y-170421371D02*
X236611879Y-170040419D01*
X236611879Y-170040419D02*
X236421402Y-169659466D01*
X236421402Y-169659466D02*
X236230926Y-169468990D01*
X236230926Y-169468990D02*
X235849974Y-169278514D01*
X235849974Y-169278514D02*
X235088069Y-169088038D01*
X235088069Y-169088038D02*
X234707117Y-168897561D01*
X234707117Y-168897561D02*
X234516640Y-168707085D01*
X234516640Y-168707085D02*
X234326164Y-168326133D01*
X234326164Y-168326133D02*
X234326164Y-167945180D01*
X234326164Y-167945180D02*
X234516640Y-167564228D01*
X234516640Y-167564228D02*
X234707117Y-167373752D01*
X234707117Y-167373752D02*
X235088069Y-167183276D01*
X235088069Y-167183276D02*
X236040450Y-167183276D01*
X236040450Y-167183276D02*
X236611879Y-167373752D01*
X238326164Y-171183276D02*
X238326164Y-168516609D01*
X238326164Y-167183276D02*
X238135688Y-167373752D01*
X238135688Y-167373752D02*
X238326164Y-167564228D01*
X238326164Y-167564228D02*
X238516641Y-167373752D01*
X238516641Y-167373752D02*
X238326164Y-167183276D01*
X238326164Y-167183276D02*
X238326164Y-167564228D01*
X240230926Y-171183276D02*
X240230926Y-168516609D01*
X240230926Y-169278514D02*
X240421403Y-168897561D01*
X240421403Y-168897561D02*
X240611879Y-168707085D01*
X240611879Y-168707085D02*
X240992831Y-168516609D01*
X240992831Y-168516609D02*
X241373784Y-168516609D01*
X242707116Y-171183276D02*
X242707116Y-168516609D01*
X242707116Y-169278514D02*
X242897593Y-168897561D01*
X242897593Y-168897561D02*
X243088069Y-168707085D01*
X243088069Y-168707085D02*
X243469021Y-168516609D01*
X243469021Y-168516609D02*
X243849974Y-168516609D01*
X246897592Y-171183276D02*
X246897592Y-169088038D01*
X246897592Y-169088038D02*
X246707116Y-168707085D01*
X246707116Y-168707085D02*
X246326164Y-168516609D01*
X246326164Y-168516609D02*
X245564259Y-168516609D01*
X245564259Y-168516609D02*
X245183306Y-168707085D01*
X246897592Y-170992800D02*
X246516640Y-171183276D01*
X246516640Y-171183276D02*
X245564259Y-171183276D01*
X245564259Y-171183276D02*
X245183306Y-170992800D01*
X245183306Y-170992800D02*
X244992830Y-170611847D01*
X244992830Y-170611847D02*
X244992830Y-170230895D01*
X244992830Y-170230895D02*
X245183306Y-169849942D01*
X245183306Y-169849942D02*
X245564259Y-169659466D01*
X245564259Y-169659466D02*
X246516640Y-169659466D01*
X246516640Y-169659466D02*
X246897592Y-169468990D01*
D11*
X259266905Y-171414819D02*
X259266905Y-170414819D01*
X259266905Y-170414819D02*
X259505000Y-170414819D01*
X259505000Y-170414819D02*
X259647857Y-170462438D01*
X259647857Y-170462438D02*
X259743095Y-170557676D01*
X259743095Y-170557676D02*
X259790714Y-170652914D01*
X259790714Y-170652914D02*
X259838333Y-170843390D01*
X259838333Y-170843390D02*
X259838333Y-170986247D01*
X259838333Y-170986247D02*
X259790714Y-171176723D01*
X259790714Y-171176723D02*
X259743095Y-171271961D01*
X259743095Y-171271961D02*
X259647857Y-171367200D01*
X259647857Y-171367200D02*
X259505000Y-171414819D01*
X259505000Y-171414819D02*
X259266905Y-171414819D01*
X260790714Y-171414819D02*
X260219286Y-171414819D01*
X260505000Y-171414819D02*
X260505000Y-170414819D01*
X260505000Y-170414819D02*
X260409762Y-170557676D01*
X260409762Y-170557676D02*
X260314524Y-170652914D01*
X260314524Y-170652914D02*
X260219286Y-170700533D01*
X247062666Y-163260819D02*
X247062666Y-163975104D01*
X247062666Y-163975104D02*
X247015047Y-164117961D01*
X247015047Y-164117961D02*
X246919809Y-164213200D01*
X246919809Y-164213200D02*
X246776952Y-164260819D01*
X246776952Y-164260819D02*
X246681714Y-164260819D01*
X247443619Y-163260819D02*
X248062666Y-163260819D01*
X248062666Y-163260819D02*
X247729333Y-163641771D01*
X247729333Y-163641771D02*
X247872190Y-163641771D01*
X247872190Y-163641771D02*
X247967428Y-163689390D01*
X247967428Y-163689390D02*
X248015047Y-163737009D01*
X248015047Y-163737009D02*
X248062666Y-163832247D01*
X248062666Y-163832247D02*
X248062666Y-164070342D01*
X248062666Y-164070342D02*
X248015047Y-164165580D01*
X248015047Y-164165580D02*
X247967428Y-164213200D01*
X247967428Y-164213200D02*
X247872190Y-164260819D01*
X247872190Y-164260819D02*
X247586476Y-164260819D01*
X247586476Y-164260819D02*
X247491238Y-164213200D01*
X247491238Y-164213200D02*
X247443619Y-164165580D01*
X216589476Y-122180819D02*
X216589476Y-122895104D01*
X216589476Y-122895104D02*
X216541857Y-123037961D01*
X216541857Y-123037961D02*
X216446619Y-123133200D01*
X216446619Y-123133200D02*
X216303762Y-123180819D01*
X216303762Y-123180819D02*
X216208524Y-123180819D01*
X217018048Y-122276057D02*
X217065667Y-122228438D01*
X217065667Y-122228438D02*
X217160905Y-122180819D01*
X217160905Y-122180819D02*
X217399000Y-122180819D01*
X217399000Y-122180819D02*
X217494238Y-122228438D01*
X217494238Y-122228438D02*
X217541857Y-122276057D01*
X217541857Y-122276057D02*
X217589476Y-122371295D01*
X217589476Y-122371295D02*
X217589476Y-122466533D01*
X217589476Y-122466533D02*
X217541857Y-122609390D01*
X217541857Y-122609390D02*
X216970429Y-123180819D01*
X216970429Y-123180819D02*
X217589476Y-123180819D01*
X218446619Y-122514152D02*
X218446619Y-123180819D01*
X218208524Y-122133200D02*
X217970429Y-122847485D01*
X217970429Y-122847485D02*
X218589476Y-122847485D01*
X255833333Y-164224819D02*
X255500000Y-163748628D01*
X255261905Y-164224819D02*
X255261905Y-163224819D01*
X255261905Y-163224819D02*
X255642857Y-163224819D01*
X255642857Y-163224819D02*
X255738095Y-163272438D01*
X255738095Y-163272438D02*
X255785714Y-163320057D01*
X255785714Y-163320057D02*
X255833333Y-163415295D01*
X255833333Y-163415295D02*
X255833333Y-163558152D01*
X255833333Y-163558152D02*
X255785714Y-163653390D01*
X255785714Y-163653390D02*
X255738095Y-163701009D01*
X255738095Y-163701009D02*
X255642857Y-163748628D01*
X255642857Y-163748628D02*
X255261905Y-163748628D01*
X256785714Y-164224819D02*
X256214286Y-164224819D01*
X256500000Y-164224819D02*
X256500000Y-163224819D01*
X256500000Y-163224819D02*
X256404762Y-163367676D01*
X256404762Y-163367676D02*
X256309524Y-163462914D01*
X256309524Y-163462914D02*
X256214286Y-163510533D01*
X198929666Y-160260819D02*
X198929666Y-160975104D01*
X198929666Y-160975104D02*
X198882047Y-161117961D01*
X198882047Y-161117961D02*
X198786809Y-161213200D01*
X198786809Y-161213200D02*
X198643952Y-161260819D01*
X198643952Y-161260819D02*
X198548714Y-161260819D01*
X199548714Y-160689390D02*
X199453476Y-160641771D01*
X199453476Y-160641771D02*
X199405857Y-160594152D01*
X199405857Y-160594152D02*
X199358238Y-160498914D01*
X199358238Y-160498914D02*
X199358238Y-160451295D01*
X199358238Y-160451295D02*
X199405857Y-160356057D01*
X199405857Y-160356057D02*
X199453476Y-160308438D01*
X199453476Y-160308438D02*
X199548714Y-160260819D01*
X199548714Y-160260819D02*
X199739190Y-160260819D01*
X199739190Y-160260819D02*
X199834428Y-160308438D01*
X199834428Y-160308438D02*
X199882047Y-160356057D01*
X199882047Y-160356057D02*
X199929666Y-160451295D01*
X199929666Y-160451295D02*
X199929666Y-160498914D01*
X199929666Y-160498914D02*
X199882047Y-160594152D01*
X199882047Y-160594152D02*
X199834428Y-160641771D01*
X199834428Y-160641771D02*
X199739190Y-160689390D01*
X199739190Y-160689390D02*
X199548714Y-160689390D01*
X199548714Y-160689390D02*
X199453476Y-160737009D01*
X199453476Y-160737009D02*
X199405857Y-160784628D01*
X199405857Y-160784628D02*
X199358238Y-160879866D01*
X199358238Y-160879866D02*
X199358238Y-161070342D01*
X199358238Y-161070342D02*
X199405857Y-161165580D01*
X199405857Y-161165580D02*
X199453476Y-161213200D01*
X199453476Y-161213200D02*
X199548714Y-161260819D01*
X199548714Y-161260819D02*
X199739190Y-161260819D01*
X199739190Y-161260819D02*
X199834428Y-161213200D01*
X199834428Y-161213200D02*
X199882047Y-161165580D01*
X199882047Y-161165580D02*
X199929666Y-161070342D01*
X199929666Y-161070342D02*
X199929666Y-160879866D01*
X199929666Y-160879866D02*
X199882047Y-160784628D01*
X199882047Y-160784628D02*
X199834428Y-160737009D01*
X199834428Y-160737009D02*
X199739190Y-160689390D01*
X259604095Y-140861819D02*
X259604095Y-141671342D01*
X259604095Y-141671342D02*
X259651714Y-141766580D01*
X259651714Y-141766580D02*
X259699333Y-141814200D01*
X259699333Y-141814200D02*
X259794571Y-141861819D01*
X259794571Y-141861819D02*
X259985047Y-141861819D01*
X259985047Y-141861819D02*
X260080285Y-141814200D01*
X260080285Y-141814200D02*
X260127904Y-141766580D01*
X260127904Y-141766580D02*
X260175523Y-141671342D01*
X260175523Y-141671342D02*
X260175523Y-140861819D01*
X261175523Y-141861819D02*
X260604095Y-141861819D01*
X260889809Y-141861819D02*
X260889809Y-140861819D01*
X260889809Y-140861819D02*
X260794571Y-141004676D01*
X260794571Y-141004676D02*
X260699333Y-141099914D01*
X260699333Y-141099914D02*
X260604095Y-141147533D01*
X185144819Y-158733333D02*
X185859104Y-158733333D01*
X185859104Y-158733333D02*
X186001961Y-158780952D01*
X186001961Y-158780952D02*
X186097200Y-158876190D01*
X186097200Y-158876190D02*
X186144819Y-159019047D01*
X186144819Y-159019047D02*
X186144819Y-159114285D01*
X185144819Y-158352380D02*
X185144819Y-157685714D01*
X185144819Y-157685714D02*
X186144819Y-158114285D01*
X269134819Y-154309523D02*
X269849104Y-154309523D01*
X269849104Y-154309523D02*
X269991961Y-154357142D01*
X269991961Y-154357142D02*
X270087200Y-154452380D01*
X270087200Y-154452380D02*
X270134819Y-154595237D01*
X270134819Y-154595237D02*
X270134819Y-154690475D01*
X270134819Y-153309523D02*
X270134819Y-153880951D01*
X270134819Y-153595237D02*
X269134819Y-153595237D01*
X269134819Y-153595237D02*
X269277676Y-153690475D01*
X269277676Y-153690475D02*
X269372914Y-153785713D01*
X269372914Y-153785713D02*
X269420533Y-153880951D01*
X270134819Y-152833332D02*
X270134819Y-152642856D01*
X270134819Y-152642856D02*
X270087200Y-152547618D01*
X270087200Y-152547618D02*
X270039580Y-152499999D01*
X270039580Y-152499999D02*
X269896723Y-152404761D01*
X269896723Y-152404761D02*
X269706247Y-152357142D01*
X269706247Y-152357142D02*
X269325295Y-152357142D01*
X269325295Y-152357142D02*
X269230057Y-152404761D01*
X269230057Y-152404761D02*
X269182438Y-152452380D01*
X269182438Y-152452380D02*
X269134819Y-152547618D01*
X269134819Y-152547618D02*
X269134819Y-152738094D01*
X269134819Y-152738094D02*
X269182438Y-152833332D01*
X269182438Y-152833332D02*
X269230057Y-152880951D01*
X269230057Y-152880951D02*
X269325295Y-152928570D01*
X269325295Y-152928570D02*
X269563390Y-152928570D01*
X269563390Y-152928570D02*
X269658628Y-152880951D01*
X269658628Y-152880951D02*
X269706247Y-152833332D01*
X269706247Y-152833332D02*
X269753866Y-152738094D01*
X269753866Y-152738094D02*
X269753866Y-152547618D01*
X269753866Y-152547618D02*
X269706247Y-152452380D01*
X269706247Y-152452380D02*
X269658628Y-152404761D01*
X269658628Y-152404761D02*
X269563390Y-152357142D01*
X198930682Y-110609580D02*
X198883063Y-110657200D01*
X198883063Y-110657200D02*
X198740206Y-110704819D01*
X198740206Y-110704819D02*
X198644968Y-110704819D01*
X198644968Y-110704819D02*
X198502111Y-110657200D01*
X198502111Y-110657200D02*
X198406873Y-110561961D01*
X198406873Y-110561961D02*
X198359254Y-110466723D01*
X198359254Y-110466723D02*
X198311635Y-110276247D01*
X198311635Y-110276247D02*
X198311635Y-110133390D01*
X198311635Y-110133390D02*
X198359254Y-109942914D01*
X198359254Y-109942914D02*
X198406873Y-109847676D01*
X198406873Y-109847676D02*
X198502111Y-109752438D01*
X198502111Y-109752438D02*
X198644968Y-109704819D01*
X198644968Y-109704819D02*
X198740206Y-109704819D01*
X198740206Y-109704819D02*
X198883063Y-109752438D01*
X198883063Y-109752438D02*
X198930682Y-109800057D01*
X199311635Y-109800057D02*
X199359254Y-109752438D01*
X199359254Y-109752438D02*
X199454492Y-109704819D01*
X199454492Y-109704819D02*
X199692587Y-109704819D01*
X199692587Y-109704819D02*
X199787825Y-109752438D01*
X199787825Y-109752438D02*
X199835444Y-109800057D01*
X199835444Y-109800057D02*
X199883063Y-109895295D01*
X199883063Y-109895295D02*
X199883063Y-109990533D01*
X199883063Y-109990533D02*
X199835444Y-110133390D01*
X199835444Y-110133390D02*
X199264016Y-110704819D01*
X199264016Y-110704819D02*
X199883063Y-110704819D01*
X213566476Y-114822319D02*
X213566476Y-115536604D01*
X213566476Y-115536604D02*
X213518857Y-115679461D01*
X213518857Y-115679461D02*
X213423619Y-115774700D01*
X213423619Y-115774700D02*
X213280762Y-115822319D01*
X213280762Y-115822319D02*
X213185524Y-115822319D01*
X214566476Y-115822319D02*
X213995048Y-115822319D01*
X214280762Y-115822319D02*
X214280762Y-114822319D01*
X214280762Y-114822319D02*
X214185524Y-114965176D01*
X214185524Y-114965176D02*
X214090286Y-115060414D01*
X214090286Y-115060414D02*
X213995048Y-115108033D01*
X215137905Y-115250890D02*
X215042667Y-115203271D01*
X215042667Y-115203271D02*
X214995048Y-115155652D01*
X214995048Y-115155652D02*
X214947429Y-115060414D01*
X214947429Y-115060414D02*
X214947429Y-115012795D01*
X214947429Y-115012795D02*
X214995048Y-114917557D01*
X214995048Y-114917557D02*
X215042667Y-114869938D01*
X215042667Y-114869938D02*
X215137905Y-114822319D01*
X215137905Y-114822319D02*
X215328381Y-114822319D01*
X215328381Y-114822319D02*
X215423619Y-114869938D01*
X215423619Y-114869938D02*
X215471238Y-114917557D01*
X215471238Y-114917557D02*
X215518857Y-115012795D01*
X215518857Y-115012795D02*
X215518857Y-115060414D01*
X215518857Y-115060414D02*
X215471238Y-115155652D01*
X215471238Y-115155652D02*
X215423619Y-115203271D01*
X215423619Y-115203271D02*
X215328381Y-115250890D01*
X215328381Y-115250890D02*
X215137905Y-115250890D01*
X215137905Y-115250890D02*
X215042667Y-115298509D01*
X215042667Y-115298509D02*
X214995048Y-115346128D01*
X214995048Y-115346128D02*
X214947429Y-115441366D01*
X214947429Y-115441366D02*
X214947429Y-115631842D01*
X214947429Y-115631842D02*
X214995048Y-115727080D01*
X214995048Y-115727080D02*
X215042667Y-115774700D01*
X215042667Y-115774700D02*
X215137905Y-115822319D01*
X215137905Y-115822319D02*
X215328381Y-115822319D01*
X215328381Y-115822319D02*
X215423619Y-115774700D01*
X215423619Y-115774700D02*
X215471238Y-115727080D01*
X215471238Y-115727080D02*
X215518857Y-115631842D01*
X215518857Y-115631842D02*
X215518857Y-115441366D01*
X215518857Y-115441366D02*
X215471238Y-115346128D01*
X215471238Y-115346128D02*
X215423619Y-115298509D01*
X215423619Y-115298509D02*
X215328381Y-115250890D01*
X184514819Y-128841523D02*
X185229104Y-128841523D01*
X185229104Y-128841523D02*
X185371961Y-128889142D01*
X185371961Y-128889142D02*
X185467200Y-128984380D01*
X185467200Y-128984380D02*
X185514819Y-129127237D01*
X185514819Y-129127237D02*
X185514819Y-129222475D01*
X185514819Y-127841523D02*
X185514819Y-128412951D01*
X185514819Y-128127237D02*
X184514819Y-128127237D01*
X184514819Y-128127237D02*
X184657676Y-128222475D01*
X184657676Y-128222475D02*
X184752914Y-128317713D01*
X184752914Y-128317713D02*
X184800533Y-128412951D01*
X184610057Y-127460570D02*
X184562438Y-127412951D01*
X184562438Y-127412951D02*
X184514819Y-127317713D01*
X184514819Y-127317713D02*
X184514819Y-127079618D01*
X184514819Y-127079618D02*
X184562438Y-126984380D01*
X184562438Y-126984380D02*
X184610057Y-126936761D01*
X184610057Y-126936761D02*
X184705295Y-126889142D01*
X184705295Y-126889142D02*
X184800533Y-126889142D01*
X184800533Y-126889142D02*
X184943390Y-126936761D01*
X184943390Y-126936761D02*
X185514819Y-127508189D01*
X185514819Y-127508189D02*
X185514819Y-126889142D01*
X254722333Y-137276819D02*
X254389000Y-136800628D01*
X254150905Y-137276819D02*
X254150905Y-136276819D01*
X254150905Y-136276819D02*
X254531857Y-136276819D01*
X254531857Y-136276819D02*
X254627095Y-136324438D01*
X254627095Y-136324438D02*
X254674714Y-136372057D01*
X254674714Y-136372057D02*
X254722333Y-136467295D01*
X254722333Y-136467295D02*
X254722333Y-136610152D01*
X254722333Y-136610152D02*
X254674714Y-136705390D01*
X254674714Y-136705390D02*
X254627095Y-136753009D01*
X254627095Y-136753009D02*
X254531857Y-136800628D01*
X254531857Y-136800628D02*
X254150905Y-136800628D01*
X255627095Y-136276819D02*
X255150905Y-136276819D01*
X255150905Y-136276819D02*
X255103286Y-136753009D01*
X255103286Y-136753009D02*
X255150905Y-136705390D01*
X255150905Y-136705390D02*
X255246143Y-136657771D01*
X255246143Y-136657771D02*
X255484238Y-136657771D01*
X255484238Y-136657771D02*
X255579476Y-136705390D01*
X255579476Y-136705390D02*
X255627095Y-136753009D01*
X255627095Y-136753009D02*
X255674714Y-136848247D01*
X255674714Y-136848247D02*
X255674714Y-137086342D01*
X255674714Y-137086342D02*
X255627095Y-137181580D01*
X255627095Y-137181580D02*
X255579476Y-137229200D01*
X255579476Y-137229200D02*
X255484238Y-137276819D01*
X255484238Y-137276819D02*
X255246143Y-137276819D01*
X255246143Y-137276819D02*
X255150905Y-137229200D01*
X255150905Y-137229200D02*
X255103286Y-137181580D01*
X185144819Y-163333333D02*
X185859104Y-163333333D01*
X185859104Y-163333333D02*
X186001961Y-163380952D01*
X186001961Y-163380952D02*
X186097200Y-163476190D01*
X186097200Y-163476190D02*
X186144819Y-163619047D01*
X186144819Y-163619047D02*
X186144819Y-163714285D01*
X185144819Y-162428571D02*
X185144819Y-162619047D01*
X185144819Y-162619047D02*
X185192438Y-162714285D01*
X185192438Y-162714285D02*
X185240057Y-162761904D01*
X185240057Y-162761904D02*
X185382914Y-162857142D01*
X185382914Y-162857142D02*
X185573390Y-162904761D01*
X185573390Y-162904761D02*
X185954342Y-162904761D01*
X185954342Y-162904761D02*
X186049580Y-162857142D01*
X186049580Y-162857142D02*
X186097200Y-162809523D01*
X186097200Y-162809523D02*
X186144819Y-162714285D01*
X186144819Y-162714285D02*
X186144819Y-162523809D01*
X186144819Y-162523809D02*
X186097200Y-162428571D01*
X186097200Y-162428571D02*
X186049580Y-162380952D01*
X186049580Y-162380952D02*
X185954342Y-162333333D01*
X185954342Y-162333333D02*
X185716247Y-162333333D01*
X185716247Y-162333333D02*
X185621009Y-162380952D01*
X185621009Y-162380952D02*
X185573390Y-162428571D01*
X185573390Y-162428571D02*
X185525771Y-162523809D01*
X185525771Y-162523809D02*
X185525771Y-162714285D01*
X185525771Y-162714285D02*
X185573390Y-162809523D01*
X185573390Y-162809523D02*
X185621009Y-162857142D01*
X185621009Y-162857142D02*
X185716247Y-162904761D01*
X203033333Y-133974819D02*
X202700000Y-133498628D01*
X202461905Y-133974819D02*
X202461905Y-132974819D01*
X202461905Y-132974819D02*
X202842857Y-132974819D01*
X202842857Y-132974819D02*
X202938095Y-133022438D01*
X202938095Y-133022438D02*
X202985714Y-133070057D01*
X202985714Y-133070057D02*
X203033333Y-133165295D01*
X203033333Y-133165295D02*
X203033333Y-133308152D01*
X203033333Y-133308152D02*
X202985714Y-133403390D01*
X202985714Y-133403390D02*
X202938095Y-133451009D01*
X202938095Y-133451009D02*
X202842857Y-133498628D01*
X202842857Y-133498628D02*
X202461905Y-133498628D01*
X203414286Y-133070057D02*
X203461905Y-133022438D01*
X203461905Y-133022438D02*
X203557143Y-132974819D01*
X203557143Y-132974819D02*
X203795238Y-132974819D01*
X203795238Y-132974819D02*
X203890476Y-133022438D01*
X203890476Y-133022438D02*
X203938095Y-133070057D01*
X203938095Y-133070057D02*
X203985714Y-133165295D01*
X203985714Y-133165295D02*
X203985714Y-133260533D01*
X203985714Y-133260533D02*
X203938095Y-133403390D01*
X203938095Y-133403390D02*
X203366667Y-133974819D01*
X203366667Y-133974819D02*
X203985714Y-133974819D01*
X242497476Y-163230819D02*
X242497476Y-163945104D01*
X242497476Y-163945104D02*
X242449857Y-164087961D01*
X242449857Y-164087961D02*
X242354619Y-164183200D01*
X242354619Y-164183200D02*
X242211762Y-164230819D01*
X242211762Y-164230819D02*
X242116524Y-164230819D01*
X242926048Y-163326057D02*
X242973667Y-163278438D01*
X242973667Y-163278438D02*
X243068905Y-163230819D01*
X243068905Y-163230819D02*
X243307000Y-163230819D01*
X243307000Y-163230819D02*
X243402238Y-163278438D01*
X243402238Y-163278438D02*
X243449857Y-163326057D01*
X243449857Y-163326057D02*
X243497476Y-163421295D01*
X243497476Y-163421295D02*
X243497476Y-163516533D01*
X243497476Y-163516533D02*
X243449857Y-163659390D01*
X243449857Y-163659390D02*
X242878429Y-164230819D01*
X242878429Y-164230819D02*
X243497476Y-164230819D01*
X243830810Y-163230819D02*
X244449857Y-163230819D01*
X244449857Y-163230819D02*
X244116524Y-163611771D01*
X244116524Y-163611771D02*
X244259381Y-163611771D01*
X244259381Y-163611771D02*
X244354619Y-163659390D01*
X244354619Y-163659390D02*
X244402238Y-163707009D01*
X244402238Y-163707009D02*
X244449857Y-163802247D01*
X244449857Y-163802247D02*
X244449857Y-164040342D01*
X244449857Y-164040342D02*
X244402238Y-164135580D01*
X244402238Y-164135580D02*
X244354619Y-164183200D01*
X244354619Y-164183200D02*
X244259381Y-164230819D01*
X244259381Y-164230819D02*
X243973667Y-164230819D01*
X243973667Y-164230819D02*
X243878429Y-164183200D01*
X243878429Y-164183200D02*
X243830810Y-164135580D01*
X232330666Y-114822319D02*
X232330666Y-115536604D01*
X232330666Y-115536604D02*
X232283047Y-115679461D01*
X232283047Y-115679461D02*
X232187809Y-115774700D01*
X232187809Y-115774700D02*
X232044952Y-115822319D01*
X232044952Y-115822319D02*
X231949714Y-115822319D01*
X233235428Y-115155652D02*
X233235428Y-115822319D01*
X232997333Y-114774700D02*
X232759238Y-115488985D01*
X232759238Y-115488985D02*
X233378285Y-115488985D01*
X276968476Y-141714819D02*
X276968476Y-142429104D01*
X276968476Y-142429104D02*
X276920857Y-142571961D01*
X276920857Y-142571961D02*
X276825619Y-142667200D01*
X276825619Y-142667200D02*
X276682762Y-142714819D01*
X276682762Y-142714819D02*
X276587524Y-142714819D01*
X277968476Y-142714819D02*
X277397048Y-142714819D01*
X277682762Y-142714819D02*
X277682762Y-141714819D01*
X277682762Y-141714819D02*
X277587524Y-141857676D01*
X277587524Y-141857676D02*
X277492286Y-141952914D01*
X277492286Y-141952914D02*
X277397048Y-142000533D01*
X278873238Y-141714819D02*
X278397048Y-141714819D01*
X278397048Y-141714819D02*
X278349429Y-142191009D01*
X278349429Y-142191009D02*
X278397048Y-142143390D01*
X278397048Y-142143390D02*
X278492286Y-142095771D01*
X278492286Y-142095771D02*
X278730381Y-142095771D01*
X278730381Y-142095771D02*
X278825619Y-142143390D01*
X278825619Y-142143390D02*
X278873238Y-142191009D01*
X278873238Y-142191009D02*
X278920857Y-142286247D01*
X278920857Y-142286247D02*
X278920857Y-142524342D01*
X278920857Y-142524342D02*
X278873238Y-142619580D01*
X278873238Y-142619580D02*
X278825619Y-142667200D01*
X278825619Y-142667200D02*
X278730381Y-142714819D01*
X278730381Y-142714819D02*
X278492286Y-142714819D01*
X278492286Y-142714819D02*
X278397048Y-142667200D01*
X278397048Y-142667200D02*
X278349429Y-142619580D01*
X184514819Y-120713523D02*
X185229104Y-120713523D01*
X185229104Y-120713523D02*
X185371961Y-120761142D01*
X185371961Y-120761142D02*
X185467200Y-120856380D01*
X185467200Y-120856380D02*
X185514819Y-120999237D01*
X185514819Y-120999237D02*
X185514819Y-121094475D01*
X185514819Y-119713523D02*
X185514819Y-120284951D01*
X185514819Y-119999237D02*
X184514819Y-119999237D01*
X184514819Y-119999237D02*
X184657676Y-120094475D01*
X184657676Y-120094475D02*
X184752914Y-120189713D01*
X184752914Y-120189713D02*
X184800533Y-120284951D01*
X185514819Y-118761142D02*
X185514819Y-119332570D01*
X185514819Y-119046856D02*
X184514819Y-119046856D01*
X184514819Y-119046856D02*
X184657676Y-119142094D01*
X184657676Y-119142094D02*
X184752914Y-119237332D01*
X184752914Y-119237332D02*
X184800533Y-119332570D01*
X198080333Y-145572819D02*
X197747000Y-145096628D01*
X197508905Y-145572819D02*
X197508905Y-144572819D01*
X197508905Y-144572819D02*
X197889857Y-144572819D01*
X197889857Y-144572819D02*
X197985095Y-144620438D01*
X197985095Y-144620438D02*
X198032714Y-144668057D01*
X198032714Y-144668057D02*
X198080333Y-144763295D01*
X198080333Y-144763295D02*
X198080333Y-144906152D01*
X198080333Y-144906152D02*
X198032714Y-145001390D01*
X198032714Y-145001390D02*
X197985095Y-145049009D01*
X197985095Y-145049009D02*
X197889857Y-145096628D01*
X197889857Y-145096628D02*
X197508905Y-145096628D01*
X198937476Y-144906152D02*
X198937476Y-145572819D01*
X198699381Y-144525200D02*
X198461286Y-145239485D01*
X198461286Y-145239485D02*
X199080333Y-145239485D01*
X212518666Y-122160819D02*
X212518666Y-122875104D01*
X212518666Y-122875104D02*
X212471047Y-123017961D01*
X212471047Y-123017961D02*
X212375809Y-123113200D01*
X212375809Y-123113200D02*
X212232952Y-123160819D01*
X212232952Y-123160819D02*
X212137714Y-123160819D01*
X212947238Y-122256057D02*
X212994857Y-122208438D01*
X212994857Y-122208438D02*
X213090095Y-122160819D01*
X213090095Y-122160819D02*
X213328190Y-122160819D01*
X213328190Y-122160819D02*
X213423428Y-122208438D01*
X213423428Y-122208438D02*
X213471047Y-122256057D01*
X213471047Y-122256057D02*
X213518666Y-122351295D01*
X213518666Y-122351295D02*
X213518666Y-122446533D01*
X213518666Y-122446533D02*
X213471047Y-122589390D01*
X213471047Y-122589390D02*
X212899619Y-123160819D01*
X212899619Y-123160819D02*
X213518666Y-123160819D01*
X209050095Y-167224819D02*
X209621523Y-167224819D01*
X209335809Y-168224819D02*
X209335809Y-167224819D01*
X209954857Y-168224819D02*
X209954857Y-167224819D01*
X209954857Y-167224819D02*
X210335809Y-167224819D01*
X210335809Y-167224819D02*
X210431047Y-167272438D01*
X210431047Y-167272438D02*
X210478666Y-167320057D01*
X210478666Y-167320057D02*
X210526285Y-167415295D01*
X210526285Y-167415295D02*
X210526285Y-167558152D01*
X210526285Y-167558152D02*
X210478666Y-167653390D01*
X210478666Y-167653390D02*
X210431047Y-167701009D01*
X210431047Y-167701009D02*
X210335809Y-167748628D01*
X210335809Y-167748628D02*
X209954857Y-167748628D01*
X210859619Y-167224819D02*
X211478666Y-167224819D01*
X211478666Y-167224819D02*
X211145333Y-167605771D01*
X211145333Y-167605771D02*
X211288190Y-167605771D01*
X211288190Y-167605771D02*
X211383428Y-167653390D01*
X211383428Y-167653390D02*
X211431047Y-167701009D01*
X211431047Y-167701009D02*
X211478666Y-167796247D01*
X211478666Y-167796247D02*
X211478666Y-168034342D01*
X211478666Y-168034342D02*
X211431047Y-168129580D01*
X211431047Y-168129580D02*
X211383428Y-168177200D01*
X211383428Y-168177200D02*
X211288190Y-168224819D01*
X211288190Y-168224819D02*
X211002476Y-168224819D01*
X211002476Y-168224819D02*
X210907238Y-168177200D01*
X210907238Y-168177200D02*
X210859619Y-168129580D01*
X245030666Y-114822319D02*
X245030666Y-115536604D01*
X245030666Y-115536604D02*
X244983047Y-115679461D01*
X244983047Y-115679461D02*
X244887809Y-115774700D01*
X244887809Y-115774700D02*
X244744952Y-115822319D01*
X244744952Y-115822319D02*
X244649714Y-115822319D01*
X246030666Y-115822319D02*
X245459238Y-115822319D01*
X245744952Y-115822319D02*
X245744952Y-114822319D01*
X245744952Y-114822319D02*
X245649714Y-114965176D01*
X245649714Y-114965176D02*
X245554476Y-115060414D01*
X245554476Y-115060414D02*
X245459238Y-115108033D01*
X252738095Y-154524819D02*
X253309523Y-154524819D01*
X253023809Y-155524819D02*
X253023809Y-154524819D01*
X253642857Y-155524819D02*
X253642857Y-154524819D01*
X253642857Y-154524819D02*
X254023809Y-154524819D01*
X254023809Y-154524819D02*
X254119047Y-154572438D01*
X254119047Y-154572438D02*
X254166666Y-154620057D01*
X254166666Y-154620057D02*
X254214285Y-154715295D01*
X254214285Y-154715295D02*
X254214285Y-154858152D01*
X254214285Y-154858152D02*
X254166666Y-154953390D01*
X254166666Y-154953390D02*
X254119047Y-155001009D01*
X254119047Y-155001009D02*
X254023809Y-155048628D01*
X254023809Y-155048628D02*
X253642857Y-155048628D01*
X255166666Y-155524819D02*
X254595238Y-155524819D01*
X254880952Y-155524819D02*
X254880952Y-154524819D01*
X254880952Y-154524819D02*
X254785714Y-154667676D01*
X254785714Y-154667676D02*
X254690476Y-154762914D01*
X254690476Y-154762914D02*
X254595238Y-154810533D01*
X204390666Y-160260819D02*
X204390666Y-160975104D01*
X204390666Y-160975104D02*
X204343047Y-161117961D01*
X204343047Y-161117961D02*
X204247809Y-161213200D01*
X204247809Y-161213200D02*
X204104952Y-161260819D01*
X204104952Y-161260819D02*
X204009714Y-161260819D01*
X204914476Y-161260819D02*
X205104952Y-161260819D01*
X205104952Y-161260819D02*
X205200190Y-161213200D01*
X205200190Y-161213200D02*
X205247809Y-161165580D01*
X205247809Y-161165580D02*
X205343047Y-161022723D01*
X205343047Y-161022723D02*
X205390666Y-160832247D01*
X205390666Y-160832247D02*
X205390666Y-160451295D01*
X205390666Y-160451295D02*
X205343047Y-160356057D01*
X205343047Y-160356057D02*
X205295428Y-160308438D01*
X205295428Y-160308438D02*
X205200190Y-160260819D01*
X205200190Y-160260819D02*
X205009714Y-160260819D01*
X205009714Y-160260819D02*
X204914476Y-160308438D01*
X204914476Y-160308438D02*
X204866857Y-160356057D01*
X204866857Y-160356057D02*
X204819238Y-160451295D01*
X204819238Y-160451295D02*
X204819238Y-160689390D01*
X204819238Y-160689390D02*
X204866857Y-160784628D01*
X204866857Y-160784628D02*
X204914476Y-160832247D01*
X204914476Y-160832247D02*
X205009714Y-160879866D01*
X205009714Y-160879866D02*
X205200190Y-160879866D01*
X205200190Y-160879866D02*
X205295428Y-160832247D01*
X205295428Y-160832247D02*
X205343047Y-160784628D01*
X205343047Y-160784628D02*
X205390666Y-160689390D01*
X265184095Y-106645819D02*
X265755523Y-106645819D01*
X265469809Y-107645819D02*
X265469809Y-106645819D01*
X266088857Y-107645819D02*
X266088857Y-106645819D01*
X266088857Y-106645819D02*
X266469809Y-106645819D01*
X266469809Y-106645819D02*
X266565047Y-106693438D01*
X266565047Y-106693438D02*
X266612666Y-106741057D01*
X266612666Y-106741057D02*
X266660285Y-106836295D01*
X266660285Y-106836295D02*
X266660285Y-106979152D01*
X266660285Y-106979152D02*
X266612666Y-107074390D01*
X266612666Y-107074390D02*
X266565047Y-107122009D01*
X266565047Y-107122009D02*
X266469809Y-107169628D01*
X266469809Y-107169628D02*
X266088857Y-107169628D01*
X267041238Y-106741057D02*
X267088857Y-106693438D01*
X267088857Y-106693438D02*
X267184095Y-106645819D01*
X267184095Y-106645819D02*
X267422190Y-106645819D01*
X267422190Y-106645819D02*
X267517428Y-106693438D01*
X267517428Y-106693438D02*
X267565047Y-106741057D01*
X267565047Y-106741057D02*
X267612666Y-106836295D01*
X267612666Y-106836295D02*
X267612666Y-106931533D01*
X267612666Y-106931533D02*
X267565047Y-107074390D01*
X267565047Y-107074390D02*
X266993619Y-107645819D01*
X266993619Y-107645819D02*
X267612666Y-107645819D01*
X257262666Y-114486819D02*
X257262666Y-115201104D01*
X257262666Y-115201104D02*
X257215047Y-115343961D01*
X257215047Y-115343961D02*
X257119809Y-115439200D01*
X257119809Y-115439200D02*
X256976952Y-115486819D01*
X256976952Y-115486819D02*
X256881714Y-115486819D01*
X258215047Y-114486819D02*
X257738857Y-114486819D01*
X257738857Y-114486819D02*
X257691238Y-114963009D01*
X257691238Y-114963009D02*
X257738857Y-114915390D01*
X257738857Y-114915390D02*
X257834095Y-114867771D01*
X257834095Y-114867771D02*
X258072190Y-114867771D01*
X258072190Y-114867771D02*
X258167428Y-114915390D01*
X258167428Y-114915390D02*
X258215047Y-114963009D01*
X258215047Y-114963009D02*
X258262666Y-115058247D01*
X258262666Y-115058247D02*
X258262666Y-115296342D01*
X258262666Y-115296342D02*
X258215047Y-115391580D01*
X258215047Y-115391580D02*
X258167428Y-115439200D01*
X258167428Y-115439200D02*
X258072190Y-115486819D01*
X258072190Y-115486819D02*
X257834095Y-115486819D01*
X257834095Y-115486819D02*
X257738857Y-115439200D01*
X257738857Y-115439200D02*
X257691238Y-115391580D01*
X194296819Y-106956523D02*
X195011104Y-106956523D01*
X195011104Y-106956523D02*
X195153961Y-107004142D01*
X195153961Y-107004142D02*
X195249200Y-107099380D01*
X195249200Y-107099380D02*
X195296819Y-107242237D01*
X195296819Y-107242237D02*
X195296819Y-107337475D01*
X195296819Y-105956523D02*
X195296819Y-106527951D01*
X195296819Y-106242237D02*
X194296819Y-106242237D01*
X194296819Y-106242237D02*
X194439676Y-106337475D01*
X194439676Y-106337475D02*
X194534914Y-106432713D01*
X194534914Y-106432713D02*
X194582533Y-106527951D01*
X194630152Y-105099380D02*
X195296819Y-105099380D01*
X194249200Y-105337475D02*
X194963485Y-105575570D01*
X194963485Y-105575570D02*
X194963485Y-104956523D01*
X185152819Y-148637523D02*
X185867104Y-148637523D01*
X185867104Y-148637523D02*
X186009961Y-148685142D01*
X186009961Y-148685142D02*
X186105200Y-148780380D01*
X186105200Y-148780380D02*
X186152819Y-148923237D01*
X186152819Y-148923237D02*
X186152819Y-149018475D01*
X186152819Y-147637523D02*
X186152819Y-148208951D01*
X186152819Y-147923237D02*
X185152819Y-147923237D01*
X185152819Y-147923237D02*
X185295676Y-148018475D01*
X185295676Y-148018475D02*
X185390914Y-148113713D01*
X185390914Y-148113713D02*
X185438533Y-148208951D01*
X185152819Y-147304189D02*
X185152819Y-146637523D01*
X185152819Y-146637523D02*
X186152819Y-147066094D01*
X258833333Y-116859580D02*
X258785714Y-116907200D01*
X258785714Y-116907200D02*
X258642857Y-116954819D01*
X258642857Y-116954819D02*
X258547619Y-116954819D01*
X258547619Y-116954819D02*
X258404762Y-116907200D01*
X258404762Y-116907200D02*
X258309524Y-116811961D01*
X258309524Y-116811961D02*
X258261905Y-116716723D01*
X258261905Y-116716723D02*
X258214286Y-116526247D01*
X258214286Y-116526247D02*
X258214286Y-116383390D01*
X258214286Y-116383390D02*
X258261905Y-116192914D01*
X258261905Y-116192914D02*
X258309524Y-116097676D01*
X258309524Y-116097676D02*
X258404762Y-116002438D01*
X258404762Y-116002438D02*
X258547619Y-115954819D01*
X258547619Y-115954819D02*
X258642857Y-115954819D01*
X258642857Y-115954819D02*
X258785714Y-116002438D01*
X258785714Y-116002438D02*
X258833333Y-116050057D01*
X259785714Y-116954819D02*
X259214286Y-116954819D01*
X259500000Y-116954819D02*
X259500000Y-115954819D01*
X259500000Y-115954819D02*
X259404762Y-116097676D01*
X259404762Y-116097676D02*
X259309524Y-116192914D01*
X259309524Y-116192914D02*
X259214286Y-116240533D01*
X257000476Y-134431819D02*
X257000476Y-135146104D01*
X257000476Y-135146104D02*
X256952857Y-135288961D01*
X256952857Y-135288961D02*
X256857619Y-135384200D01*
X256857619Y-135384200D02*
X256714762Y-135431819D01*
X256714762Y-135431819D02*
X256619524Y-135431819D01*
X257429048Y-134527057D02*
X257476667Y-134479438D01*
X257476667Y-134479438D02*
X257571905Y-134431819D01*
X257571905Y-134431819D02*
X257810000Y-134431819D01*
X257810000Y-134431819D02*
X257905238Y-134479438D01*
X257905238Y-134479438D02*
X257952857Y-134527057D01*
X257952857Y-134527057D02*
X258000476Y-134622295D01*
X258000476Y-134622295D02*
X258000476Y-134717533D01*
X258000476Y-134717533D02*
X257952857Y-134860390D01*
X257952857Y-134860390D02*
X257381429Y-135431819D01*
X257381429Y-135431819D02*
X258000476Y-135431819D01*
X258619524Y-134431819D02*
X258714762Y-134431819D01*
X258714762Y-134431819D02*
X258810000Y-134479438D01*
X258810000Y-134479438D02*
X258857619Y-134527057D01*
X258857619Y-134527057D02*
X258905238Y-134622295D01*
X258905238Y-134622295D02*
X258952857Y-134812771D01*
X258952857Y-134812771D02*
X258952857Y-135050866D01*
X258952857Y-135050866D02*
X258905238Y-135241342D01*
X258905238Y-135241342D02*
X258857619Y-135336580D01*
X258857619Y-135336580D02*
X258810000Y-135384200D01*
X258810000Y-135384200D02*
X258714762Y-135431819D01*
X258714762Y-135431819D02*
X258619524Y-135431819D01*
X258619524Y-135431819D02*
X258524286Y-135384200D01*
X258524286Y-135384200D02*
X258476667Y-135336580D01*
X258476667Y-135336580D02*
X258429048Y-135241342D01*
X258429048Y-135241342D02*
X258381429Y-135050866D01*
X258381429Y-135050866D02*
X258381429Y-134812771D01*
X258381429Y-134812771D02*
X258429048Y-134622295D01*
X258429048Y-134622295D02*
X258476667Y-134527057D01*
X258476667Y-134527057D02*
X258524286Y-134479438D01*
X258524286Y-134479438D02*
X258619524Y-134431819D01*
X185152819Y-154225523D02*
X185867104Y-154225523D01*
X185867104Y-154225523D02*
X186009961Y-154273142D01*
X186009961Y-154273142D02*
X186105200Y-154368380D01*
X186105200Y-154368380D02*
X186152819Y-154511237D01*
X186152819Y-154511237D02*
X186152819Y-154606475D01*
X186152819Y-153225523D02*
X186152819Y-153796951D01*
X186152819Y-153511237D02*
X185152819Y-153511237D01*
X185152819Y-153511237D02*
X185295676Y-153606475D01*
X185295676Y-153606475D02*
X185390914Y-153701713D01*
X185390914Y-153701713D02*
X185438533Y-153796951D01*
X185152819Y-152368380D02*
X185152819Y-152558856D01*
X185152819Y-152558856D02*
X185200438Y-152654094D01*
X185200438Y-152654094D02*
X185248057Y-152701713D01*
X185248057Y-152701713D02*
X185390914Y-152796951D01*
X185390914Y-152796951D02*
X185581390Y-152844570D01*
X185581390Y-152844570D02*
X185962342Y-152844570D01*
X185962342Y-152844570D02*
X186057580Y-152796951D01*
X186057580Y-152796951D02*
X186105200Y-152749332D01*
X186105200Y-152749332D02*
X186152819Y-152654094D01*
X186152819Y-152654094D02*
X186152819Y-152463618D01*
X186152819Y-152463618D02*
X186105200Y-152368380D01*
X186105200Y-152368380D02*
X186057580Y-152320761D01*
X186057580Y-152320761D02*
X185962342Y-152273142D01*
X185962342Y-152273142D02*
X185724247Y-152273142D01*
X185724247Y-152273142D02*
X185629009Y-152320761D01*
X185629009Y-152320761D02*
X185581390Y-152368380D01*
X185581390Y-152368380D02*
X185533771Y-152463618D01*
X185533771Y-152463618D02*
X185533771Y-152654094D01*
X185533771Y-152654094D02*
X185581390Y-152749332D01*
X185581390Y-152749332D02*
X185629009Y-152796951D01*
X185629009Y-152796951D02*
X185724247Y-152844570D01*
X268880819Y-121202523D02*
X269595104Y-121202523D01*
X269595104Y-121202523D02*
X269737961Y-121250142D01*
X269737961Y-121250142D02*
X269833200Y-121345380D01*
X269833200Y-121345380D02*
X269880819Y-121488237D01*
X269880819Y-121488237D02*
X269880819Y-121583475D01*
X269880819Y-120202523D02*
X269880819Y-120773951D01*
X269880819Y-120488237D02*
X268880819Y-120488237D01*
X268880819Y-120488237D02*
X269023676Y-120583475D01*
X269023676Y-120583475D02*
X269118914Y-120678713D01*
X269118914Y-120678713D02*
X269166533Y-120773951D01*
X268880819Y-119583475D02*
X268880819Y-119488237D01*
X268880819Y-119488237D02*
X268928438Y-119392999D01*
X268928438Y-119392999D02*
X268976057Y-119345380D01*
X268976057Y-119345380D02*
X269071295Y-119297761D01*
X269071295Y-119297761D02*
X269261771Y-119250142D01*
X269261771Y-119250142D02*
X269499866Y-119250142D01*
X269499866Y-119250142D02*
X269690342Y-119297761D01*
X269690342Y-119297761D02*
X269785580Y-119345380D01*
X269785580Y-119345380D02*
X269833200Y-119392999D01*
X269833200Y-119392999D02*
X269880819Y-119488237D01*
X269880819Y-119488237D02*
X269880819Y-119583475D01*
X269880819Y-119583475D02*
X269833200Y-119678713D01*
X269833200Y-119678713D02*
X269785580Y-119726332D01*
X269785580Y-119726332D02*
X269690342Y-119773951D01*
X269690342Y-119773951D02*
X269499866Y-119821570D01*
X269499866Y-119821570D02*
X269261771Y-119821570D01*
X269261771Y-119821570D02*
X269071295Y-119773951D01*
X269071295Y-119773951D02*
X268976057Y-119726332D01*
X268976057Y-119726332D02*
X268928438Y-119678713D01*
X268928438Y-119678713D02*
X268880819Y-119583475D01*
X199040761Y-127448057D02*
X198945523Y-127400438D01*
X198945523Y-127400438D02*
X198850285Y-127305200D01*
X198850285Y-127305200D02*
X198707428Y-127162342D01*
X198707428Y-127162342D02*
X198612190Y-127114723D01*
X198612190Y-127114723D02*
X198516952Y-127114723D01*
X198564571Y-127352819D02*
X198469333Y-127305200D01*
X198469333Y-127305200D02*
X198374095Y-127209961D01*
X198374095Y-127209961D02*
X198326476Y-127019485D01*
X198326476Y-127019485D02*
X198326476Y-126686152D01*
X198326476Y-126686152D02*
X198374095Y-126495676D01*
X198374095Y-126495676D02*
X198469333Y-126400438D01*
X198469333Y-126400438D02*
X198564571Y-126352819D01*
X198564571Y-126352819D02*
X198755047Y-126352819D01*
X198755047Y-126352819D02*
X198850285Y-126400438D01*
X198850285Y-126400438D02*
X198945523Y-126495676D01*
X198945523Y-126495676D02*
X198993142Y-126686152D01*
X198993142Y-126686152D02*
X198993142Y-127019485D01*
X198993142Y-127019485D02*
X198945523Y-127209961D01*
X198945523Y-127209961D02*
X198850285Y-127305200D01*
X198850285Y-127305200D02*
X198755047Y-127352819D01*
X198755047Y-127352819D02*
X198564571Y-127352819D01*
X199945523Y-127352819D02*
X199374095Y-127352819D01*
X199659809Y-127352819D02*
X199659809Y-126352819D01*
X199659809Y-126352819D02*
X199564571Y-126495676D01*
X199564571Y-126495676D02*
X199469333Y-126590914D01*
X199469333Y-126590914D02*
X199374095Y-126638533D01*
X187683476Y-135368819D02*
X187683476Y-136083104D01*
X187683476Y-136083104D02*
X187635857Y-136225961D01*
X187635857Y-136225961D02*
X187540619Y-136321200D01*
X187540619Y-136321200D02*
X187397762Y-136368819D01*
X187397762Y-136368819D02*
X187302524Y-136368819D01*
X188683476Y-136368819D02*
X188112048Y-136368819D01*
X188397762Y-136368819D02*
X188397762Y-135368819D01*
X188397762Y-135368819D02*
X188302524Y-135511676D01*
X188302524Y-135511676D02*
X188207286Y-135606914D01*
X188207286Y-135606914D02*
X188112048Y-135654533D01*
X189016810Y-135368819D02*
X189635857Y-135368819D01*
X189635857Y-135368819D02*
X189302524Y-135749771D01*
X189302524Y-135749771D02*
X189445381Y-135749771D01*
X189445381Y-135749771D02*
X189540619Y-135797390D01*
X189540619Y-135797390D02*
X189588238Y-135845009D01*
X189588238Y-135845009D02*
X189635857Y-135940247D01*
X189635857Y-135940247D02*
X189635857Y-136178342D01*
X189635857Y-136178342D02*
X189588238Y-136273580D01*
X189588238Y-136273580D02*
X189540619Y-136321200D01*
X189540619Y-136321200D02*
X189445381Y-136368819D01*
X189445381Y-136368819D02*
X189159667Y-136368819D01*
X189159667Y-136368819D02*
X189064429Y-136321200D01*
X189064429Y-136321200D02*
X189016810Y-136273580D01*
D12*
%TO.C,D1*%
X262565000Y-168545000D02*
X262565000Y-165455000D01*
X257015000Y-167000000D02*
G75*
G02*
X262565000Y-165455170I2990000J0D01*
G01*
X262565000Y-168544830D02*
G75*
G02*
X257015000Y-167000000I-2560000J1544830D01*
G01*
X262505000Y-167000000D02*
G75*
G02*
X257505000Y-167000000I-2500000J0D01*
G01*
X257505000Y-167000000D02*
G75*
G02*
X262505000Y-167000000I2500000J0D01*
G01*
%TO.C,J3*%
X246066000Y-159766000D02*
X246066000Y-124146000D01*
X246066000Y-162366000D02*
X246066000Y-161036000D01*
X247396000Y-162366000D02*
X246066000Y-162366000D01*
X248726000Y-124146000D02*
X246066000Y-124146000D01*
X248726000Y-159766000D02*
X246066000Y-159766000D01*
X248726000Y-159766000D02*
X248726000Y-124146000D01*
%TO.C,J24*%
X216069000Y-126766000D02*
X216069000Y-162386000D01*
X216069000Y-126766000D02*
X218729000Y-126766000D01*
X216069000Y-162386000D02*
X218729000Y-162386000D01*
X217399000Y-124166000D02*
X218729000Y-124166000D01*
X218729000Y-124166000D02*
X218729000Y-125496000D01*
X218729000Y-126766000D02*
X218729000Y-162386000D01*
%TO.C,R1*%
X252730000Y-160030000D02*
X252730000Y-160360000D01*
X252730000Y-162770000D02*
X252730000Y-162440000D01*
X259270000Y-160030000D02*
X252730000Y-160030000D01*
X259270000Y-160360000D02*
X259270000Y-160030000D01*
X259270000Y-162440000D02*
X259270000Y-162770000D01*
X259270000Y-162770000D02*
X252730000Y-162770000D01*
%TO.C,J8*%
X197933000Y-164846000D02*
X197933000Y-169986000D01*
X197933000Y-164846000D02*
X200593000Y-164846000D01*
X197933000Y-169986000D02*
X200593000Y-169986000D01*
X199263000Y-162246000D02*
X200593000Y-162246000D01*
X200593000Y-162246000D02*
X200593000Y-163576000D01*
X200593000Y-164846000D02*
X200593000Y-169986000D01*
%TO.C,U1*%
X258206000Y-142307000D02*
X258206000Y-144307000D01*
X258206000Y-142307000D02*
X259816000Y-142307000D01*
X258486000Y-154847000D02*
X258486000Y-142597000D01*
X258496000Y-142587000D02*
X264236000Y-142587000D01*
X264246000Y-142587000D02*
X264246000Y-154847000D01*
X264246000Y-154847000D02*
X258486000Y-154847000D01*
%TO.C,J7*%
X187130000Y-157070000D02*
X188460000Y-157070000D01*
X187130000Y-158400000D02*
X187130000Y-157070000D01*
X189730000Y-157070000D02*
X194870000Y-157070000D01*
X189730000Y-159730000D02*
X189730000Y-157070000D01*
X189730000Y-159730000D02*
X194870000Y-159730000D01*
X194870000Y-159730000D02*
X194870000Y-157070000D01*
%TO.C,J19*%
X270680000Y-143380000D02*
X280720000Y-143380000D01*
X270680000Y-163620000D02*
X270680000Y-143380000D01*
X273700000Y-163620000D02*
X273700000Y-143380000D01*
X278600000Y-163620000D02*
X278600000Y-143380000D01*
X280100000Y-163620000D02*
X280100000Y-143380000D01*
X280720000Y-143380000D02*
X280720000Y-160700000D01*
X280720000Y-161300000D02*
X280720000Y-163620000D01*
X280720000Y-163620000D02*
X270680000Y-163620000D01*
X281330000Y-161440000D02*
X280720000Y-161000000D01*
X281330000Y-160560000D01*
X281330000Y-161440000D01*
G36*
X281330000Y-161440000D02*
G01*
X280720000Y-161000000D01*
X281330000Y-160560000D01*
X281330000Y-161440000D01*
G37*
%TO.C,C2*%
X194687651Y-113185000D02*
X195487651Y-113185000D01*
X195087651Y-112785000D02*
X195087651Y-113585000D01*
X199097349Y-111420000D02*
X199097349Y-119580000D01*
X199137349Y-111420000D02*
X199137349Y-119580000D01*
X199177349Y-111421000D02*
X199177349Y-119579000D01*
X199217349Y-111422000D02*
X199217349Y-119578000D01*
X199257349Y-111423000D02*
X199257349Y-119577000D01*
X199297349Y-111425000D02*
X199297349Y-119575000D01*
X199337349Y-111427000D02*
X199337349Y-119573000D01*
X199377349Y-111430000D02*
X199377349Y-119570000D01*
X199417349Y-111432000D02*
X199417349Y-119568000D01*
X199457349Y-111436000D02*
X199457349Y-119564000D01*
X199497349Y-111439000D02*
X199497349Y-119561000D01*
X199537349Y-111444000D02*
X199537349Y-119556000D01*
X199577349Y-111448000D02*
X199577349Y-119552000D01*
X199617349Y-111453000D02*
X199617349Y-119547000D01*
X199657349Y-111458000D02*
X199657349Y-119542000D01*
X199697349Y-111464000D02*
X199697349Y-119536000D01*
X199737349Y-111470000D02*
X199737349Y-119530000D01*
X199777349Y-111477000D02*
X199777349Y-119523000D01*
X199817349Y-111483000D02*
X199817349Y-114460000D01*
X199817349Y-116540000D02*
X199817349Y-119517000D01*
X199857349Y-111491000D02*
X199857349Y-114460000D01*
X199857349Y-116540000D02*
X199857349Y-119509000D01*
X199897349Y-111498000D02*
X199897349Y-114460000D01*
X199897349Y-116540000D02*
X199897349Y-119502000D01*
X199937349Y-111507000D02*
X199937349Y-114460000D01*
X199937349Y-116540000D02*
X199937349Y-119493000D01*
X199977349Y-111515000D02*
X199977349Y-114460000D01*
X199977349Y-116540000D02*
X199977349Y-119485000D01*
X200017349Y-111524000D02*
X200017349Y-114460000D01*
X200017349Y-116540000D02*
X200017349Y-119476000D01*
X200057349Y-111533000D02*
X200057349Y-114460000D01*
X200057349Y-116540000D02*
X200057349Y-119467000D01*
X200097349Y-111543000D02*
X200097349Y-114460000D01*
X200097349Y-116540000D02*
X200097349Y-119457000D01*
X200137349Y-111553000D02*
X200137349Y-114460000D01*
X200137349Y-116540000D02*
X200137349Y-119447000D01*
X200177349Y-111564000D02*
X200177349Y-114460000D01*
X200177349Y-116540000D02*
X200177349Y-119436000D01*
X200217349Y-111575000D02*
X200217349Y-114460000D01*
X200217349Y-116540000D02*
X200217349Y-119425000D01*
X200257349Y-111587000D02*
X200257349Y-114460000D01*
X200257349Y-116540000D02*
X200257349Y-119413000D01*
X200297349Y-111599000D02*
X200297349Y-114460000D01*
X200297349Y-116540000D02*
X200297349Y-119401000D01*
X200337349Y-111611000D02*
X200337349Y-114460000D01*
X200337349Y-116540000D02*
X200337349Y-119389000D01*
X200377349Y-111624000D02*
X200377349Y-114460000D01*
X200377349Y-116540000D02*
X200377349Y-119376000D01*
X200417349Y-111637000D02*
X200417349Y-114460000D01*
X200417349Y-116540000D02*
X200417349Y-119363000D01*
X200457349Y-111651000D02*
X200457349Y-114460000D01*
X200457349Y-116540000D02*
X200457349Y-119349000D01*
X200497349Y-111665000D02*
X200497349Y-114460000D01*
X200497349Y-116540000D02*
X200497349Y-119335000D01*
X200537349Y-111680000D02*
X200537349Y-114460000D01*
X200537349Y-116540000D02*
X200537349Y-119320000D01*
X200577349Y-111695000D02*
X200577349Y-114460000D01*
X200577349Y-116540000D02*
X200577349Y-119305000D01*
X200617349Y-111711000D02*
X200617349Y-114460000D01*
X200617349Y-116540000D02*
X200617349Y-119289000D01*
X200657349Y-111727000D02*
X200657349Y-114460000D01*
X200657349Y-116540000D02*
X200657349Y-119273000D01*
X200697349Y-111743000D02*
X200697349Y-114460000D01*
X200697349Y-116540000D02*
X200697349Y-119257000D01*
X200737349Y-111760000D02*
X200737349Y-114460000D01*
X200737349Y-116540000D02*
X200737349Y-119240000D01*
X200777349Y-111778000D02*
X200777349Y-114460000D01*
X200777349Y-116540000D02*
X200777349Y-119222000D01*
X200817349Y-111796000D02*
X200817349Y-114460000D01*
X200817349Y-116540000D02*
X200817349Y-119204000D01*
X200857349Y-111815000D02*
X200857349Y-114460000D01*
X200857349Y-116540000D02*
X200857349Y-119185000D01*
X200897349Y-111834000D02*
X200897349Y-114460000D01*
X200897349Y-116540000D02*
X200897349Y-119166000D01*
X200937349Y-111854000D02*
X200937349Y-114460000D01*
X200937349Y-116540000D02*
X200937349Y-119146000D01*
X200977349Y-111874000D02*
X200977349Y-114460000D01*
X200977349Y-116540000D02*
X200977349Y-119126000D01*
X201017349Y-111895000D02*
X201017349Y-114460000D01*
X201017349Y-116540000D02*
X201017349Y-119105000D01*
X201057349Y-111916000D02*
X201057349Y-114460000D01*
X201057349Y-116540000D02*
X201057349Y-119084000D01*
X201097349Y-111938000D02*
X201097349Y-114460000D01*
X201097349Y-116540000D02*
X201097349Y-119062000D01*
X201137349Y-111961000D02*
X201137349Y-114460000D01*
X201137349Y-116540000D02*
X201137349Y-119039000D01*
X201177349Y-111984000D02*
X201177349Y-114460000D01*
X201177349Y-116540000D02*
X201177349Y-119016000D01*
X201217349Y-112007000D02*
X201217349Y-114460000D01*
X201217349Y-116540000D02*
X201217349Y-118993000D01*
X201257349Y-112032000D02*
X201257349Y-114460000D01*
X201257349Y-116540000D02*
X201257349Y-118968000D01*
X201297349Y-112057000D02*
X201297349Y-114460000D01*
X201297349Y-116540000D02*
X201297349Y-118943000D01*
X201337349Y-112082000D02*
X201337349Y-114460000D01*
X201337349Y-116540000D02*
X201337349Y-118918000D01*
X201377349Y-112108000D02*
X201377349Y-114460000D01*
X201377349Y-116540000D02*
X201377349Y-118892000D01*
X201417349Y-112135000D02*
X201417349Y-114460000D01*
X201417349Y-116540000D02*
X201417349Y-118865000D01*
X201457349Y-112163000D02*
X201457349Y-114460000D01*
X201457349Y-116540000D02*
X201457349Y-118837000D01*
X201497349Y-112191000D02*
X201497349Y-114460000D01*
X201497349Y-116540000D02*
X201497349Y-118809000D01*
X201537349Y-112220000D02*
X201537349Y-114460000D01*
X201537349Y-116540000D02*
X201537349Y-118780000D01*
X201577349Y-112250000D02*
X201577349Y-114460000D01*
X201577349Y-116540000D02*
X201577349Y-118750000D01*
X201617349Y-112281000D02*
X201617349Y-114460000D01*
X201617349Y-116540000D02*
X201617349Y-118719000D01*
X201657349Y-112312000D02*
X201657349Y-114460000D01*
X201657349Y-116540000D02*
X201657349Y-118688000D01*
X201697349Y-112344000D02*
X201697349Y-114460000D01*
X201697349Y-116540000D02*
X201697349Y-118656000D01*
X201737349Y-112377000D02*
X201737349Y-114460000D01*
X201737349Y-116540000D02*
X201737349Y-118623000D01*
X201777349Y-112411000D02*
X201777349Y-114460000D01*
X201777349Y-116540000D02*
X201777349Y-118589000D01*
X201817349Y-112445000D02*
X201817349Y-114460000D01*
X201817349Y-116540000D02*
X201817349Y-118555000D01*
X201857349Y-112481000D02*
X201857349Y-114460000D01*
X201857349Y-116540000D02*
X201857349Y-118519000D01*
X201897349Y-112518000D02*
X201897349Y-118482000D01*
X201937349Y-112555000D02*
X201937349Y-118445000D01*
X201977349Y-112594000D02*
X201977349Y-118406000D01*
X202017349Y-112633000D02*
X202017349Y-118367000D01*
X202057349Y-112674000D02*
X202057349Y-118326000D01*
X202097349Y-112716000D02*
X202097349Y-118284000D01*
X202137349Y-112759000D02*
X202137349Y-118241000D01*
X202177349Y-112804000D02*
X202177349Y-118196000D01*
X202217349Y-112849000D02*
X202217349Y-118151000D01*
X202257349Y-112896000D02*
X202257349Y-118104000D01*
X202297349Y-112945000D02*
X202297349Y-118055000D01*
X202337349Y-112995000D02*
X202337349Y-118005000D01*
X202377349Y-113047000D02*
X202377349Y-117953000D01*
X202417349Y-113100000D02*
X202417349Y-117900000D01*
X202457349Y-113156000D02*
X202457349Y-117844000D01*
X202497349Y-113213000D02*
X202497349Y-117787000D01*
X202537349Y-113273000D02*
X202537349Y-117727000D01*
X202577349Y-113335000D02*
X202577349Y-117665000D01*
X202617349Y-113399000D02*
X202617349Y-117601000D01*
X202657349Y-113466000D02*
X202657349Y-117534000D01*
X202697349Y-113536000D02*
X202697349Y-117464000D01*
X202737349Y-113610000D02*
X202737349Y-117390000D01*
X202777349Y-113687000D02*
X202777349Y-117313000D01*
X202817349Y-113769000D02*
X202817349Y-117231000D01*
X202857349Y-113856000D02*
X202857349Y-117144000D01*
X202897349Y-113948000D02*
X202897349Y-117052000D01*
X202937349Y-114047000D02*
X202937349Y-116953000D01*
X202977349Y-114154000D02*
X202977349Y-116846000D01*
X203017349Y-114272000D02*
X203017349Y-116728000D01*
X203057349Y-114403000D02*
X203057349Y-116597000D01*
X203097349Y-114553000D02*
X203097349Y-116447000D01*
X203137349Y-114732000D02*
X203137349Y-116268000D01*
X203177349Y-114967000D02*
X203177349Y-116033000D01*
X203217349Y-115500000D02*
G75*
G02*
X194977349Y-115500000I-4120000J0D01*
G01*
X194977349Y-115500000D02*
G75*
G02*
X203217349Y-115500000I4120000J0D01*
G01*
%TO.C,J18*%
X209256000Y-104327500D02*
X216576000Y-104327500D01*
X209256000Y-114367500D02*
X209256000Y-104327500D01*
X217176000Y-104327500D02*
X219496000Y-104327500D01*
X219496000Y-104327500D02*
X219496000Y-114367500D01*
X219496000Y-104947500D02*
X209256000Y-104947500D01*
X219496000Y-106447500D02*
X209256000Y-106447500D01*
X219496000Y-111347500D02*
X209256000Y-111347500D01*
X219496000Y-114367500D02*
X209256000Y-114367500D01*
X216876000Y-104327500D02*
X216436000Y-103717500D01*
X217316000Y-103717500D01*
X216876000Y-104327500D01*
G36*
X216876000Y-104327500D02*
G01*
X216436000Y-103717500D01*
X217316000Y-103717500D01*
X216876000Y-104327500D01*
G37*
%TO.C,J12*%
X185850000Y-130142000D02*
X185850000Y-131392000D01*
X185850000Y-131392000D02*
X187100000Y-131392000D01*
X185950000Y-129332000D02*
X185950000Y-129632000D01*
X185950000Y-129632000D02*
X186150000Y-129632000D01*
X186050000Y-129332000D02*
X186050000Y-129632000D01*
X186150000Y-124972000D02*
X186150000Y-131092000D01*
X186150000Y-128532000D02*
X186760000Y-128532000D01*
X186150000Y-129332000D02*
X185950000Y-129332000D01*
X186150000Y-131092000D02*
X190870000Y-131092000D01*
X186760000Y-125582000D02*
X186760000Y-127532000D01*
X186760000Y-127532000D02*
X186150000Y-127532000D01*
X186760000Y-128532000D02*
X186760000Y-130482000D01*
X186760000Y-130482000D02*
X190260000Y-130482000D01*
X187460000Y-124972000D02*
X187460000Y-125582000D01*
X187460000Y-131092000D02*
X187460000Y-130482000D01*
X188760000Y-124972000D02*
X188760000Y-125582000D01*
X188760000Y-131092000D02*
X188760000Y-130482000D01*
X189760000Y-127932000D02*
X190260000Y-127932000D01*
X189760000Y-128132000D02*
X189760000Y-127932000D01*
X190260000Y-125582000D02*
X186760000Y-125582000D01*
X190260000Y-128032000D02*
X189760000Y-128032000D01*
X190260000Y-128132000D02*
X189760000Y-128132000D01*
X190260000Y-130482000D02*
X190260000Y-125582000D01*
X190870000Y-124972000D02*
X186150000Y-124972000D01*
X190870000Y-131092000D02*
X190870000Y-124972000D01*
%TO.C,R5*%
X251619000Y-137822000D02*
X258159000Y-137822000D01*
X251619000Y-138152000D02*
X251619000Y-137822000D01*
X251619000Y-140232000D02*
X251619000Y-140562000D01*
X251619000Y-140562000D02*
X258159000Y-140562000D01*
X258159000Y-137822000D02*
X258159000Y-138152000D01*
X258159000Y-140562000D02*
X258159000Y-140232000D01*
%TO.C,J6*%
X187130000Y-161670000D02*
X188460000Y-161670000D01*
X187130000Y-163000000D02*
X187130000Y-161670000D01*
X189730000Y-161670000D02*
X194870000Y-161670000D01*
X189730000Y-164330000D02*
X189730000Y-161670000D01*
X189730000Y-164330000D02*
X194870000Y-164330000D01*
X194870000Y-164330000D02*
X194870000Y-161670000D01*
%TO.C,R2*%
X199930000Y-134520000D02*
X206470000Y-134520000D01*
X199930000Y-134850000D02*
X199930000Y-134520000D01*
X199930000Y-136930000D02*
X199930000Y-137260000D01*
X199930000Y-137260000D02*
X206470000Y-137260000D01*
X206470000Y-134520000D02*
X206470000Y-134850000D01*
X206470000Y-137260000D02*
X206470000Y-136930000D01*
%TO.C,J23*%
X241977000Y-159736000D02*
X241977000Y-124116000D01*
X241977000Y-162336000D02*
X241977000Y-161006000D01*
X243307000Y-162336000D02*
X241977000Y-162336000D01*
X244637000Y-124116000D02*
X241977000Y-124116000D01*
X244637000Y-159736000D02*
X241977000Y-159736000D01*
X244637000Y-159736000D02*
X244637000Y-124116000D01*
%TO.C,J4*%
X227544000Y-104327500D02*
X234864000Y-104327500D01*
X227544000Y-114367500D02*
X227544000Y-104327500D01*
X235464000Y-104327500D02*
X237784000Y-104327500D01*
X237784000Y-104327500D02*
X237784000Y-114367500D01*
X237784000Y-104947500D02*
X227544000Y-104947500D01*
X237784000Y-106447500D02*
X227544000Y-106447500D01*
X237784000Y-111347500D02*
X227544000Y-111347500D01*
X237784000Y-114367500D02*
X227544000Y-114367500D01*
X235164000Y-104327500D02*
X234724000Y-103717500D01*
X235604000Y-103717500D01*
X235164000Y-104327500D01*
G36*
X235164000Y-104327500D02*
G01*
X234724000Y-103717500D01*
X235604000Y-103717500D01*
X235164000Y-104327500D01*
G37*
%TO.C,J15*%
X276448000Y-138220000D02*
X276448000Y-130540000D01*
X276448000Y-140820000D02*
X276448000Y-139490000D01*
X277778000Y-140820000D02*
X276448000Y-140820000D01*
X279108000Y-130540000D02*
X276448000Y-130540000D01*
X279108000Y-138220000D02*
X276448000Y-138220000D01*
X279108000Y-138220000D02*
X279108000Y-130540000D01*
%TO.C,J11*%
X185850000Y-122014000D02*
X185850000Y-123264000D01*
X185850000Y-123264000D02*
X187100000Y-123264000D01*
X185950000Y-121204000D02*
X185950000Y-121504000D01*
X185950000Y-121504000D02*
X186150000Y-121504000D01*
X186050000Y-121204000D02*
X186050000Y-121504000D01*
X186150000Y-116844000D02*
X186150000Y-122964000D01*
X186150000Y-120404000D02*
X186760000Y-120404000D01*
X186150000Y-121204000D02*
X185950000Y-121204000D01*
X186150000Y-122964000D02*
X190870000Y-122964000D01*
X186760000Y-117454000D02*
X186760000Y-119404000D01*
X186760000Y-119404000D02*
X186150000Y-119404000D01*
X186760000Y-120404000D02*
X186760000Y-122354000D01*
X186760000Y-122354000D02*
X190260000Y-122354000D01*
X187460000Y-116844000D02*
X187460000Y-117454000D01*
X187460000Y-122964000D02*
X187460000Y-122354000D01*
X188760000Y-116844000D02*
X188760000Y-117454000D01*
X188760000Y-122964000D02*
X188760000Y-122354000D01*
X189760000Y-119804000D02*
X190260000Y-119804000D01*
X189760000Y-120004000D02*
X189760000Y-119804000D01*
X190260000Y-117454000D02*
X186760000Y-117454000D01*
X190260000Y-119904000D02*
X189760000Y-119904000D01*
X190260000Y-120004000D02*
X189760000Y-120004000D01*
X190260000Y-122354000D02*
X190260000Y-117454000D01*
X190870000Y-116844000D02*
X186150000Y-116844000D01*
X190870000Y-122964000D02*
X190870000Y-116844000D01*
%TO.C,R4*%
X194977000Y-141378000D02*
X194977000Y-141708000D01*
X194977000Y-144118000D02*
X194977000Y-143788000D01*
X201517000Y-141378000D02*
X194977000Y-141378000D01*
X201517000Y-141708000D02*
X201517000Y-141378000D01*
X201517000Y-143788000D02*
X201517000Y-144118000D01*
X201517000Y-144118000D02*
X194977000Y-144118000D01*
%TO.C,J2*%
X211522000Y-126746000D02*
X211522000Y-162366000D01*
X211522000Y-126746000D02*
X214182000Y-126746000D01*
X211522000Y-162366000D02*
X214182000Y-162366000D01*
X212852000Y-124146000D02*
X214182000Y-124146000D01*
X214182000Y-124146000D02*
X214182000Y-125476000D01*
X214182000Y-126746000D02*
X214182000Y-162366000D01*
%TO.C,TP3*%
X211262000Y-169418000D02*
G75*
G02*
X209362000Y-169418000I-950000J0D01*
G01*
X209362000Y-169418000D02*
G75*
G02*
X211262000Y-169418000I950000J0D01*
G01*
%TO.C,J1*%
X240244000Y-104327500D02*
X247564000Y-104327500D01*
X240244000Y-114367500D02*
X240244000Y-104327500D01*
X248164000Y-104327500D02*
X250484000Y-104327500D01*
X250484000Y-104327500D02*
X250484000Y-114367500D01*
X250484000Y-104947500D02*
X240244000Y-104947500D01*
X250484000Y-106447500D02*
X240244000Y-106447500D01*
X250484000Y-111347500D02*
X240244000Y-111347500D01*
X250484000Y-114367500D02*
X240244000Y-114367500D01*
X247864000Y-104327500D02*
X247424000Y-103717500D01*
X248304000Y-103717500D01*
X247864000Y-104327500D01*
G36*
X247864000Y-104327500D02*
G01*
X247424000Y-103717500D01*
X248304000Y-103717500D01*
X247864000Y-104327500D01*
G37*
%TO.C,TP1*%
X254950000Y-156718000D02*
G75*
G02*
X253050000Y-156718000I-950000J0D01*
G01*
X253050000Y-156718000D02*
G75*
G02*
X254950000Y-156718000I950000J0D01*
G01*
%TO.C,J9*%
X203394000Y-164846000D02*
X203394000Y-169986000D01*
X203394000Y-164846000D02*
X206054000Y-164846000D01*
X203394000Y-169986000D02*
X206054000Y-169986000D01*
X204724000Y-162246000D02*
X206054000Y-162246000D01*
X206054000Y-162246000D02*
X206054000Y-163576000D01*
X206054000Y-164846000D02*
X206054000Y-169986000D01*
%TO.C,TP2*%
X267396000Y-108839000D02*
G75*
G02*
X265496000Y-108839000I-950000J0D01*
G01*
X265496000Y-108839000D02*
G75*
G02*
X267396000Y-108839000I950000J0D01*
G01*
%TO.C,J5*%
X252476000Y-103992000D02*
X259796000Y-103992000D01*
X252476000Y-114032000D02*
X252476000Y-103992000D01*
X260396000Y-103992000D02*
X262716000Y-103992000D01*
X262716000Y-103992000D02*
X262716000Y-114032000D01*
X262716000Y-104612000D02*
X252476000Y-104612000D01*
X262716000Y-106112000D02*
X252476000Y-106112000D01*
X262716000Y-111012000D02*
X252476000Y-111012000D01*
X262716000Y-114032000D02*
X252476000Y-114032000D01*
X260096000Y-103992000D02*
X259656000Y-103382000D01*
X260536000Y-103382000D01*
X260096000Y-103992000D01*
G36*
X260096000Y-103992000D02*
G01*
X259656000Y-103382000D01*
X260536000Y-103382000D01*
X260096000Y-103992000D01*
G37*
%TO.C,J14*%
X196282000Y-104817000D02*
X197612000Y-104817000D01*
X196282000Y-106147000D02*
X196282000Y-104817000D01*
X198882000Y-104817000D02*
X206562000Y-104817000D01*
X198882000Y-107477000D02*
X198882000Y-104817000D01*
X198882000Y-107477000D02*
X206562000Y-107477000D01*
X206562000Y-107477000D02*
X206562000Y-104817000D01*
%TO.C,J17*%
X187138000Y-146498000D02*
X188468000Y-146498000D01*
X187138000Y-147828000D02*
X187138000Y-146498000D01*
X189738000Y-146498000D02*
X194878000Y-146498000D01*
X189738000Y-149158000D02*
X189738000Y-146498000D01*
X189738000Y-149158000D02*
X194878000Y-149158000D01*
X194878000Y-149158000D02*
X194878000Y-146498000D01*
%TO.C,C1*%
X256380000Y-117630000D02*
X261620000Y-117630000D01*
X256380000Y-117967000D02*
X256380000Y-117630000D01*
X256380000Y-120370000D02*
X256380000Y-120033000D01*
X261620000Y-117630000D02*
X261620000Y-117967000D01*
X261620000Y-120033000D02*
X261620000Y-120370000D01*
X261620000Y-120370000D02*
X256380000Y-120370000D01*
%TO.C,J20*%
X256480000Y-130937000D02*
X256480000Y-123257000D01*
X256480000Y-133537000D02*
X256480000Y-132207000D01*
X257810000Y-133537000D02*
X256480000Y-133537000D01*
X259140000Y-123257000D02*
X256480000Y-123257000D01*
X259140000Y-130937000D02*
X256480000Y-130937000D01*
X259140000Y-130937000D02*
X259140000Y-123257000D01*
%TO.C,J16*%
X187138000Y-152086000D02*
X188468000Y-152086000D01*
X187138000Y-153416000D02*
X187138000Y-152086000D01*
X189738000Y-152086000D02*
X194878000Y-152086000D01*
X189738000Y-154746000D02*
X189738000Y-152086000D01*
X189738000Y-154746000D02*
X194878000Y-154746000D01*
X194878000Y-154746000D02*
X194878000Y-152086000D01*
%TO.C,J10*%
X270426000Y-112773000D02*
X280466000Y-112773000D01*
X270426000Y-128013000D02*
X270426000Y-112773000D01*
X273446000Y-128013000D02*
X273446000Y-112773000D01*
X278346000Y-128013000D02*
X278346000Y-112773000D01*
X279846000Y-128013000D02*
X279846000Y-112773000D01*
X280466000Y-112773000D02*
X280466000Y-125093000D01*
X280466000Y-125693000D02*
X280466000Y-128013000D01*
X280466000Y-128013000D02*
X270426000Y-128013000D01*
X281076000Y-125833000D02*
X280466000Y-125393000D01*
X281076000Y-124953000D01*
X281076000Y-125833000D01*
G36*
X281076000Y-125833000D02*
G01*
X280466000Y-125393000D01*
X281076000Y-124953000D01*
X281076000Y-125833000D01*
G37*
%TO.C,Q1*%
X194026000Y-127738000D02*
X204246000Y-127738000D01*
X194026000Y-129118000D02*
X204246000Y-129118000D01*
X194026000Y-132358000D02*
X194026000Y-127738000D01*
X197286000Y-127738000D02*
X197286000Y-129118000D01*
X200986000Y-127738000D02*
X200986000Y-129118000D01*
X204246000Y-127738000D02*
X204246000Y-132358000D01*
X204246000Y-132358000D02*
X194026000Y-132358000D01*
%TO.C,J13*%
X187163000Y-139954000D02*
X187163000Y-142554000D01*
X187163000Y-139954000D02*
X189823000Y-139954000D01*
X187163000Y-142554000D02*
X189823000Y-142554000D01*
X188493000Y-137354000D02*
X189823000Y-137354000D01*
X189823000Y-137354000D02*
X189823000Y-138684000D01*
X189823000Y-139954000D02*
X189823000Y-142554000D01*
%TD*%
M02*
